<mxfile host="app.diagrams.net" modified="2023-10-15T01:03:34.417Z" agent="Mozilla/5.0 (Windows NT 10.0; Win64; x64) AppleWebKit/537.36 (KHTML, like Gecko) Chrome/118.0.0.0 Safari/537.36" etag="yPydaw8P8WvKLpYRhGph" version="22.0.4" type="github" pages="2">
  <diagram name="SAP BTP" id="wYcRcjKQEGtaWY2RKBrf">
    <mxGraphModel dx="2074" dy="768" grid="1" gridSize="10" guides="1" tooltips="1" connect="1" arrows="1" fold="1" page="1" pageScale="1" pageWidth="1100" pageHeight="850" math="0" shadow="0">
      <root>
        <mxCell id="0" />
        <mxCell id="1" parent="0" />
        <mxCell id="PI1ROOFq2yHGhIw4-mz2-78" value="" style="rounded=0;whiteSpace=wrap;html=1;strokeColor=#0A6ED1;" parent="1" vertex="1">
          <mxGeometry x="10" y="10" width="1070" height="760" as="geometry" />
        </mxCell>
        <mxCell id="PI1ROOFq2yHGhIw4-mz2-55" value="" style="rounded=0;whiteSpace=wrap;html=1;strokeColor=#074D92;" parent="1" vertex="1">
          <mxGeometry x="782" y="61" width="280" height="610" as="geometry" />
        </mxCell>
        <mxCell id="PI1ROOFq2yHGhIw4-mz2-70" value="" style="rounded=0;whiteSpace=wrap;html=1;strokeColor=#053B70;" parent="1" vertex="1">
          <mxGeometry x="792" y="241" width="225" height="130" as="geometry" />
        </mxCell>
        <mxCell id="PI1ROOFq2yHGhIw4-mz2-59" value="" style="rounded=0;whiteSpace=wrap;html=1;strokeColor=#053B70;" parent="1" vertex="1">
          <mxGeometry x="792" y="101" width="225" height="130" as="geometry" />
        </mxCell>
        <mxCell id="PI1ROOFq2yHGhIw4-mz2-53" value="" style="rounded=0;whiteSpace=wrap;html=1;strokeColor=#074D92;" parent="1" vertex="1">
          <mxGeometry x="21" y="61" width="749" height="700" as="geometry" />
        </mxCell>
        <mxCell id="PI1ROOFq2yHGhIw4-mz2-50" value="" style="rounded=0;whiteSpace=wrap;html=1;strokeColor=#053B70;" parent="1" vertex="1">
          <mxGeometry x="533" y="101" width="225" height="130" as="geometry" />
        </mxCell>
        <mxCell id="PI1ROOFq2yHGhIw4-mz2-40" value="" style="rounded=0;whiteSpace=wrap;html=1;strokeColor=#053B70;" parent="1" vertex="1">
          <mxGeometry x="285" y="241" width="225" height="130" as="geometry" />
        </mxCell>
        <mxCell id="PI1ROOFq2yHGhIw4-mz2-7" value="" style="rounded=0;whiteSpace=wrap;html=1;strokeColor=#053B70;" parent="1" vertex="1">
          <mxGeometry x="35" y="101" width="225" height="128.5" as="geometry" />
        </mxCell>
        <mxCell id="PI1ROOFq2yHGhIw4-mz2-2" value="" style="shape=image;verticalLabelPosition=bottom;verticalAlign=top;imageAspect=0;aspect=fixed;image=data:image/svg+xml,PHN2ZyB4bWxucz0iaHR0cDovL3d3dy53My5vcmcvMjAwMC9zdmciIGlkPSJpbnRlZ3JhdGlvbi1zdWl0ZSIgdmlld0JveD0iMy45OTgwMDg0ODk2MDg3NjQ2IDMuOTk2MTY2NzA2MDg1MjA1IDQ4LjAwMjgxNTI0NjU4MjAzIDQ4LjAwMzgzMzc3MDc1MTk1IiB3aWR0aD0iNDguMDAyODE1MjQ2NTgyMDMiIGhlaWdodD0iNDguMDAzODMzNzcwNzUxOTUiPjxkZWZzPjxzdHlsZT4uY2xzLTF7ZmlsbDojMGE2ZWNmO30uY2xzLTJ7ZmlsbDojMDAzYjc0O308L3N0eWxlPjwvZGVmcz48cGF0aCBjbGFzcz0iY2xzLTEiIGQ9Ik0xNS43MjksMzIuMzY0aDIuNzI0YTIuNzI5LDIuNzI5LDAsMCwwLDIuNzI3LTIuNzJsMi43MjksMS4wNnYxLjY1OGEyLjY1NiwyLjY1NiwwLDAsMCwuNTA4LDEuNWwtMy4wMjksNGMtLjA3My0uMDA2LS4xMzUtLjA0Mi0uMjA4LS4wNDJIMTguNDU3YTIuNzI5LDIuNzI5LDAsMCwwLTIuNzMsMi43Mjl2Mi43MjRBMi43MjksMi43MjksMCwwLDAsMTguNDU3LDQ2SDIxLjE4YTIuNzI5LDIuNzI5LDAsMCwwLDIuNzI5LTIuNzI5VjQwLjU0N2EyLjY3OSwyLjY3OSwwLDAsMC0xLjE4Ny0yLjE5MWwyLjcwOS0zLjU3N2EyLjY2OCwyLjY2OCwwLDAsMCwxLjIwNy4zMTJoMi43MjRhMi42NTMsMi42NTMsMCwwLDAsMS4zNTQtLjQxMUwzMi41LDM2LjQ2NmEyLjY1MywyLjY1MywwLDAsMC0uNDExLDEuMzU0djIuNzIzYTIuNzI5LDIuNzI5LDAsMCwwLDIuNzI5LDIuNzNoMi43MjNhMi43MywyLjczLDAsMCwwLDIuNzMtMi43M1YzNy44MmEyLjcyOSwyLjcyOSwwLDAsMC0yLjczLTIuNzI5SDM0LjgyYTIuNjUzLDIuNjUzLDAsMCwwLTEuMzU0LjQxMUwzMS42OCwzMy43MTZhMi42NTMsMi42NTMsMCwwLDAsLjQxMS0xLjM1NFYyOS43N2wzLjEyOC0xLjUyNGEyLjY5MywyLjY5MywwLDAsMCwyLjMyOCwxLjM5aDIuNzI0QTIuNzI5LDIuNzI5LDAsMCwwLDQzLDI2LjkwN1YyNC4xODRhMi43MjksMi43MjksMCwwLDAtMi43MjktMi43MjlIMzcuNTQ3YTIuNzI5LDIuNzI5LDAsMCwwLTIuNzI5LDIuNzI5djIuNzIzbDAsLjAxNi0zLjA1NiwxLjQ4OGEyLjcwNywyLjcwNywwLDAsMC0yLjQtMS41SDI3LjczbC0xLjA3Mi0yLjczMmEyLjcyNywyLjcyNywwLDAsMCwyLjcwNi0yLjcyNFYxOC43MjlBMi43MjksMi43MjksMCwwLDAsMjYuNjM0LDE2SDIzLjkxMWEyLjcyOSwyLjcyOSwwLDAsMC0yLjcyOSwyLjcyOXYyLjcyNGEyLjcyOSwyLjcyOSwwLDAsMCwyLjcyOSwyLjcyOUgyNS4ybDEuMSwyLjc5MmEyLjY4MywyLjY4MywwLDAsMC0yLjMwNywyLjNsLTIuOC0xLjA4OFYyNi45MTFhMi43MjksMi43MjksMCwwLDAtMi43MjktMi43MjlIMTUuNzI5QTIuNzI5LDIuNzI5LDAsMCwwLDEzLDI2LjkxMXYyLjcyM0EyLjcyOSwyLjcyOSwwLDAsMCwxNS43MjksMzIuMzY0Wk0yMS4xOCw0My4yNzNIMTguNDU3bDAsMCwwLTIuNzI2LDIuNzI1LDBabTEzLjY0LTUuNDU1LDIuNzI1LDAsMCwyLjcyNUgzNC44MmwwLDBabTIuNzI3LTEzLjYzNiwyLjcyNiwwLDAsMi43MjVIMzcuNTQ3bDAsMFptLTguMTgzLDUuNDU2LDAsMi43MjZIMjYuNjM4bDAsMCwwLTIuNzI2Wm0tNS40NTMtOC4xODMsMCwwLDAtMi43MjYsMi43MjUsMCwwLDIuNzI2Wm0tOC4xODIsNS40NTQsMi43MjYsMCwwLDIuNzI1SDE1LjcyOWwwLDBaIi8+PHBhdGggY2xhc3M9ImNscy0xIiBkPSJNNDUuOTg5LDQwSDQzdjNoMi45ODlsLjAxMS4wMTFMNDUuOTg5LDQ5LDEwLDQ4Ljk3N2wuMDExLTUuOTg4TDEzLDQzVjQwbC0yLjk4OS0uMDExQTMuMDExLDMuMDExLDAsMCwwLDcsNDN2NS45NzdhMy4wMTEsMy4wMTEsMCwwLDAsMy4wMTEsMy4wMTJMNDUuOTg5LDUyQTMuMDExLDMuMDExLDAsMCwwLDQ5LDQ4Ljk4OVY0My4wMTFBMy4wMTEsMy4wMTEsMCwwLDAsNDUuOTg5LDQwWiIvPjxjaXJjbGUgY2xhc3M9ImNscy0xIiBjeD0iMzciIGN5PSI0NiIgcj0iMS41Ii8+PGNpcmNsZSBjbGFzcz0iY2xzLTEiIGN4PSI0MS41IiBjeT0iNDYiIHI9IjEuNSIvPjxwYXRoIGNsYXNzPSJjbHMtMiIgZD0iTTQ1Ljg0LDE2Ljk2MmE4LjQ4OSw4LjQ4OSwwLDAsMC0xMi43ODMtNS43MTNBMTEuMDIyLDExLjAyMiwwLDAsMCwyMi40MSw0QzEwLjM0Niw0LDExLjA5LDE2Ljk4OCwxMS4wOSwxNi45ODhBMTAuMjI0LDEwLjIyNCwwLDAsMCwxMywzNi44NzF2LTNhNy4yODQsNy4yODQsMCwwLDEtNi03LjE1NSw3LjQxLDcuNDEsMCwwLDEsNS4wMjctNi44NzdsMi4yNzktLjc2OC0uMjMyLTIuMzg5YTkuMTMyLDkuMTMyLDAsMCwxLDIuMDEtNy4wMTNBNy43NDQsNy43NDQsMCwwLDEsMjIuNDY1LDdhOS4yMDksOS4yMDksMCwwLDEsNy45OTQsNS4zMzlsMS4xNzYsMi44NzEsMi40MjQtMS4zMThBNy42LDcuNiwwLDAsMSwzNy40NDksMTNhNS41NDYsNS41NDYsMCwwLDEsNS40NDMsNC41MThsLjI4OCwxLjUyOCwxLjQxNS42NDZBNy40ODQsNy40ODQsMCwwLDEsNDMsMzMuODQ4djNhMTAuNDU2LDEwLjQ1NiwwLDAsMCwyLjg0LTE5Ljg4N1oiLz48L3N2Zz4=" parent="1" vertex="1">
          <mxGeometry x="155" y="132.5" width="48" height="48" as="geometry" />
        </mxCell>
        <mxCell id="PI1ROOFq2yHGhIw4-mz2-8" value="&lt;font color=&quot;#595959&quot;&gt;Custom Domain&lt;/font&gt;" style="text;html=1;strokeColor=none;fillColor=none;align=center;verticalAlign=middle;whiteSpace=wrap;rounded=0;" parent="1" vertex="1">
          <mxGeometry x="69" y="182.5" width="60" height="30" as="geometry" />
        </mxCell>
        <mxCell id="PI1ROOFq2yHGhIw4-mz2-9" value="&lt;font color=&quot;#595959&quot;&gt;Integration Suite&lt;/font&gt;" style="text;html=1;strokeColor=none;fillColor=none;align=center;verticalAlign=middle;whiteSpace=wrap;rounded=0;" parent="1" vertex="1">
          <mxGeometry x="149" y="182.5" width="60" height="30" as="geometry" />
        </mxCell>
        <mxCell id="PI1ROOFq2yHGhIw4-mz2-10" value="&lt;font color=&quot;#595959&quot;&gt;&lt;b&gt;bat-europe-integration-Production&lt;/b&gt;&lt;/font&gt;" style="text;html=1;strokeColor=none;fillColor=none;align=center;verticalAlign=middle;whiteSpace=wrap;rounded=0;" parent="1" vertex="1">
          <mxGeometry x="30" y="101" width="220" height="30" as="geometry" />
        </mxCell>
        <mxCell id="PI1ROOFq2yHGhIw4-mz2-4" value="" style="shape=image;verticalLabelPosition=bottom;verticalAlign=top;imageAspect=0;aspect=fixed;image=data:image/svg+xml,PHN2ZyB4bWxucz0iaHR0cDovL3d3dy53My5vcmcvMjAwMC9zdmciIGlkPSJjdXN0b20tZG9tYWluIiB2aWV3Qm94PSIzLjk5MzM0NjQ1MjcxMzAxMjcgNi45OTMzNDY2OTExMzE1OTIgNDguMDA2NjUyODMyMDMxMjUgNDIuMDA2NzAyNDIzMDk1NyIgd2lkdGg9IjQ4LjAwNjY1MjgzMjAzMTI1IiBoZWlnaHQ9IjQyLjAwNjcwMjQyMzA5NTciPjxkZWZzPjxzdHlsZT4uY2xzLTF7ZmlsbDojMDUzYjcwO30uY2xzLTJ7ZmlsbDojMGE2ZWQxO308L3N0eWxlPjwvZGVmcz48dGl0bGU+Y3VzdG9tLWRvbWFpbjwvdGl0bGU+PHJlY3QgY2xhc3M9ImNscy0xIiB4PSIzNCIgeT0iNyIgd2lkdGg9IjEyIiBoZWlnaHQ9IjMiIHJ4PSIwLjc1Ii8+PHJlY3QgY2xhc3M9ImNscy0xIiB4PSIxOSIgeT0iNyIgd2lkdGg9IjEyIiBoZWlnaHQ9IjMiIHJ4PSIwLjc1Ii8+PHBhdGggY2xhc3M9ImNscy0xIiBkPSJNNCw0NnYwYTIuODc3LDIuODc3LDAsMCwwLC4yMzYsMS4xNTcsMy4wMjgsMy4wMjgsMCwwLDAsMS42MDYsMS42MDdBMi44NzUsMi44NzUsMCwwLDAsNyw0OUg0OWEzLjAxMywzLjAxMywwLDAsMCwzLTNWMTZhMy4wMTMsMy4wMTMsMCwwLDAtMy0zSDE2VjcuNzVBLjY2NC42NjQsMCwwLDAsMTUuMjUsN0g0Ljc1QS42NjMuNjYzLDAsMCwwLDQsNy43NVpNNDksMTZsMCwwLDAsMzBMNyw0Niw3LDE2WiIvPjxwYXRoIGNsYXNzPSJjbHMtMiIgZD0iTTM5LjIxNCwyNi43M2ExMi43NDUsMTIuNzQ1LDAsMCwwLTIuMTA3LTMuNTczLDExLjkxNCwxMS45MTQsMCwwLDAtMy4yMS0yLjYyOCwxMi4wNTUsMTIuMDU1LDAsMCwwLTMuOTktMS4zOTNsMCwwYy0uMzE3LS4wNDYtLjYyNC0uMDc4LS45MjEtLjFhMTUuNjkxLDE1LjY5MSwwLDAsMC0xLjksMGMtLjI5NC4wMjYtLjYuMDU4LS45MjIuMTA3YTExLjY2MywxMS42NjMsMCwwLDAtNC4wMjQsMS40LDEyLjQ4MiwxMi40ODIsMCwwLDAtMy4yLDIuNjIyLDEyLjE2MSwxMi4xNjEsMCwwLDAtMi4xNDYsMy41NzlBMTEuNjkxLDExLjY5MSwwLDAsMCwxNiwzMWExMS40NzIsMTEuNDcyLDAsMCwwLC45NTcsNC42NDIsMTIuMjIxLDEyLjIyMSwwLDAsMCw2LjQsNi40QTExLjUsMTEuNSwwLDAsMCwyOCw0M2ExMS42MzgsMTEuNjM4LDAsMCwwLDQuNzA3LS45NTcsMTIuMzg5LDEyLjM4OSwwLDAsMCwzLjgxNS0yLjU4NkExMS45MDYsMTEuOTA2LDAsMCwwLDQwLDMxLDExLjcxOSwxMS43MTksMCwwLDAsMzkuMjE0LDI2LjczWm0tMy4zMTQtMUgzMi40NzdhMTMuMjUxLDEzLjI1MSwwLDAsMC0yLjEwNy0zLjg4NEE4Ljk0MSw4Ljk0MSwwLDAsMSwzNS45LDI1LjczWm0tNC4wMTYsNWExMS43NjUsMTEuNzY1LDAsMCwxLS4xMzIsMS43NzhBMTQuNzgyLDE0Ljc4MiwwLDAsMSwzMS40MjMsMzRoLTYuNzhhMTQuMjUyLDE0LjI1MiwwLDAsMS0uMzI5LTEuNDg5LDExLjUxMSwxMS41MTEsMCwwLDEtLjEzMi0xLjc3OEExMi4xODMsMTIuMTgzLDAsMCwxLDI0LjUxMSwyOGg3LjA0NEExMi4zLDEyLjMsMCwwLDEsMzEuODg0LDMwLjczM1pNMjgsMjEuNjQ5YTcuNDExLDcuNDExLDAsMCwxLDEuNjc5LDEuNzExLDExLjE3MiwxMS4xNzIsMCwwLDEsMS4yODMsMi4zN0gyNS4xQTguNzQxLDguNzQxLDAsMCwxLDI4LDIxLjY0OVptLTIuMy4yYTEzLjE4MiwxMy4xODIsMCwwLDAtMi4xMDcsMy44ODRIMjAuMTY2QTguOTMsOC45MywwLDAsMSwyNS43LDIxLjg0NlpNMTkuMTEzLDM0YTguNjM1LDguNjM1LDAsMCwxLS40MjgtMS4zNTgsOC4yODgsOC4yODgsMCwwLDEsMC0zLjI5MUE4LjU4NCw4LjU4NCwwLDAsMSwxOS4xMTMsMjhoMy45NWExMi4xODMsMTIuMTgzLDAsMCwwLS4zMjksMi43MzNBMTIuODI1LDEyLjgyNSwwLDAsMCwyMy4xMjgsMzRaTTIyLjgsMzguODYzYTEwLjIyMywxMC4yMjMsMCwwLDEtMi42MzMtMi42aDMuNTU1YTEyLjM1NiwxMi4zNTYsMCwwLDAsMi41NjcsNC4wMTZBOC42NjMsOC42NjMsMCwwLDEsMjIuOCwzOC44NjNaTTI4LDM5Ljg4NGE3LjQ2NCw3LjQ2NCwwLDAsMS0xLjQ4MS0xLjUxNEExMC43NDUsMTAuNzQ1LDAsMCwxLDI1LjMsMzYuMjYzaDUuNDY0QTguMDgxLDguMDgxLDAsMCwxLDI4LDM5Ljg4NFptNS4yNjYtMS4wMjFhOC42NjMsOC42NjMsMCwwLDEtMy40ODksMS40MTYsMTIuNDQsMTIuNDQsMCwwLDAsMi41NjgtNC4wMTZIMzUuOUExMC4yNDMsMTAuMjQzLDAsMCwxLDMzLjI2NiwzOC44NjNaTTM2Ljk1MywzNEgzMi45MzdhOC4yNjksOC4yNjksMCwwLDAsLjI2NC0xLjQ4OXEuMDY1LS44NTUuMDY1LTEuNzc4QTEyLjU5LDEyLjU5LDAsMCwwLDMzLDI4aDMuOTVhOC44LDguOCwwLDAsMSwwLDZaIi8+PC9zdmc+" parent="1" vertex="1">
          <mxGeometry x="75" y="138.5" width="48" height="42" as="geometry" />
        </mxCell>
        <mxCell id="PI1ROOFq2yHGhIw4-mz2-11" value="" style="rounded=0;whiteSpace=wrap;html=1;strokeColor=#053B70;" parent="1" vertex="1">
          <mxGeometry x="35" y="241" width="225" height="128.5" as="geometry" />
        </mxCell>
        <mxCell id="PI1ROOFq2yHGhIw4-mz2-12" value="" style="shape=image;verticalLabelPosition=bottom;verticalAlign=top;imageAspect=0;aspect=fixed;image=data:image/svg+xml,PHN2ZyB4bWxucz0iaHR0cDovL3d3dy53My5vcmcvMjAwMC9zdmciIGlkPSJpbnRlZ3JhdGlvbi1zdWl0ZSIgdmlld0JveD0iMy45OTgwMDg0ODk2MDg3NjQ2IDMuOTk2MTY2NzA2MDg1MjA1IDQ4LjAwMjgxNTI0NjU4MjAzIDQ4LjAwMzgzMzc3MDc1MTk1IiB3aWR0aD0iNDguMDAyODE1MjQ2NTgyMDMiIGhlaWdodD0iNDguMDAzODMzNzcwNzUxOTUiPjxkZWZzPjxzdHlsZT4uY2xzLTF7ZmlsbDojMGE2ZWNmO30uY2xzLTJ7ZmlsbDojMDAzYjc0O308L3N0eWxlPjwvZGVmcz48cGF0aCBjbGFzcz0iY2xzLTEiIGQ9Ik0xNS43MjksMzIuMzY0aDIuNzI0YTIuNzI5LDIuNzI5LDAsMCwwLDIuNzI3LTIuNzJsMi43MjksMS4wNnYxLjY1OGEyLjY1NiwyLjY1NiwwLDAsMCwuNTA4LDEuNWwtMy4wMjksNGMtLjA3My0uMDA2LS4xMzUtLjA0Mi0uMjA4LS4wNDJIMTguNDU3YTIuNzI5LDIuNzI5LDAsMCwwLTIuNzMsMi43Mjl2Mi43MjRBMi43MjksMi43MjksMCwwLDAsMTguNDU3LDQ2SDIxLjE4YTIuNzI5LDIuNzI5LDAsMCwwLDIuNzI5LTIuNzI5VjQwLjU0N2EyLjY3OSwyLjY3OSwwLDAsMC0xLjE4Ny0yLjE5MWwyLjcwOS0zLjU3N2EyLjY2OCwyLjY2OCwwLDAsMCwxLjIwNy4zMTJoMi43MjRhMi42NTMsMi42NTMsMCwwLDAsMS4zNTQtLjQxMUwzMi41LDM2LjQ2NmEyLjY1MywyLjY1MywwLDAsMC0uNDExLDEuMzU0djIuNzIzYTIuNzI5LDIuNzI5LDAsMCwwLDIuNzI5LDIuNzNoMi43MjNhMi43MywyLjczLDAsMCwwLDIuNzMtMi43M1YzNy44MmEyLjcyOSwyLjcyOSwwLDAsMC0yLjczLTIuNzI5SDM0LjgyYTIuNjUzLDIuNjUzLDAsMCwwLTEuMzU0LjQxMUwzMS42OCwzMy43MTZhMi42NTMsMi42NTMsMCwwLDAsLjQxMS0xLjM1NFYyOS43N2wzLjEyOC0xLjUyNGEyLjY5MywyLjY5MywwLDAsMCwyLjMyOCwxLjM5aDIuNzI0QTIuNzI5LDIuNzI5LDAsMCwwLDQzLDI2LjkwN1YyNC4xODRhMi43MjksMi43MjksMCwwLDAtMi43MjktMi43MjlIMzcuNTQ3YTIuNzI5LDIuNzI5LDAsMCwwLTIuNzI5LDIuNzI5djIuNzIzbDAsLjAxNi0zLjA1NiwxLjQ4OGEyLjcwNywyLjcwNywwLDAsMC0yLjQtMS41SDI3LjczbC0xLjA3Mi0yLjczMmEyLjcyNywyLjcyNywwLDAsMCwyLjcwNi0yLjcyNFYxOC43MjlBMi43MjksMi43MjksMCwwLDAsMjYuNjM0LDE2SDIzLjkxMWEyLjcyOSwyLjcyOSwwLDAsMC0yLjcyOSwyLjcyOXYyLjcyNGEyLjcyOSwyLjcyOSwwLDAsMCwyLjcyOSwyLjcyOUgyNS4ybDEuMSwyLjc5MmEyLjY4MywyLjY4MywwLDAsMC0yLjMwNywyLjNsLTIuOC0xLjA4OFYyNi45MTFhMi43MjksMi43MjksMCwwLDAtMi43MjktMi43MjlIMTUuNzI5QTIuNzI5LDIuNzI5LDAsMCwwLDEzLDI2LjkxMXYyLjcyM0EyLjcyOSwyLjcyOSwwLDAsMCwxNS43MjksMzIuMzY0Wk0yMS4xOCw0My4yNzNIMTguNDU3bDAsMCwwLTIuNzI2LDIuNzI1LDBabTEzLjY0LTUuNDU1LDIuNzI1LDAsMCwyLjcyNUgzNC44MmwwLDBabTIuNzI3LTEzLjYzNiwyLjcyNiwwLDAsMi43MjVIMzcuNTQ3bDAsMFptLTguMTgzLDUuNDU2LDAsMi43MjZIMjYuNjM4bDAsMCwwLTIuNzI2Wm0tNS40NTMtOC4xODMsMCwwLDAtMi43MjYsMi43MjUsMCwwLDIuNzI2Wm0tOC4xODIsNS40NTQsMi43MjYsMCwwLDIuNzI1SDE1LjcyOWwwLDBaIi8+PHBhdGggY2xhc3M9ImNscy0xIiBkPSJNNDUuOTg5LDQwSDQzdjNoMi45ODlsLjAxMS4wMTFMNDUuOTg5LDQ5LDEwLDQ4Ljk3N2wuMDExLTUuOTg4TDEzLDQzVjQwbC0yLjk4OS0uMDExQTMuMDExLDMuMDExLDAsMCwwLDcsNDN2NS45NzdhMy4wMTEsMy4wMTEsMCwwLDAsMy4wMTEsMy4wMTJMNDUuOTg5LDUyQTMuMDExLDMuMDExLDAsMCwwLDQ5LDQ4Ljk4OVY0My4wMTFBMy4wMTEsMy4wMTEsMCwwLDAsNDUuOTg5LDQwWiIvPjxjaXJjbGUgY2xhc3M9ImNscy0xIiBjeD0iMzciIGN5PSI0NiIgcj0iMS41Ii8+PGNpcmNsZSBjbGFzcz0iY2xzLTEiIGN4PSI0MS41IiBjeT0iNDYiIHI9IjEuNSIvPjxwYXRoIGNsYXNzPSJjbHMtMiIgZD0iTTQ1Ljg0LDE2Ljk2MmE4LjQ4OSw4LjQ4OSwwLDAsMC0xMi43ODMtNS43MTNBMTEuMDIyLDExLjAyMiwwLDAsMCwyMi40MSw0QzEwLjM0Niw0LDExLjA5LDE2Ljk4OCwxMS4wOSwxNi45ODhBMTAuMjI0LDEwLjIyNCwwLDAsMCwxMywzNi44NzF2LTNhNy4yODQsNy4yODQsMCwwLDEtNi03LjE1NSw3LjQxLDcuNDEsMCwwLDEsNS4wMjctNi44NzdsMi4yNzktLjc2OC0uMjMyLTIuMzg5YTkuMTMyLDkuMTMyLDAsMCwxLDIuMDEtNy4wMTNBNy43NDQsNy43NDQsMCwwLDEsMjIuNDY1LDdhOS4yMDksOS4yMDksMCwwLDEsNy45OTQsNS4zMzlsMS4xNzYsMi44NzEsMi40MjQtMS4zMThBNy42LDcuNiwwLDAsMSwzNy40NDksMTNhNS41NDYsNS41NDYsMCwwLDEsNS40NDMsNC41MThsLjI4OCwxLjUyOCwxLjQxNS42NDZBNy40ODQsNy40ODQsMCwwLDEsNDMsMzMuODQ4djNhMTAuNDU2LDEwLjQ1NiwwLDAsMCwyLjg0LTE5Ljg4N1oiLz48L3N2Zz4=" parent="1" vertex="1">
          <mxGeometry x="155" y="272.5" width="48" height="48" as="geometry" />
        </mxCell>
        <mxCell id="PI1ROOFq2yHGhIw4-mz2-13" value="&lt;font color=&quot;#595959&quot;&gt;Custom Domain&lt;/font&gt;" style="text;html=1;strokeColor=none;fillColor=none;align=center;verticalAlign=middle;whiteSpace=wrap;rounded=0;" parent="1" vertex="1">
          <mxGeometry x="69" y="322.5" width="60" height="30" as="geometry" />
        </mxCell>
        <mxCell id="PI1ROOFq2yHGhIw4-mz2-14" value="&lt;font color=&quot;#595959&quot;&gt;Integration Suite&lt;/font&gt;" style="text;html=1;strokeColor=none;fillColor=none;align=center;verticalAlign=middle;whiteSpace=wrap;rounded=0;" parent="1" vertex="1">
          <mxGeometry x="149" y="322.5" width="60" height="30" as="geometry" />
        </mxCell>
        <mxCell id="PI1ROOFq2yHGhIw4-mz2-15" value="&lt;font color=&quot;#595959&quot;&gt;&lt;b&gt;bat-europe-integration-PreProd&lt;/b&gt;&lt;/font&gt;" style="text;html=1;strokeColor=none;fillColor=none;align=center;verticalAlign=middle;whiteSpace=wrap;rounded=0;" parent="1" vertex="1">
          <mxGeometry x="21" y="241" width="220" height="30" as="geometry" />
        </mxCell>
        <mxCell id="PI1ROOFq2yHGhIw4-mz2-16" value="" style="shape=image;verticalLabelPosition=bottom;verticalAlign=top;imageAspect=0;aspect=fixed;image=data:image/svg+xml,PHN2ZyB4bWxucz0iaHR0cDovL3d3dy53My5vcmcvMjAwMC9zdmciIGlkPSJjdXN0b20tZG9tYWluIiB2aWV3Qm94PSIzLjk5MzM0NjQ1MjcxMzAxMjcgNi45OTMzNDY2OTExMzE1OTIgNDguMDA2NjUyODMyMDMxMjUgNDIuMDA2NzAyNDIzMDk1NyIgd2lkdGg9IjQ4LjAwNjY1MjgzMjAzMTI1IiBoZWlnaHQ9IjQyLjAwNjcwMjQyMzA5NTciPjxkZWZzPjxzdHlsZT4uY2xzLTF7ZmlsbDojMDUzYjcwO30uY2xzLTJ7ZmlsbDojMGE2ZWQxO308L3N0eWxlPjwvZGVmcz48dGl0bGU+Y3VzdG9tLWRvbWFpbjwvdGl0bGU+PHJlY3QgY2xhc3M9ImNscy0xIiB4PSIzNCIgeT0iNyIgd2lkdGg9IjEyIiBoZWlnaHQ9IjMiIHJ4PSIwLjc1Ii8+PHJlY3QgY2xhc3M9ImNscy0xIiB4PSIxOSIgeT0iNyIgd2lkdGg9IjEyIiBoZWlnaHQ9IjMiIHJ4PSIwLjc1Ii8+PHBhdGggY2xhc3M9ImNscy0xIiBkPSJNNCw0NnYwYTIuODc3LDIuODc3LDAsMCwwLC4yMzYsMS4xNTcsMy4wMjgsMy4wMjgsMCwwLDAsMS42MDYsMS42MDdBMi44NzUsMi44NzUsMCwwLDAsNyw0OUg0OWEzLjAxMywzLjAxMywwLDAsMCwzLTNWMTZhMy4wMTMsMy4wMTMsMCwwLDAtMy0zSDE2VjcuNzVBLjY2NC42NjQsMCwwLDAsMTUuMjUsN0g0Ljc1QS42NjMuNjYzLDAsMCwwLDQsNy43NVpNNDksMTZsMCwwLDAsMzBMNyw0Niw3LDE2WiIvPjxwYXRoIGNsYXNzPSJjbHMtMiIgZD0iTTM5LjIxNCwyNi43M2ExMi43NDUsMTIuNzQ1LDAsMCwwLTIuMTA3LTMuNTczLDExLjkxNCwxMS45MTQsMCwwLDAtMy4yMS0yLjYyOCwxMi4wNTUsMTIuMDU1LDAsMCwwLTMuOTktMS4zOTNsMCwwYy0uMzE3LS4wNDYtLjYyNC0uMDc4LS45MjEtLjFhMTUuNjkxLDE1LjY5MSwwLDAsMC0xLjksMGMtLjI5NC4wMjYtLjYuMDU4LS45MjIuMTA3YTExLjY2MywxMS42NjMsMCwwLDAtNC4wMjQsMS40LDEyLjQ4MiwxMi40ODIsMCwwLDAtMy4yLDIuNjIyLDEyLjE2MSwxMi4xNjEsMCwwLDAtMi4xNDYsMy41NzlBMTEuNjkxLDExLjY5MSwwLDAsMCwxNiwzMWExMS40NzIsMTEuNDcyLDAsMCwwLC45NTcsNC42NDIsMTIuMjIxLDEyLjIyMSwwLDAsMCw2LjQsNi40QTExLjUsMTEuNSwwLDAsMCwyOCw0M2ExMS42MzgsMTEuNjM4LDAsMCwwLDQuNzA3LS45NTcsMTIuMzg5LDEyLjM4OSwwLDAsMCwzLjgxNS0yLjU4NkExMS45MDYsMTEuOTA2LDAsMCwwLDQwLDMxLDExLjcxOSwxMS43MTksMCwwLDAsMzkuMjE0LDI2LjczWm0tMy4zMTQtMUgzMi40NzdhMTMuMjUxLDEzLjI1MSwwLDAsMC0yLjEwNy0zLjg4NEE4Ljk0MSw4Ljk0MSwwLDAsMSwzNS45LDI1LjczWm0tNC4wMTYsNWExMS43NjUsMTEuNzY1LDAsMCwxLS4xMzIsMS43NzhBMTQuNzgyLDE0Ljc4MiwwLDAsMSwzMS40MjMsMzRoLTYuNzhhMTQuMjUyLDE0LjI1MiwwLDAsMS0uMzI5LTEuNDg5LDExLjUxMSwxMS41MTEsMCwwLDEtLjEzMi0xLjc3OEExMi4xODMsMTIuMTgzLDAsMCwxLDI0LjUxMSwyOGg3LjA0NEExMi4zLDEyLjMsMCwwLDEsMzEuODg0LDMwLjczM1pNMjgsMjEuNjQ5YTcuNDExLDcuNDExLDAsMCwxLDEuNjc5LDEuNzExLDExLjE3MiwxMS4xNzIsMCwwLDEsMS4yODMsMi4zN0gyNS4xQTguNzQxLDguNzQxLDAsMCwxLDI4LDIxLjY0OVptLTIuMy4yYTEzLjE4MiwxMy4xODIsMCwwLDAtMi4xMDcsMy44ODRIMjAuMTY2QTguOTMsOC45MywwLDAsMSwyNS43LDIxLjg0NlpNMTkuMTEzLDM0YTguNjM1LDguNjM1LDAsMCwxLS40MjgtMS4zNTgsOC4yODgsOC4yODgsMCwwLDEsMC0zLjI5MUE4LjU4NCw4LjU4NCwwLDAsMSwxOS4xMTMsMjhoMy45NWExMi4xODMsMTIuMTgzLDAsMCwwLS4zMjksMi43MzNBMTIuODI1LDEyLjgyNSwwLDAsMCwyMy4xMjgsMzRaTTIyLjgsMzguODYzYTEwLjIyMywxMC4yMjMsMCwwLDEtMi42MzMtMi42aDMuNTU1YTEyLjM1NiwxMi4zNTYsMCwwLDAsMi41NjcsNC4wMTZBOC42NjMsOC42NjMsMCwwLDEsMjIuOCwzOC44NjNaTTI4LDM5Ljg4NGE3LjQ2NCw3LjQ2NCwwLDAsMS0xLjQ4MS0xLjUxNEExMC43NDUsMTAuNzQ1LDAsMCwxLDI1LjMsMzYuMjYzaDUuNDY0QTguMDgxLDguMDgxLDAsMCwxLDI4LDM5Ljg4NFptNS4yNjYtMS4wMjFhOC42NjMsOC42NjMsMCwwLDEtMy40ODksMS40MTYsMTIuNDQsMTIuNDQsMCwwLDAsMi41NjgtNC4wMTZIMzUuOUExMC4yNDMsMTAuMjQzLDAsMCwxLDMzLjI2NiwzOC44NjNaTTM2Ljk1MywzNEgzMi45MzdhOC4yNjksOC4yNjksMCwwLDAsLjI2NC0xLjQ4OXEuMDY1LS44NTUuMDY1LTEuNzc4QTEyLjU5LDEyLjU5LDAsMCwwLDMzLDI4aDMuOTVhOC44LDguOCwwLDAsMSwwLDZaIi8+PC9zdmc+" parent="1" vertex="1">
          <mxGeometry x="75" y="278.5" width="48" height="42" as="geometry" />
        </mxCell>
        <mxCell id="PI1ROOFq2yHGhIw4-mz2-17" value="" style="rounded=0;whiteSpace=wrap;html=1;strokeColor=#053B70;" parent="1" vertex="1">
          <mxGeometry x="35" y="381" width="225" height="128.5" as="geometry" />
        </mxCell>
        <mxCell id="PI1ROOFq2yHGhIw4-mz2-18" value="" style="shape=image;verticalLabelPosition=bottom;verticalAlign=top;imageAspect=0;aspect=fixed;image=data:image/svg+xml,PHN2ZyB4bWxucz0iaHR0cDovL3d3dy53My5vcmcvMjAwMC9zdmciIGlkPSJpbnRlZ3JhdGlvbi1zdWl0ZSIgdmlld0JveD0iMy45OTgwMDg0ODk2MDg3NjQ2IDMuOTk2MTY2NzA2MDg1MjA1IDQ4LjAwMjgxNTI0NjU4MjAzIDQ4LjAwMzgzMzc3MDc1MTk1IiB3aWR0aD0iNDguMDAyODE1MjQ2NTgyMDMiIGhlaWdodD0iNDguMDAzODMzNzcwNzUxOTUiPjxkZWZzPjxzdHlsZT4uY2xzLTF7ZmlsbDojMGE2ZWNmO30uY2xzLTJ7ZmlsbDojMDAzYjc0O308L3N0eWxlPjwvZGVmcz48cGF0aCBjbGFzcz0iY2xzLTEiIGQ9Ik0xNS43MjksMzIuMzY0aDIuNzI0YTIuNzI5LDIuNzI5LDAsMCwwLDIuNzI3LTIuNzJsMi43MjksMS4wNnYxLjY1OGEyLjY1NiwyLjY1NiwwLDAsMCwuNTA4LDEuNWwtMy4wMjksNGMtLjA3My0uMDA2LS4xMzUtLjA0Mi0uMjA4LS4wNDJIMTguNDU3YTIuNzI5LDIuNzI5LDAsMCwwLTIuNzMsMi43Mjl2Mi43MjRBMi43MjksMi43MjksMCwwLDAsMTguNDU3LDQ2SDIxLjE4YTIuNzI5LDIuNzI5LDAsMCwwLDIuNzI5LTIuNzI5VjQwLjU0N2EyLjY3OSwyLjY3OSwwLDAsMC0xLjE4Ny0yLjE5MWwyLjcwOS0zLjU3N2EyLjY2OCwyLjY2OCwwLDAsMCwxLjIwNy4zMTJoMi43MjRhMi42NTMsMi42NTMsMCwwLDAsMS4zNTQtLjQxMUwzMi41LDM2LjQ2NmEyLjY1MywyLjY1MywwLDAsMC0uNDExLDEuMzU0djIuNzIzYTIuNzI5LDIuNzI5LDAsMCwwLDIuNzI5LDIuNzNoMi43MjNhMi43MywyLjczLDAsMCwwLDIuNzMtMi43M1YzNy44MmEyLjcyOSwyLjcyOSwwLDAsMC0yLjczLTIuNzI5SDM0LjgyYTIuNjUzLDIuNjUzLDAsMCwwLTEuMzU0LjQxMUwzMS42OCwzMy43MTZhMi42NTMsMi42NTMsMCwwLDAsLjQxMS0xLjM1NFYyOS43N2wzLjEyOC0xLjUyNGEyLjY5MywyLjY5MywwLDAsMCwyLjMyOCwxLjM5aDIuNzI0QTIuNzI5LDIuNzI5LDAsMCwwLDQzLDI2LjkwN1YyNC4xODRhMi43MjksMi43MjksMCwwLDAtMi43MjktMi43MjlIMzcuNTQ3YTIuNzI5LDIuNzI5LDAsMCwwLTIuNzI5LDIuNzI5djIuNzIzbDAsLjAxNi0zLjA1NiwxLjQ4OGEyLjcwNywyLjcwNywwLDAsMC0yLjQtMS41SDI3LjczbC0xLjA3Mi0yLjczMmEyLjcyNywyLjcyNywwLDAsMCwyLjcwNi0yLjcyNFYxOC43MjlBMi43MjksMi43MjksMCwwLDAsMjYuNjM0LDE2SDIzLjkxMWEyLjcyOSwyLjcyOSwwLDAsMC0yLjcyOSwyLjcyOXYyLjcyNGEyLjcyOSwyLjcyOSwwLDAsMCwyLjcyOSwyLjcyOUgyNS4ybDEuMSwyLjc5MmEyLjY4MywyLjY4MywwLDAsMC0yLjMwNywyLjNsLTIuOC0xLjA4OFYyNi45MTFhMi43MjksMi43MjksMCwwLDAtMi43MjktMi43MjlIMTUuNzI5QTIuNzI5LDIuNzI5LDAsMCwwLDEzLDI2LjkxMXYyLjcyM0EyLjcyOSwyLjcyOSwwLDAsMCwxNS43MjksMzIuMzY0Wk0yMS4xOCw0My4yNzNIMTguNDU3bDAsMCwwLTIuNzI2LDIuNzI1LDBabTEzLjY0LTUuNDU1LDIuNzI1LDAsMCwyLjcyNUgzNC44MmwwLDBabTIuNzI3LTEzLjYzNiwyLjcyNiwwLDAsMi43MjVIMzcuNTQ3bDAsMFptLTguMTgzLDUuNDU2LDAsMi43MjZIMjYuNjM4bDAsMCwwLTIuNzI2Wm0tNS40NTMtOC4xODMsMCwwLDAtMi43MjYsMi43MjUsMCwwLDIuNzI2Wm0tOC4xODIsNS40NTQsMi43MjYsMCwwLDIuNzI1SDE1LjcyOWwwLDBaIi8+PHBhdGggY2xhc3M9ImNscy0xIiBkPSJNNDUuOTg5LDQwSDQzdjNoMi45ODlsLjAxMS4wMTFMNDUuOTg5LDQ5LDEwLDQ4Ljk3N2wuMDExLTUuOTg4TDEzLDQzVjQwbC0yLjk4OS0uMDExQTMuMDExLDMuMDExLDAsMCwwLDcsNDN2NS45NzdhMy4wMTEsMy4wMTEsMCwwLDAsMy4wMTEsMy4wMTJMNDUuOTg5LDUyQTMuMDExLDMuMDExLDAsMCwwLDQ5LDQ4Ljk4OVY0My4wMTFBMy4wMTEsMy4wMTEsMCwwLDAsNDUuOTg5LDQwWiIvPjxjaXJjbGUgY2xhc3M9ImNscy0xIiBjeD0iMzciIGN5PSI0NiIgcj0iMS41Ii8+PGNpcmNsZSBjbGFzcz0iY2xzLTEiIGN4PSI0MS41IiBjeT0iNDYiIHI9IjEuNSIvPjxwYXRoIGNsYXNzPSJjbHMtMiIgZD0iTTQ1Ljg0LDE2Ljk2MmE4LjQ4OSw4LjQ4OSwwLDAsMC0xMi43ODMtNS43MTNBMTEuMDIyLDExLjAyMiwwLDAsMCwyMi40MSw0QzEwLjM0Niw0LDExLjA5LDE2Ljk4OCwxMS4wOSwxNi45ODhBMTAuMjI0LDEwLjIyNCwwLDAsMCwxMywzNi44NzF2LTNhNy4yODQsNy4yODQsMCwwLDEtNi03LjE1NSw3LjQxLDcuNDEsMCwwLDEsNS4wMjctNi44NzdsMi4yNzktLjc2OC0uMjMyLTIuMzg5YTkuMTMyLDkuMTMyLDAsMCwxLDIuMDEtNy4wMTNBNy43NDQsNy43NDQsMCwwLDEsMjIuNDY1LDdhOS4yMDksOS4yMDksMCwwLDEsNy45OTQsNS4zMzlsMS4xNzYsMi44NzEsMi40MjQtMS4zMThBNy42LDcuNiwwLDAsMSwzNy40NDksMTNhNS41NDYsNS41NDYsMCwwLDEsNS40NDMsNC41MThsLjI4OCwxLjUyOCwxLjQxNS42NDZBNy40ODQsNy40ODQsMCwwLDEsNDMsMzMuODQ4djNhMTAuNDU2LDEwLjQ1NiwwLDAsMCwyLjg0LTE5Ljg4N1oiLz48L3N2Zz4=" parent="1" vertex="1">
          <mxGeometry x="155" y="412.5" width="48" height="48" as="geometry" />
        </mxCell>
        <mxCell id="PI1ROOFq2yHGhIw4-mz2-19" value="&lt;font color=&quot;#595959&quot;&gt;Custom Domain&lt;/font&gt;" style="text;html=1;strokeColor=none;fillColor=none;align=center;verticalAlign=middle;whiteSpace=wrap;rounded=0;" parent="1" vertex="1">
          <mxGeometry x="69" y="462.5" width="60" height="30" as="geometry" />
        </mxCell>
        <mxCell id="PI1ROOFq2yHGhIw4-mz2-20" value="&lt;font color=&quot;#595959&quot;&gt;Integration Suite&lt;/font&gt;" style="text;html=1;strokeColor=none;fillColor=none;align=center;verticalAlign=middle;whiteSpace=wrap;rounded=0;" parent="1" vertex="1">
          <mxGeometry x="149" y="462.5" width="60" height="30" as="geometry" />
        </mxCell>
        <mxCell id="PI1ROOFq2yHGhIw4-mz2-21" value="&lt;font color=&quot;#595959&quot;&gt;&lt;b&gt;bat-europe-integration-Quality&lt;/b&gt;&lt;/font&gt;" style="text;html=1;strokeColor=none;fillColor=none;align=center;verticalAlign=middle;whiteSpace=wrap;rounded=0;" parent="1" vertex="1">
          <mxGeometry x="19" y="381" width="220" height="30" as="geometry" />
        </mxCell>
        <mxCell id="PI1ROOFq2yHGhIw4-mz2-22" value="" style="shape=image;verticalLabelPosition=bottom;verticalAlign=top;imageAspect=0;aspect=fixed;image=data:image/svg+xml,PHN2ZyB4bWxucz0iaHR0cDovL3d3dy53My5vcmcvMjAwMC9zdmciIGlkPSJjdXN0b20tZG9tYWluIiB2aWV3Qm94PSIzLjk5MzM0NjQ1MjcxMzAxMjcgNi45OTMzNDY2OTExMzE1OTIgNDguMDA2NjUyODMyMDMxMjUgNDIuMDA2NzAyNDIzMDk1NyIgd2lkdGg9IjQ4LjAwNjY1MjgzMjAzMTI1IiBoZWlnaHQ9IjQyLjAwNjcwMjQyMzA5NTciPjxkZWZzPjxzdHlsZT4uY2xzLTF7ZmlsbDojMDUzYjcwO30uY2xzLTJ7ZmlsbDojMGE2ZWQxO308L3N0eWxlPjwvZGVmcz48dGl0bGU+Y3VzdG9tLWRvbWFpbjwvdGl0bGU+PHJlY3QgY2xhc3M9ImNscy0xIiB4PSIzNCIgeT0iNyIgd2lkdGg9IjEyIiBoZWlnaHQ9IjMiIHJ4PSIwLjc1Ii8+PHJlY3QgY2xhc3M9ImNscy0xIiB4PSIxOSIgeT0iNyIgd2lkdGg9IjEyIiBoZWlnaHQ9IjMiIHJ4PSIwLjc1Ii8+PHBhdGggY2xhc3M9ImNscy0xIiBkPSJNNCw0NnYwYTIuODc3LDIuODc3LDAsMCwwLC4yMzYsMS4xNTcsMy4wMjgsMy4wMjgsMCwwLDAsMS42MDYsMS42MDdBMi44NzUsMi44NzUsMCwwLDAsNyw0OUg0OWEzLjAxMywzLjAxMywwLDAsMCwzLTNWMTZhMy4wMTMsMy4wMTMsMCwwLDAtMy0zSDE2VjcuNzVBLjY2NC42NjQsMCwwLDAsMTUuMjUsN0g0Ljc1QS42NjMuNjYzLDAsMCwwLDQsNy43NVpNNDksMTZsMCwwLDAsMzBMNyw0Niw3LDE2WiIvPjxwYXRoIGNsYXNzPSJjbHMtMiIgZD0iTTM5LjIxNCwyNi43M2ExMi43NDUsMTIuNzQ1LDAsMCwwLTIuMTA3LTMuNTczLDExLjkxNCwxMS45MTQsMCwwLDAtMy4yMS0yLjYyOCwxMi4wNTUsMTIuMDU1LDAsMCwwLTMuOTktMS4zOTNsMCwwYy0uMzE3LS4wNDYtLjYyNC0uMDc4LS45MjEtLjFhMTUuNjkxLDE1LjY5MSwwLDAsMC0xLjksMGMtLjI5NC4wMjYtLjYuMDU4LS45MjIuMTA3YTExLjY2MywxMS42NjMsMCwwLDAtNC4wMjQsMS40LDEyLjQ4MiwxMi40ODIsMCwwLDAtMy4yLDIuNjIyLDEyLjE2MSwxMi4xNjEsMCwwLDAtMi4xNDYsMy41NzlBMTEuNjkxLDExLjY5MSwwLDAsMCwxNiwzMWExMS40NzIsMTEuNDcyLDAsMCwwLC45NTcsNC42NDIsMTIuMjIxLDEyLjIyMSwwLDAsMCw2LjQsNi40QTExLjUsMTEuNSwwLDAsMCwyOCw0M2ExMS42MzgsMTEuNjM4LDAsMCwwLDQuNzA3LS45NTcsMTIuMzg5LDEyLjM4OSwwLDAsMCwzLjgxNS0yLjU4NkExMS45MDYsMTEuOTA2LDAsMCwwLDQwLDMxLDExLjcxOSwxMS43MTksMCwwLDAsMzkuMjE0LDI2LjczWm0tMy4zMTQtMUgzMi40NzdhMTMuMjUxLDEzLjI1MSwwLDAsMC0yLjEwNy0zLjg4NEE4Ljk0MSw4Ljk0MSwwLDAsMSwzNS45LDI1LjczWm0tNC4wMTYsNWExMS43NjUsMTEuNzY1LDAsMCwxLS4xMzIsMS43NzhBMTQuNzgyLDE0Ljc4MiwwLDAsMSwzMS40MjMsMzRoLTYuNzhhMTQuMjUyLDE0LjI1MiwwLDAsMS0uMzI5LTEuNDg5LDExLjUxMSwxMS41MTEsMCwwLDEtLjEzMi0xLjc3OEExMi4xODMsMTIuMTgzLDAsMCwxLDI0LjUxMSwyOGg3LjA0NEExMi4zLDEyLjMsMCwwLDEsMzEuODg0LDMwLjczM1pNMjgsMjEuNjQ5YTcuNDExLDcuNDExLDAsMCwxLDEuNjc5LDEuNzExLDExLjE3MiwxMS4xNzIsMCwwLDEsMS4yODMsMi4zN0gyNS4xQTguNzQxLDguNzQxLDAsMCwxLDI4LDIxLjY0OVptLTIuMy4yYTEzLjE4MiwxMy4xODIsMCwwLDAtMi4xMDcsMy44ODRIMjAuMTY2QTguOTMsOC45MywwLDAsMSwyNS43LDIxLjg0NlpNMTkuMTEzLDM0YTguNjM1LDguNjM1LDAsMCwxLS40MjgtMS4zNTgsOC4yODgsOC4yODgsMCwwLDEsMC0zLjI5MUE4LjU4NCw4LjU4NCwwLDAsMSwxOS4xMTMsMjhoMy45NWExMi4xODMsMTIuMTgzLDAsMCwwLS4zMjksMi43MzNBMTIuODI1LDEyLjgyNSwwLDAsMCwyMy4xMjgsMzRaTTIyLjgsMzguODYzYTEwLjIyMywxMC4yMjMsMCwwLDEtMi42MzMtMi42aDMuNTU1YTEyLjM1NiwxMi4zNTYsMCwwLDAsMi41NjcsNC4wMTZBOC42NjMsOC42NjMsMCwwLDEsMjIuOCwzOC44NjNaTTI4LDM5Ljg4NGE3LjQ2NCw3LjQ2NCwwLDAsMS0xLjQ4MS0xLjUxNEExMC43NDUsMTAuNzQ1LDAsMCwxLDI1LjMsMzYuMjYzaDUuNDY0QTguMDgxLDguMDgxLDAsMCwxLDI4LDM5Ljg4NFptNS4yNjYtMS4wMjFhOC42NjMsOC42NjMsMCwwLDEtMy40ODksMS40MTYsMTIuNDQsMTIuNDQsMCwwLDAsMi41NjgtNC4wMTZIMzUuOUExMC4yNDMsMTAuMjQzLDAsMCwxLDMzLjI2NiwzOC44NjNaTTM2Ljk1MywzNEgzMi45MzdhOC4yNjksOC4yNjksMCwwLDAsLjI2NC0xLjQ4OXEuMDY1LS44NTUuMDY1LTEuNzc4QTEyLjU5LDEyLjU5LDAsMCwwLDMzLDI4aDMuOTVhOC44LDguOCwwLDAsMSwwLDZaIi8+PC9zdmc+" parent="1" vertex="1">
          <mxGeometry x="75" y="418.5" width="48" height="42" as="geometry" />
        </mxCell>
        <mxCell id="PI1ROOFq2yHGhIw4-mz2-23" value="" style="rounded=0;whiteSpace=wrap;html=1;strokeColor=#053B70;" parent="1" vertex="1">
          <mxGeometry x="35" y="521" width="225" height="220" as="geometry" />
        </mxCell>
        <mxCell id="PI1ROOFq2yHGhIw4-mz2-24" value="" style="shape=image;verticalLabelPosition=bottom;verticalAlign=top;imageAspect=0;aspect=fixed;image=data:image/svg+xml,PHN2ZyB4bWxucz0iaHR0cDovL3d3dy53My5vcmcvMjAwMC9zdmciIGlkPSJpbnRlZ3JhdGlvbi1zdWl0ZSIgdmlld0JveD0iMy45OTgwMDg0ODk2MDg3NjQ2IDMuOTk2MTY2NzA2MDg1MjA1IDQ4LjAwMjgxNTI0NjU4MjAzIDQ4LjAwMzgzMzc3MDc1MTk1IiB3aWR0aD0iNDguMDAyODE1MjQ2NTgyMDMiIGhlaWdodD0iNDguMDAzODMzNzcwNzUxOTUiPjxkZWZzPjxzdHlsZT4uY2xzLTF7ZmlsbDojMGE2ZWNmO30uY2xzLTJ7ZmlsbDojMDAzYjc0O308L3N0eWxlPjwvZGVmcz48cGF0aCBjbGFzcz0iY2xzLTEiIGQ9Ik0xNS43MjksMzIuMzY0aDIuNzI0YTIuNzI5LDIuNzI5LDAsMCwwLDIuNzI3LTIuNzJsMi43MjksMS4wNnYxLjY1OGEyLjY1NiwyLjY1NiwwLDAsMCwuNTA4LDEuNWwtMy4wMjksNGMtLjA3My0uMDA2LS4xMzUtLjA0Mi0uMjA4LS4wNDJIMTguNDU3YTIuNzI5LDIuNzI5LDAsMCwwLTIuNzMsMi43Mjl2Mi43MjRBMi43MjksMi43MjksMCwwLDAsMTguNDU3LDQ2SDIxLjE4YTIuNzI5LDIuNzI5LDAsMCwwLDIuNzI5LTIuNzI5VjQwLjU0N2EyLjY3OSwyLjY3OSwwLDAsMC0xLjE4Ny0yLjE5MWwyLjcwOS0zLjU3N2EyLjY2OCwyLjY2OCwwLDAsMCwxLjIwNy4zMTJoMi43MjRhMi42NTMsMi42NTMsMCwwLDAsMS4zNTQtLjQxMUwzMi41LDM2LjQ2NmEyLjY1MywyLjY1MywwLDAsMC0uNDExLDEuMzU0djIuNzIzYTIuNzI5LDIuNzI5LDAsMCwwLDIuNzI5LDIuNzNoMi43MjNhMi43MywyLjczLDAsMCwwLDIuNzMtMi43M1YzNy44MmEyLjcyOSwyLjcyOSwwLDAsMC0yLjczLTIuNzI5SDM0LjgyYTIuNjUzLDIuNjUzLDAsMCwwLTEuMzU0LjQxMUwzMS42OCwzMy43MTZhMi42NTMsMi42NTMsMCwwLDAsLjQxMS0xLjM1NFYyOS43N2wzLjEyOC0xLjUyNGEyLjY5MywyLjY5MywwLDAsMCwyLjMyOCwxLjM5aDIuNzI0QTIuNzI5LDIuNzI5LDAsMCwwLDQzLDI2LjkwN1YyNC4xODRhMi43MjksMi43MjksMCwwLDAtMi43MjktMi43MjlIMzcuNTQ3YTIuNzI5LDIuNzI5LDAsMCwwLTIuNzI5LDIuNzI5djIuNzIzbDAsLjAxNi0zLjA1NiwxLjQ4OGEyLjcwNywyLjcwNywwLDAsMC0yLjQtMS41SDI3LjczbC0xLjA3Mi0yLjczMmEyLjcyNywyLjcyNywwLDAsMCwyLjcwNi0yLjcyNFYxOC43MjlBMi43MjksMi43MjksMCwwLDAsMjYuNjM0LDE2SDIzLjkxMWEyLjcyOSwyLjcyOSwwLDAsMC0yLjcyOSwyLjcyOXYyLjcyNGEyLjcyOSwyLjcyOSwwLDAsMCwyLjcyOSwyLjcyOUgyNS4ybDEuMSwyLjc5MmEyLjY4MywyLjY4MywwLDAsMC0yLjMwNywyLjNsLTIuOC0xLjA4OFYyNi45MTFhMi43MjksMi43MjksMCwwLDAtMi43MjktMi43MjlIMTUuNzI5QTIuNzI5LDIuNzI5LDAsMCwwLDEzLDI2LjkxMXYyLjcyM0EyLjcyOSwyLjcyOSwwLDAsMCwxNS43MjksMzIuMzY0Wk0yMS4xOCw0My4yNzNIMTguNDU3bDAsMCwwLTIuNzI2LDIuNzI1LDBabTEzLjY0LTUuNDU1LDIuNzI1LDAsMCwyLjcyNUgzNC44MmwwLDBabTIuNzI3LTEzLjYzNiwyLjcyNiwwLDAsMi43MjVIMzcuNTQ3bDAsMFptLTguMTgzLDUuNDU2LDAsMi43MjZIMjYuNjM4bDAsMCwwLTIuNzI2Wm0tNS40NTMtOC4xODMsMCwwLDAtMi43MjYsMi43MjUsMCwwLDIuNzI2Wm0tOC4xODIsNS40NTQsMi43MjYsMCwwLDIuNzI1SDE1LjcyOWwwLDBaIi8+PHBhdGggY2xhc3M9ImNscy0xIiBkPSJNNDUuOTg5LDQwSDQzdjNoMi45ODlsLjAxMS4wMTFMNDUuOTg5LDQ5LDEwLDQ4Ljk3N2wuMDExLTUuOTg4TDEzLDQzVjQwbC0yLjk4OS0uMDExQTMuMDExLDMuMDExLDAsMCwwLDcsNDN2NS45NzdhMy4wMTEsMy4wMTEsMCwwLDAsMy4wMTEsMy4wMTJMNDUuOTg5LDUyQTMuMDExLDMuMDExLDAsMCwwLDQ5LDQ4Ljk4OVY0My4wMTFBMy4wMTEsMy4wMTEsMCwwLDAsNDUuOTg5LDQwWiIvPjxjaXJjbGUgY2xhc3M9ImNscy0xIiBjeD0iMzciIGN5PSI0NiIgcj0iMS41Ii8+PGNpcmNsZSBjbGFzcz0iY2xzLTEiIGN4PSI0MS41IiBjeT0iNDYiIHI9IjEuNSIvPjxwYXRoIGNsYXNzPSJjbHMtMiIgZD0iTTQ1Ljg0LDE2Ljk2MmE4LjQ4OSw4LjQ4OSwwLDAsMC0xMi43ODMtNS43MTNBMTEuMDIyLDExLjAyMiwwLDAsMCwyMi40MSw0QzEwLjM0Niw0LDExLjA5LDE2Ljk4OCwxMS4wOSwxNi45ODhBMTAuMjI0LDEwLjIyNCwwLDAsMCwxMywzNi44NzF2LTNhNy4yODQsNy4yODQsMCwwLDEtNi03LjE1NSw3LjQxLDcuNDEsMCwwLDEsNS4wMjctNi44NzdsMi4yNzktLjc2OC0uMjMyLTIuMzg5YTkuMTMyLDkuMTMyLDAsMCwxLDIuMDEtNy4wMTNBNy43NDQsNy43NDQsMCwwLDEsMjIuNDY1LDdhOS4yMDksOS4yMDksMCwwLDEsNy45OTQsNS4zMzlsMS4xNzYsMi44NzEsMi40MjQtMS4zMThBNy42LDcuNiwwLDAsMSwzNy40NDksMTNhNS41NDYsNS41NDYsMCwwLDEsNS40NDMsNC41MThsLjI4OCwxLjUyOCwxLjQxNS42NDZBNy40ODQsNy40ODQsMCwwLDEsNDMsMzMuODQ4djNhMTAuNDU2LDEwLjQ1NiwwLDAsMCwyLjg0LTE5Ljg4N1oiLz48L3N2Zz4=" parent="1" vertex="1">
          <mxGeometry x="155" y="552.5" width="48" height="48" as="geometry" />
        </mxCell>
        <mxCell id="PI1ROOFq2yHGhIw4-mz2-25" value="&lt;font color=&quot;#595959&quot;&gt;Custom Domain&lt;/font&gt;" style="text;html=1;strokeColor=none;fillColor=none;align=center;verticalAlign=middle;whiteSpace=wrap;rounded=0;" parent="1" vertex="1">
          <mxGeometry x="69" y="602.5" width="60" height="30" as="geometry" />
        </mxCell>
        <mxCell id="PI1ROOFq2yHGhIw4-mz2-26" value="&lt;font color=&quot;#595959&quot;&gt;Integration Suite&lt;/font&gt;" style="text;html=1;strokeColor=none;fillColor=none;align=center;verticalAlign=middle;whiteSpace=wrap;rounded=0;" parent="1" vertex="1">
          <mxGeometry x="149" y="602.5" width="60" height="30" as="geometry" />
        </mxCell>
        <mxCell id="PI1ROOFq2yHGhIw4-mz2-27" value="&lt;font color=&quot;#595959&quot;&gt;&lt;b&gt;bat-europe-integration-Development&lt;/b&gt;&lt;/font&gt;" style="text;html=1;strokeColor=none;fillColor=none;align=center;verticalAlign=middle;whiteSpace=wrap;rounded=0;" parent="1" vertex="1">
          <mxGeometry x="35" y="521" width="220" height="30" as="geometry" />
        </mxCell>
        <mxCell id="PI1ROOFq2yHGhIw4-mz2-28" value="" style="shape=image;verticalLabelPosition=bottom;verticalAlign=top;imageAspect=0;aspect=fixed;image=data:image/svg+xml,PHN2ZyB4bWxucz0iaHR0cDovL3d3dy53My5vcmcvMjAwMC9zdmciIGlkPSJjdXN0b20tZG9tYWluIiB2aWV3Qm94PSIzLjk5MzM0NjQ1MjcxMzAxMjcgNi45OTMzNDY2OTExMzE1OTIgNDguMDA2NjUyODMyMDMxMjUgNDIuMDA2NzAyNDIzMDk1NyIgd2lkdGg9IjQ4LjAwNjY1MjgzMjAzMTI1IiBoZWlnaHQ9IjQyLjAwNjcwMjQyMzA5NTciPjxkZWZzPjxzdHlsZT4uY2xzLTF7ZmlsbDojMDUzYjcwO30uY2xzLTJ7ZmlsbDojMGE2ZWQxO308L3N0eWxlPjwvZGVmcz48dGl0bGU+Y3VzdG9tLWRvbWFpbjwvdGl0bGU+PHJlY3QgY2xhc3M9ImNscy0xIiB4PSIzNCIgeT0iNyIgd2lkdGg9IjEyIiBoZWlnaHQ9IjMiIHJ4PSIwLjc1Ii8+PHJlY3QgY2xhc3M9ImNscy0xIiB4PSIxOSIgeT0iNyIgd2lkdGg9IjEyIiBoZWlnaHQ9IjMiIHJ4PSIwLjc1Ii8+PHBhdGggY2xhc3M9ImNscy0xIiBkPSJNNCw0NnYwYTIuODc3LDIuODc3LDAsMCwwLC4yMzYsMS4xNTcsMy4wMjgsMy4wMjgsMCwwLDAsMS42MDYsMS42MDdBMi44NzUsMi44NzUsMCwwLDAsNyw0OUg0OWEzLjAxMywzLjAxMywwLDAsMCwzLTNWMTZhMy4wMTMsMy4wMTMsMCwwLDAtMy0zSDE2VjcuNzVBLjY2NC42NjQsMCwwLDAsMTUuMjUsN0g0Ljc1QS42NjMuNjYzLDAsMCwwLDQsNy43NVpNNDksMTZsMCwwLDAsMzBMNyw0Niw3LDE2WiIvPjxwYXRoIGNsYXNzPSJjbHMtMiIgZD0iTTM5LjIxNCwyNi43M2ExMi43NDUsMTIuNzQ1LDAsMCwwLTIuMTA3LTMuNTczLDExLjkxNCwxMS45MTQsMCwwLDAtMy4yMS0yLjYyOCwxMi4wNTUsMTIuMDU1LDAsMCwwLTMuOTktMS4zOTNsMCwwYy0uMzE3LS4wNDYtLjYyNC0uMDc4LS45MjEtLjFhMTUuNjkxLDE1LjY5MSwwLDAsMC0xLjksMGMtLjI5NC4wMjYtLjYuMDU4LS45MjIuMTA3YTExLjY2MywxMS42NjMsMCwwLDAtNC4wMjQsMS40LDEyLjQ4MiwxMi40ODIsMCwwLDAtMy4yLDIuNjIyLDEyLjE2MSwxMi4xNjEsMCwwLDAtMi4xNDYsMy41NzlBMTEuNjkxLDExLjY5MSwwLDAsMCwxNiwzMWExMS40NzIsMTEuNDcyLDAsMCwwLC45NTcsNC42NDIsMTIuMjIxLDEyLjIyMSwwLDAsMCw2LjQsNi40QTExLjUsMTEuNSwwLDAsMCwyOCw0M2ExMS42MzgsMTEuNjM4LDAsMCwwLDQuNzA3LS45NTcsMTIuMzg5LDEyLjM4OSwwLDAsMCwzLjgxNS0yLjU4NkExMS45MDYsMTEuOTA2LDAsMCwwLDQwLDMxLDExLjcxOSwxMS43MTksMCwwLDAsMzkuMjE0LDI2LjczWm0tMy4zMTQtMUgzMi40NzdhMTMuMjUxLDEzLjI1MSwwLDAsMC0yLjEwNy0zLjg4NEE4Ljk0MSw4Ljk0MSwwLDAsMSwzNS45LDI1LjczWm0tNC4wMTYsNWExMS43NjUsMTEuNzY1LDAsMCwxLS4xMzIsMS43NzhBMTQuNzgyLDE0Ljc4MiwwLDAsMSwzMS40MjMsMzRoLTYuNzhhMTQuMjUyLDE0LjI1MiwwLDAsMS0uMzI5LTEuNDg5LDExLjUxMSwxMS41MTEsMCwwLDEtLjEzMi0xLjc3OEExMi4xODMsMTIuMTgzLDAsMCwxLDI0LjUxMSwyOGg3LjA0NEExMi4zLDEyLjMsMCwwLDEsMzEuODg0LDMwLjczM1pNMjgsMjEuNjQ5YTcuNDExLDcuNDExLDAsMCwxLDEuNjc5LDEuNzExLDExLjE3MiwxMS4xNzIsMCwwLDEsMS4yODMsMi4zN0gyNS4xQTguNzQxLDguNzQxLDAsMCwxLDI4LDIxLjY0OVptLTIuMy4yYTEzLjE4MiwxMy4xODIsMCwwLDAtMi4xMDcsMy44ODRIMjAuMTY2QTguOTMsOC45MywwLDAsMSwyNS43LDIxLjg0NlpNMTkuMTEzLDM0YTguNjM1LDguNjM1LDAsMCwxLS40MjgtMS4zNTgsOC4yODgsOC4yODgsMCwwLDEsMC0zLjI5MUE4LjU4NCw4LjU4NCwwLDAsMSwxOS4xMTMsMjhoMy45NWExMi4xODMsMTIuMTgzLDAsMCwwLS4zMjksMi43MzNBMTIuODI1LDEyLjgyNSwwLDAsMCwyMy4xMjgsMzRaTTIyLjgsMzguODYzYTEwLjIyMywxMC4yMjMsMCwwLDEtMi42MzMtMi42aDMuNTU1YTEyLjM1NiwxMi4zNTYsMCwwLDAsMi41NjcsNC4wMTZBOC42NjMsOC42NjMsMCwwLDEsMjIuOCwzOC44NjNaTTI4LDM5Ljg4NGE3LjQ2NCw3LjQ2NCwwLDAsMS0xLjQ4MS0xLjUxNEExMC43NDUsMTAuNzQ1LDAsMCwxLDI1LjMsMzYuMjYzaDUuNDY0QTguMDgxLDguMDgxLDAsMCwxLDI4LDM5Ljg4NFptNS4yNjYtMS4wMjFhOC42NjMsOC42NjMsMCwwLDEtMy40ODksMS40MTYsMTIuNDQsMTIuNDQsMCwwLDAsMi41NjgtNC4wMTZIMzUuOUExMC4yNDMsMTAuMjQzLDAsMCwxLDMzLjI2NiwzOC44NjNaTTM2Ljk1MywzNEgzMi45MzdhOC4yNjksOC4yNjksMCwwLDAsLjI2NC0xLjQ4OXEuMDY1LS44NTUuMDY1LTEuNzc4QTEyLjU5LDEyLjU5LDAsMCwwLDMzLDI4aDMuOTVhOC44LDguOCwwLDAsMSwwLDZaIi8+PC9zdmc+" parent="1" vertex="1">
          <mxGeometry x="75" y="558.5" width="48" height="42" as="geometry" />
        </mxCell>
        <mxCell id="PI1ROOFq2yHGhIw4-mz2-29" value="" style="rounded=0;whiteSpace=wrap;html=1;strokeColor=#053B70;" parent="1" vertex="1">
          <mxGeometry x="285" y="101" width="225" height="130" as="geometry" />
        </mxCell>
        <mxCell id="PI1ROOFq2yHGhIw4-mz2-30" value="&lt;font color=&quot;#595959&quot;&gt;&lt;b&gt;bat-europe-application-Production&lt;/b&gt;&lt;/font&gt;" style="text;html=1;strokeColor=none;fillColor=none;align=center;verticalAlign=middle;whiteSpace=wrap;rounded=0;" parent="1" vertex="1">
          <mxGeometry x="282" y="101" width="220" height="30" as="geometry" />
        </mxCell>
        <mxCell id="PI1ROOFq2yHGhIw4-mz2-31" value="" style="shape=image;verticalLabelPosition=bottom;verticalAlign=top;imageAspect=0;aspect=fixed;image=https://digitalmarketplace-sapcpprd.s3.eu-central-1.amazonaws.com/a4OooLtN_eA6YFJtJUgx4_CYvcuWIS2_5rRXY_2-QpLqC15nVTGmmAJOYXznoxre.svg" parent="1" vertex="1">
          <mxGeometry x="310" y="128.5" width="56" height="56" as="geometry" />
        </mxCell>
        <mxCell id="PI1ROOFq2yHGhIw4-mz2-32" value="&lt;font color=&quot;#595959&quot;&gt;AWS S3&lt;br&gt;Object Store&lt;br&gt;&lt;/font&gt;" style="text;html=1;strokeColor=none;fillColor=none;align=center;verticalAlign=middle;whiteSpace=wrap;rounded=0;" parent="1" vertex="1">
          <mxGeometry x="294" y="183.5" width="70" height="30" as="geometry" />
        </mxCell>
        <mxCell id="PI1ROOFq2yHGhIw4-mz2-37" value="" style="shape=image;verticalLabelPosition=bottom;verticalAlign=top;imageAspect=0;aspect=fixed;image=https://digitalmarketplace-sapcpprd.s3.eu-central-1.amazonaws.com/a4OooLtN_eA6YFJtJUgx4_CYvcuWIS2_5rRXY_2-QpLqC15nVTGmmAJOYXznoxre.svg" parent="1" vertex="1">
          <mxGeometry x="310" y="268.5" width="56" height="56" as="geometry" />
        </mxCell>
        <mxCell id="PI1ROOFq2yHGhIw4-mz2-38" value="&lt;font color=&quot;#595959&quot;&gt;AWS S3&lt;br&gt;Object Store&lt;br&gt;&lt;/font&gt;" style="text;html=1;strokeColor=none;fillColor=none;align=center;verticalAlign=middle;whiteSpace=wrap;rounded=0;" parent="1" vertex="1">
          <mxGeometry x="294" y="323.5" width="70" height="30" as="geometry" />
        </mxCell>
        <mxCell id="PI1ROOFq2yHGhIw4-mz2-39" value="&lt;font color=&quot;#595959&quot;&gt;&lt;b&gt;bat-europe-application-PreProd&lt;/b&gt;&lt;/font&gt;" style="text;html=1;strokeColor=none;fillColor=none;align=center;verticalAlign=middle;whiteSpace=wrap;rounded=0;" parent="1" vertex="1">
          <mxGeometry x="276" y="241" width="220" height="30" as="geometry" />
        </mxCell>
        <mxCell id="PI1ROOFq2yHGhIw4-mz2-41" value="" style="rounded=0;whiteSpace=wrap;html=1;strokeColor=#053B70;" parent="1" vertex="1">
          <mxGeometry x="285" y="381" width="225" height="130" as="geometry" />
        </mxCell>
        <mxCell id="PI1ROOFq2yHGhIw4-mz2-42" value="&lt;font color=&quot;#595959&quot;&gt;&lt;b&gt;bat-europe-application-Quality&lt;/b&gt;&lt;/font&gt;" style="text;html=1;strokeColor=none;fillColor=none;align=center;verticalAlign=middle;whiteSpace=wrap;rounded=0;" parent="1" vertex="1">
          <mxGeometry x="270" y="381" width="220" height="30" as="geometry" />
        </mxCell>
        <mxCell id="PI1ROOFq2yHGhIw4-mz2-43" value="" style="shape=image;verticalLabelPosition=bottom;verticalAlign=top;imageAspect=0;aspect=fixed;image=https://digitalmarketplace-sapcpprd.s3.eu-central-1.amazonaws.com/a4OooLtN_eA6YFJtJUgx4_CYvcuWIS2_5rRXY_2-QpLqC15nVTGmmAJOYXznoxre.svg" parent="1" vertex="1">
          <mxGeometry x="310" y="408.5" width="56" height="56" as="geometry" />
        </mxCell>
        <mxCell id="PI1ROOFq2yHGhIw4-mz2-44" value="&lt;font color=&quot;#595959&quot;&gt;AWS S3&lt;br&gt;Object Store&lt;br&gt;&lt;/font&gt;" style="text;html=1;strokeColor=none;fillColor=none;align=center;verticalAlign=middle;whiteSpace=wrap;rounded=0;" parent="1" vertex="1">
          <mxGeometry x="294" y="463.5" width="70" height="30" as="geometry" />
        </mxCell>
        <mxCell id="PI1ROOFq2yHGhIw4-mz2-45" value="" style="rounded=0;whiteSpace=wrap;html=1;strokeColor=#053B70;" parent="1" vertex="1">
          <mxGeometry x="285" y="521" width="225" height="130" as="geometry" />
        </mxCell>
        <mxCell id="PI1ROOFq2yHGhIw4-mz2-46" value="&lt;font color=&quot;#595959&quot;&gt;&lt;b&gt;bat-europe-application-Development&lt;/b&gt;&lt;/font&gt;" style="text;html=1;strokeColor=none;fillColor=none;align=center;verticalAlign=middle;whiteSpace=wrap;rounded=0;" parent="1" vertex="1">
          <mxGeometry x="285" y="521" width="220" height="30" as="geometry" />
        </mxCell>
        <mxCell id="PI1ROOFq2yHGhIw4-mz2-47" value="" style="shape=image;verticalLabelPosition=bottom;verticalAlign=top;imageAspect=0;aspect=fixed;image=https://digitalmarketplace-sapcpprd.s3.eu-central-1.amazonaws.com/a4OooLtN_eA6YFJtJUgx4_CYvcuWIS2_5rRXY_2-QpLqC15nVTGmmAJOYXznoxre.svg" parent="1" vertex="1">
          <mxGeometry x="310" y="548.5" width="56" height="56" as="geometry" />
        </mxCell>
        <mxCell id="PI1ROOFq2yHGhIw4-mz2-48" value="&lt;font color=&quot;#595959&quot;&gt;AWS S3&lt;br&gt;Object Store&lt;br&gt;&lt;/font&gt;" style="text;html=1;strokeColor=none;fillColor=none;align=center;verticalAlign=middle;whiteSpace=wrap;rounded=0;" parent="1" vertex="1">
          <mxGeometry x="294" y="603.5" width="70" height="30" as="geometry" />
        </mxCell>
        <mxCell id="PI1ROOFq2yHGhIw4-mz2-49" value="&lt;font color=&quot;#595959&quot;&gt;&lt;b&gt;bat-europe-administrator&lt;/b&gt;&lt;/font&gt;" style="text;html=1;strokeColor=none;fillColor=none;align=left;verticalAlign=middle;whiteSpace=wrap;rounded=0;" parent="1" vertex="1">
          <mxGeometry x="538" y="101" width="220" height="30" as="geometry" />
        </mxCell>
        <mxCell id="PI1ROOFq2yHGhIw4-mz2-51" value="" style="shape=image;verticalLabelPosition=bottom;verticalAlign=top;imageAspect=0;aspect=fixed;image=https://digitalmarketplace-sapcpprd.s3.eu-central-1.amazonaws.com/iV30iGbPJ7i-QjvBEanhdz_l9dPoQZW-JujZ7H6d1_8ycqrfuOHW_Ojj7a2zbFJR.svg" parent="1" vertex="1">
          <mxGeometry x="550" y="132.5" width="56" height="56" as="geometry" />
        </mxCell>
        <mxCell id="PI1ROOFq2yHGhIw4-mz2-52" value="&lt;font color=&quot;#595959&quot;&gt;Cloud Transport Management&lt;br&gt;&lt;/font&gt;" style="text;html=1;strokeColor=none;fillColor=none;align=center;verticalAlign=middle;whiteSpace=wrap;rounded=0;" parent="1" vertex="1">
          <mxGeometry x="539" y="186.5" width="90" height="30" as="geometry" />
        </mxCell>
        <mxCell id="PI1ROOFq2yHGhIw4-mz2-54" value="&lt;font color=&quot;#595959&quot;&gt;&lt;b&gt;bat-europe-integration-Directory&lt;/b&gt;&lt;/font&gt;" style="text;html=1;strokeColor=none;fillColor=none;align=left;verticalAlign=middle;whiteSpace=wrap;rounded=0;" parent="1" vertex="1">
          <mxGeometry x="30" y="61" width="220" height="30" as="geometry" />
        </mxCell>
        <mxCell id="PI1ROOFq2yHGhIw4-mz2-56" value="&lt;font color=&quot;#595959&quot;&gt;&lt;b&gt;bat-europe-ac-Directory&lt;/b&gt;&lt;/font&gt;" style="text;html=1;strokeColor=none;fillColor=none;align=left;verticalAlign=middle;whiteSpace=wrap;rounded=0;" parent="1" vertex="1">
          <mxGeometry x="788" y="61" width="220" height="30" as="geometry" />
        </mxCell>
        <mxCell id="PI1ROOFq2yHGhIw4-mz2-57" value="&lt;font color=&quot;#595959&quot;&gt;&lt;b&gt;bat-europe-ac-nonProd&lt;/b&gt;&lt;/font&gt;" style="text;html=1;strokeColor=none;fillColor=none;align=left;verticalAlign=middle;whiteSpace=wrap;rounded=0;" parent="1" vertex="1">
          <mxGeometry x="797" y="101" width="220" height="30" as="geometry" />
        </mxCell>
        <mxCell id="PI1ROOFq2yHGhIw4-mz2-58" value="&lt;font color=&quot;#595959&quot;&gt;Cloud Foundry Runtime&lt;br&gt;&lt;/font&gt;" style="text;html=1;strokeColor=none;fillColor=none;align=center;verticalAlign=middle;whiteSpace=wrap;rounded=0;" parent="1" vertex="1">
          <mxGeometry x="796" y="181.5" width="90" height="30" as="geometry" />
        </mxCell>
        <mxCell id="PI1ROOFq2yHGhIw4-mz2-61" value="" style="shape=image;verticalLabelPosition=bottom;verticalAlign=top;imageAspect=0;aspect=fixed;image=data:image/svg+xml,PHN2ZyB4bWxucz0iaHR0cDovL3d3dy53My5vcmcvMjAwMC9zdmciIGlkPSJjbG91ZC1mb3VuZHJ5LXJ1bnRpbWUiIHZpZXdCb3g9IjQgOS45OTgyNzE5NDIxMzg2NzIgNDguMDAxNzI0MjQzMTY0MDYgMzYuMDAyNzg0NzI5MDAzOTA2IiB3aWR0aD0iNDguMDAxNzI0MjQzMTY0MDYiIGhlaWdodD0iMzYuMDAyNzg0NzI5MDAzOTA2Ij48ZGVmcz48c3R5bGU+LmNscy0xe2ZpbGw6IzA1M2I3MDt9LmNscy0ye2ZpbGw6IzBhNmVkMTt9PC9zdHlsZT48L2RlZnM+PHRpdGxlPmNsb3VkLWZvdW5kcnktcnVudGltZTwvdGl0bGU+PHBhdGggY2xhc3M9ImNscy0xIiBkPSJNMTMsMjYuNTM5YTEuNSwxLjUsMCwwLDAtMS41LTEuNWgtNmExLjUsMS41LDAsMCwwLDAsM2g2QTEuNSwxLjUsMCwwLDAsMTMsMjYuNTM5WiIvPjxwYXRoIGNsYXNzPSJjbHMtMSIgZD0iTTguNSwxOS4wNGg2YTEuNSwxLjUsMCwwLDAsMC0zaC02YTEuNSwxLjUsMCwwLDAsMCwzWiIvPjxwYXRoIGNsYXNzPSJjbHMtMSIgZD0iTTE0LjUsMzQuMDM5SDExLjQ0OWExLjUsMS41LDAsMSwwLDAsM0gxNC41YTEuNSwxLjUsMCwwLDAsMC0zWiIvPjxwYXRoIGNsYXNzPSJjbHMtMiIgZD0iTTQ5LjkyLDIzLjVjLS4wNTcsMC0uMTE1LDAtLjE3MiwwSDQ3LjhsLS44NDMtMi4wMzYsMS40LTEuNDA3YTIuMzM1LDIuMzM1LDAsMCwwLC42MzMtMS42MTcsMi4wOTQsMi4wOTQsMCwwLDAtLjYzMy0xLjU0OEw0NS4xLDEzLjY1OGEyLjEsMi4xLDAsMCwwLTEuNTQ1LS42MzMsMi4xNzgsMi4xNzgsMCwwLDAtMS42MTcuNjMzTDQwLjUzLDE1LjA2NWwtMi4wNC0uODQ2VjEyLjI1MUEyLjE2NiwyLjE2NiwwLDAsMCwzNi40MTEsMTBxLS4wODYsMC0uMTcxLDBoLTQuNWEyLjE2NiwyLjE2NiwwLDAsMC0yLjI1LDIuMDc5cTAsLjA4NiwwLC4xNzF2MS45NjhsLTIuMDQuODQ2LTEuNC0xLjQwN2EyLjE4OSwyLjE4OSwwLDAsMC0xLjYxNy0uNjMzLDIuMSwyLjEsMCwwLDAtMS41NDguNjMzTDE5LjY1OSwxNi45YTIuMSwyLjEsMCwwLDAtLjYzMywxLjU0OCwyLjM0NCwyLjM0NCwwLDAsMCwuNjMzLDEuNjE3bDEuNDA3LDEuNDA3TDIwLjIyLDIzLjVIMTguMjUzQTIuMTY2LDIuMTY2LDAsMCwwLDE2LDI1LjU3NmExLjY4MywxLjY4MywwLDAsMCwwLC4xNzR2NC41YTIuMjE1LDIuMjE1LDAsMCwwLC42MzMsMS41ODQsMi4xMjgsMi4xMjgsMCwwLDAsMS42MTcuNjY2aDEuOTY3bC44NDYsMi4wNC0xLjQwNywxLjQwN2EyLjMsMi4zLDAsMCwwLDAsMy4xNjVMMjIuOSw0Mi4zNDZhMi4xLDIuMSwwLDAsMCwxLjU0OC42MzMsMi4xODksMi4xODksMCwwLDAsMS42MTctLjYzM2wxLjQtMS40NzYsMi4wNC45djEuOTcxYTIuMjE4LDIuMjE4LDAsMCwwLC42MzMsMS41ODFBMi4xMywyLjEzLDAsMCwwLDMxLjc1Miw0Nmg0LjVhMi4xMzQsMi4xMzQsMCwwLDAsMS42MTctLjY2NiwyLjIyMiwyLjIyMiwwLDAsMCwuNjMzLTEuNTgxVjQxLjc4MmwyLjA0LS45LDEuNDA3LDEuNDc2YTIuMTc4LDIuMTc4LDAsMCwwLDEuNjE3LjYzMywyLjEwNiwyLjEwNiwwLDAsMCwxLjU0NS0uNjMzTDQ4LjM0NCwzOS4xYTIuMywyLjMsMCwwLDAsMC0zLjE2NWwtMS40LTEuNDA3TDQ3LjgsMzIuNWgxLjk2OGEyLjEzMywyLjEzMywwLDAsMCwxLjYxNy0uNjY2QTIuMjE5LDIuMjE5LDAsMCwwLDUyLDMwLjI1di00LjVBMi4xNjYsMi4xNjYsMCwwLDAsNDkuOTIsMjMuNVpNNDksMjkuNUg0NS43bC0yLjMyMSw1LjcyNCwyLjMsMi4zTDQzLjUzOSwzOS42Nyw0MS4xLDM3LjFsLTUuNiwyLjZWNDNoLTNWMzkuN2wtNS41ODYtMi42LTIuNDU0LDIuNTc3LTIuMTQyLTIuMTQ1LDIuMy0yLjNMMjIuNTcyLDI5LjVIMTl2LTNoMy41N2wyLjA0OS01LjcyMy0yLjMtMi4zLDIuMTU0LTIuMTU0LDIuMzEsMi4zMDdMMzIuNSwxNi41NjJWMTNoM3YzLjU1NWw1LjcyNywyLjA2NCwyLjMtMi4zLDIuMTUzLDIuMTU0TDQzLjQsMjAuODM0LDQ1LjcsMjYuNUg0OVoiLz48cGF0aCBjbGFzcz0iY2xzLTIiIGQ9Ik00MC44NzUsMjcuMzEzLDMwLjgxMywyMi4xMjdhMS4xMDcsMS4xMDcsMCwwLDAtLjUtLjEyNi45LjksMCwwLDAtLjY1Ny4yODIuOTc4Ljk3OCwwLDAsMC0uMjgyLjcxN1YzMy4wNjRhLjg3OC44NzgsMCwwLDAsLjI4Mi42ODcuOTcxLjk3MSwwLDAsMCwuNjU3LjI0OSwxLjEwNywxLjEwNywwLDAsMCwuNS0uMTI2TDQwLjg3NSwyOWEuOTYzLjk2MywwLDAsMCwwLTEuNjg2WiIvPjwvc3ZnPg==" parent="1" vertex="1">
          <mxGeometry x="812" y="138.5" width="48" height="36" as="geometry" />
        </mxCell>
        <mxCell id="PI1ROOFq2yHGhIw4-mz2-67" value="" style="shape=image;verticalLabelPosition=bottom;verticalAlign=top;imageAspect=0;aspect=fixed;image=data:image/svg+xml,PHN2ZyB4bWxucz0iaHR0cDovL3d3dy53My5vcmcvMjAwMC9zdmciIGlkPSJjbG91ZC1mb3VuZHJ5LXJ1bnRpbWUiIHZpZXdCb3g9IjQgOS45OTgyNzE5NDIxMzg2NzIgNDguMDAxNzI0MjQzMTY0MDYgMzYuMDAyNzg0NzI5MDAzOTA2IiB3aWR0aD0iNDguMDAxNzI0MjQzMTY0MDYiIGhlaWdodD0iMzYuMDAyNzg0NzI5MDAzOTA2Ij48ZGVmcz48c3R5bGU+LmNscy0xe2ZpbGw6IzA1M2I3MDt9LmNscy0ye2ZpbGw6IzBhNmVkMTt9PC9zdHlsZT48L2RlZnM+PHRpdGxlPmNsb3VkLWZvdW5kcnktcnVudGltZTwvdGl0bGU+PHBhdGggY2xhc3M9ImNscy0xIiBkPSJNMTMsMjYuNTM5YTEuNSwxLjUsMCwwLDAtMS41LTEuNWgtNmExLjUsMS41LDAsMCwwLDAsM2g2QTEuNSwxLjUsMCwwLDAsMTMsMjYuNTM5WiIvPjxwYXRoIGNsYXNzPSJjbHMtMSIgZD0iTTguNSwxOS4wNGg2YTEuNSwxLjUsMCwwLDAsMC0zaC02YTEuNSwxLjUsMCwwLDAsMCwzWiIvPjxwYXRoIGNsYXNzPSJjbHMtMSIgZD0iTTE0LjUsMzQuMDM5SDExLjQ0OWExLjUsMS41LDAsMSwwLDAsM0gxNC41YTEuNSwxLjUsMCwwLDAsMC0zWiIvPjxwYXRoIGNsYXNzPSJjbHMtMiIgZD0iTTQ5LjkyLDIzLjVjLS4wNTcsMC0uMTE1LDAtLjE3MiwwSDQ3LjhsLS44NDMtMi4wMzYsMS40LTEuNDA3YTIuMzM1LDIuMzM1LDAsMCwwLC42MzMtMS42MTcsMi4wOTQsMi4wOTQsMCwwLDAtLjYzMy0xLjU0OEw0NS4xLDEzLjY1OGEyLjEsMi4xLDAsMCwwLTEuNTQ1LS42MzMsMi4xNzgsMi4xNzgsMCwwLDAtMS42MTcuNjMzTDQwLjUzLDE1LjA2NWwtMi4wNC0uODQ2VjEyLjI1MUEyLjE2NiwyLjE2NiwwLDAsMCwzNi40MTEsMTBxLS4wODYsMC0uMTcxLDBoLTQuNWEyLjE2NiwyLjE2NiwwLDAsMC0yLjI1LDIuMDc5cTAsLjA4NiwwLC4xNzF2MS45NjhsLTIuMDQuODQ2LTEuNC0xLjQwN2EyLjE4OSwyLjE4OSwwLDAsMC0xLjYxNy0uNjMzLDIuMSwyLjEsMCwwLDAtMS41NDguNjMzTDE5LjY1OSwxNi45YTIuMSwyLjEsMCwwLDAtLjYzMywxLjU0OCwyLjM0NCwyLjM0NCwwLDAsMCwuNjMzLDEuNjE3bDEuNDA3LDEuNDA3TDIwLjIyLDIzLjVIMTguMjUzQTIuMTY2LDIuMTY2LDAsMCwwLDE2LDI1LjU3NmExLjY4MywxLjY4MywwLDAsMCwwLC4xNzR2NC41YTIuMjE1LDIuMjE1LDAsMCwwLC42MzMsMS41ODQsMi4xMjgsMi4xMjgsMCwwLDAsMS42MTcuNjY2aDEuOTY3bC44NDYsMi4wNC0xLjQwNywxLjQwN2EyLjMsMi4zLDAsMCwwLDAsMy4xNjVMMjIuOSw0Mi4zNDZhMi4xLDIuMSwwLDAsMCwxLjU0OC42MzMsMi4xODksMi4xODksMCwwLDAsMS42MTctLjYzM2wxLjQtMS40NzYsMi4wNC45djEuOTcxYTIuMjE4LDIuMjE4LDAsMCwwLC42MzMsMS41ODFBMi4xMywyLjEzLDAsMCwwLDMxLjc1Miw0Nmg0LjVhMi4xMzQsMi4xMzQsMCwwLDAsMS42MTctLjY2NiwyLjIyMiwyLjIyMiwwLDAsMCwuNjMzLTEuNTgxVjQxLjc4MmwyLjA0LS45LDEuNDA3LDEuNDc2YTIuMTc4LDIuMTc4LDAsMCwwLDEuNjE3LjYzMywyLjEwNiwyLjEwNiwwLDAsMCwxLjU0NS0uNjMzTDQ4LjM0NCwzOS4xYTIuMywyLjMsMCwwLDAsMC0zLjE2NWwtMS40LTEuNDA3TDQ3LjgsMzIuNWgxLjk2OGEyLjEzMywyLjEzMywwLDAsMCwxLjYxNy0uNjY2QTIuMjE5LDIuMjE5LDAsMCwwLDUyLDMwLjI1di00LjVBMi4xNjYsMi4xNjYsMCwwLDAsNDkuOTIsMjMuNVpNNDksMjkuNUg0NS43bC0yLjMyMSw1LjcyNCwyLjMsMi4zTDQzLjUzOSwzOS42Nyw0MS4xLDM3LjFsLTUuNiwyLjZWNDNoLTNWMzkuN2wtNS41ODYtMi42LTIuNDU0LDIuNTc3LTIuMTQyLTIuMTQ1LDIuMy0yLjNMMjIuNTcyLDI5LjVIMTl2LTNoMy41N2wyLjA0OS01LjcyMy0yLjMtMi4zLDIuMTU0LTIuMTU0LDIuMzEsMi4zMDdMMzIuNSwxNi41NjJWMTNoM3YzLjU1NWw1LjcyNywyLjA2NCwyLjMtMi4zLDIuMTUzLDIuMTU0TDQzLjQsMjAuODM0LDQ1LjcsMjYuNUg0OVoiLz48cGF0aCBjbGFzcz0iY2xzLTIiIGQ9Ik00MC44NzUsMjcuMzEzLDMwLjgxMywyMi4xMjdhMS4xMDcsMS4xMDcsMCwwLDAtLjUtLjEyNi45LjksMCwwLDAtLjY1Ny4yODIuOTc4Ljk3OCwwLDAsMC0uMjgyLjcxN1YzMy4wNjRhLjg3OC44NzgsMCwwLDAsLjI4Mi42ODcuOTcxLjk3MSwwLDAsMCwuNjU3LjI0OSwxLjEwNywxLjEwNywwLDAsMCwuNS0uMTI2TDQwLjg3NSwyOWEuOTYzLjk2MywwLDAsMCwwLTEuNjg2WiIvPjwvc3ZnPg==" parent="1" vertex="1">
          <mxGeometry x="812" y="278.5" width="48" height="36" as="geometry" />
        </mxCell>
        <mxCell id="PI1ROOFq2yHGhIw4-mz2-68" value="&lt;font color=&quot;#595959&quot;&gt;Cloud Foundry Runtime&lt;br&gt;&lt;/font&gt;" style="text;html=1;strokeColor=none;fillColor=none;align=center;verticalAlign=middle;whiteSpace=wrap;rounded=0;" parent="1" vertex="1">
          <mxGeometry x="796" y="321.5" width="90" height="30" as="geometry" />
        </mxCell>
        <mxCell id="PI1ROOFq2yHGhIw4-mz2-69" value="&lt;font color=&quot;#595959&quot;&gt;&lt;b&gt;bat-europe-ac-Prod&lt;/b&gt;&lt;/font&gt;" style="text;html=1;strokeColor=none;fillColor=none;align=left;verticalAlign=middle;whiteSpace=wrap;rounded=0;" parent="1" vertex="1">
          <mxGeometry x="797" y="241" width="220" height="30" as="geometry" />
        </mxCell>
        <mxCell id="PI1ROOFq2yHGhIw4-mz2-72" value="" style="shape=image;verticalLabelPosition=bottom;verticalAlign=top;imageAspect=0;aspect=fixed;image=https://digitalmarketplace-sapcpprd.s3.eu-central-1.amazonaws.com/NVfLmtVtGxqxBDSBmH0D9gfLOI5RuxwI4papKaOPERLf3Fh2VJcVTuw68018oASV.png" parent="1" vertex="1">
          <mxGeometry x="71" y="641" width="56" height="56" as="geometry" />
        </mxCell>
        <mxCell id="PI1ROOFq2yHGhIw4-mz2-73" value="&lt;font color=&quot;#595959&quot;&gt;SAP Business Application Studio&lt;/font&gt;" style="text;html=1;strokeColor=none;fillColor=none;align=center;verticalAlign=middle;whiteSpace=wrap;rounded=0;" parent="1" vertex="1">
          <mxGeometry x="58" y="697" width="81" height="30" as="geometry" />
        </mxCell>
        <mxCell id="PI1ROOFq2yHGhIw4-mz2-74" value="" style="shape=image;verticalLabelPosition=bottom;verticalAlign=top;imageAspect=0;aspect=fixed;image=data:image/svg+xml,PHN2ZyBpZD0ibWVzc2FnaW5nLXNlcnZpY2UiIHhtbG5zPSJodHRwOi8vd3d3LnczLm9yZy8yMDAwL3N2ZyIgdmlld0JveD0iMCAwIDU2IDU2Ij48ZGVmcz48c3R5bGU+LmNscy0xe2ZpbGw6IzA1M2I3MDt9LmNscy0ye2ZpbGw6IzBhNmVkMTt9PC9zdHlsZT48L2RlZnM+PHRpdGxlPm1lc3NhZ2luZy1zZXJ2aWNlPC90aXRsZT48cGF0aCBjbGFzcz0iY2xzLTEiIGQ9Ik0xOSwzOS4zMTJIMTQuMjg1QTcuMjU3LDcuMjU3LDAsMCwxLDEyLjAyNywyNS4xNWwyLjI3OS0uNzY3LS4yMzItMi4zOWMwLS4wNDItLjM3OS00LjIzNiwyLjAxLTcuMDEyLDEuMzc3LTEuNiwzLjUyNC0yLjUsNi4zODEtMi42NjdhOC41NjMsOC41NjMsMCwwLDEsNy44LDUuMzU1bDEuMzA2LDMuMjg5LDMuMDMxLTEuODI3YTUuNDUxLDUuNDUxLDAsMCwxLDIuODQzLS44MTksNS41NDYsNS41NDYsMCwwLDEsNS40NDMsNC41MThsLjI4OCwxLjUyOUw0NC42LDI1YzIuMiwxLDIuOCwzLjAxLDMuMjg1LDUuMzA4SDUxLjFjLS41MTctMy41OS0yLjA2OS02LjU4Mi01LjI2LTguMDM3YTguNDg3LDguNDg3LDAsMCwwLTEyLjc4My01LjcxM0ExMS41NTgsMTEuNTU4LDAsMCwwLDIyLjQxLDkuMzEyQzkuNzUzLDkuOTgzLDExLjA5LDIyLjMsMTEuMDksMjIuM2ExMC4yNTcsMTAuMjU3LDAsMCwwLDMuMiwyMC4wMTJIMTkiLz48cG9seWxpbmUgY2xhc3M9ImNscy0xIiBwb2ludHM9IjQ2Ljc1NiA0Mi4zNjkgNDMuNjU3IDQ1LjQ2OCA0NS41NjQgNDcuMzc1IDUyIDQwLjkzOSA0NS41NjQgMzQuNTAzIDQzLjY1NyAzNi40MSA0Ni42MzYgMzkuMzEzIDM3LjAzOCAzOS4zMTMgMzcuMDIyIDQyLjMyNiIvPjxwb2x5Z29uIGNsYXNzPSJjbHMtMiIgcG9pbnRzPSIxOS4wMDEgNDIuMzEgMjIuMDAxIDQyLjMxIDIyLjAwMSAzMS43IDI3Ljk4IDM2LjMxIDM0LjAwMSAzMS43IDM0LjAwMSA0Mi4zMSAzNy4wMjIgNDIuMzI2IDM3LjEwMyAyNy4zMSAzNC4wMDEgMjcuMzEgMjcuOTMyIDMxLjkwMyAyMi4wMDEgMjcuMzEgMTkuMDAxIDI3LjMxIDE5LjAwMSA0Mi4zMSIvPjwvc3ZnPg==" parent="1" vertex="1">
          <mxGeometry x="155" y="641" width="56" height="56" as="geometry" />
        </mxCell>
        <mxCell id="PI1ROOFq2yHGhIw4-mz2-75" value="&lt;font color=&quot;#595959&quot;&gt;Event Mesh&lt;/font&gt;" style="text;html=1;strokeColor=none;fillColor=none;align=center;verticalAlign=middle;whiteSpace=wrap;rounded=0;" parent="1" vertex="1">
          <mxGeometry x="142.5" y="684" width="81" height="30" as="geometry" />
        </mxCell>
        <mxCell id="PI1ROOFq2yHGhIw4-mz2-79" value="&lt;font&gt;&lt;b&gt;SAP Business Technology Platform (British American Shared Services (GSD) Limited&amp;nbsp;&lt;/b&gt;&lt;/font&gt;" style="text;html=1;strokeColor=none;fillColor=none;align=left;verticalAlign=middle;whiteSpace=wrap;rounded=0;fontColor=#000000;" parent="1" vertex="1">
          <mxGeometry x="21" y="15" width="509" height="30" as="geometry" />
        </mxCell>
      </root>
    </mxGraphModel>
  </diagram>
  <diagram id="oO6nKJFyjFeZPCFrhtrq" name="SAP IS">
    <mxGraphModel dx="2074" dy="768" grid="1" gridSize="10" guides="1" tooltips="1" connect="1" arrows="1" fold="1" page="1" pageScale="1" pageWidth="1100" pageHeight="850" math="0" shadow="0">
      <root>
        <mxCell id="0" />
        <mxCell id="1" parent="0" />
        <mxCell id="D5JY0tN1QXDJP00HskaQ-1" value="" style="rounded=0;whiteSpace=wrap;html=1;strokeColor=#0A6ED1;" parent="1" vertex="1">
          <mxGeometry x="350" y="70" width="550" height="500" as="geometry" />
        </mxCell>
        <mxCell id="TAF6xF3Y96Slfa7j8X2z-1" value="&lt;font&gt;&lt;b&gt;SAP Business Technology Platform (British American Shared Services (GSD) Limited&amp;nbsp;&lt;/b&gt;&lt;/font&gt;" style="text;html=1;strokeColor=none;fillColor=none;align=left;verticalAlign=middle;whiteSpace=wrap;rounded=0;fontColor=#000000;" parent="1" vertex="1">
          <mxGeometry x="360" y="80" width="509" height="30" as="geometry" />
        </mxCell>
        <mxCell id="YRbVz_beELrNGXbm-P8X-1" value="" style="rounded=0;whiteSpace=wrap;html=1;strokeColor=#074D92;" parent="1" vertex="1">
          <mxGeometry x="370" y="130" width="510" height="420" as="geometry" />
        </mxCell>
        <mxCell id="1YQQrjNPyKSkuV92F-UL-1" value="&lt;b style=&quot;&quot;&gt;&lt;font color=&quot;#074d92&quot;&gt;Cloud Found Environment&lt;/font&gt;&lt;/b&gt;" style="text;html=1;strokeColor=none;fillColor=none;align=left;verticalAlign=middle;whiteSpace=wrap;rounded=0;" parent="1" vertex="1">
          <mxGeometry x="387" y="130" width="220" height="30" as="geometry" />
        </mxCell>
        <mxCell id="1YQQrjNPyKSkuV92F-UL-2" value="" style="shape=image;verticalLabelPosition=bottom;verticalAlign=top;imageAspect=0;aspect=fixed;image=data:image/svg+xml,PHN2ZyB4bWxucz0iaHR0cDovL3d3dy53My5vcmcvMjAwMC9zdmciIGlkPSJhcGktbWFuYWdlbWVudCIgdmlld0JveD0iNC4wMDAwMDE5MDczNDg2MzMgMy45OTk5OTkwNDYzMjU2ODM2IDQ4IDQ3Ljk5OTk5NjE4NTMwMjczNCIgd2lkdGg9IjQ4IiBoZWlnaHQ9IjQ3Ljk5OTk5NjE4NTMwMjczNCI+PGRlZnM+PHN0eWxlPi5jbHMtMXtmaWxsOiMwNzRkOTI7fS5jbHMtMntmaWxsOiMwNTNiNzA7fS5jbHMtM3tmaWxsOiMwYTZlZDE7fTwvc3R5bGU+PC9kZWZzPjx0aXRsZT5hcGktbWFuYWdlbWVudF9jaXJjbGU8L3RpdGxlPjxwYXRoIGNsYXNzPSJjbHMtMSIgZD0iTTI4LDZBMjIsMjIsMCwxLDEsNiwyOCwyMi4wMjUsMjIuMDI1LDAsMCwxLDI4LDZtMC0yQTI0LDI0LDAsMSwwLDUyLDI4LDI0LDI0LDAsMCwwLDI4LDRaIi8+PHBhdGggY2xhc3M9ImNscy0yIiBkPSJNMjguMjI1LDI5Ljk3OGE4LjM1Miw4LjM1MiwwLDAsMS0xLjUyLS44ODlsLTMuMzg5LDQuNDgyYTQuNDYzLDQuNDYzLDAsMCwwLTEuNjk0LS4zMjhBNC4zNzQsNC4zNzQsMCwxLDAsMjYsMzcuNjE2YTQuMTIsNC4xMiwwLDAsMC0xLjI1Ny0zLjA2MVptLTYuNiwxMC4yNjNhMi42MjUsMi42MjUsMCwxLDEsMi42MjQtMi42MjVBMi41OTEsMi41OTEsMCwwLDEsMjEuNjIyLDQwLjI0MVoiLz48cGF0aCBjbGFzcz0iY2xzLTIiIGQ9Ik0yMC43NDcsMjcuMjNjMC0uMTY0LDAtLjMyOC0uMDU1LS4zODNsMy41LS43MTEtLjAyLS4wNTFjLS4yMzItLjQ2NS0uNC0xLjE5Mi0uNTg0LTEuNjYybC0uMDUyLjAxOS0zLjMzNS43MUE0LjMxNyw0LjMxNywwLDAsMCwxNi4zNzMsMjIuOCw0LjQsNC40LDAsMCwwLDEyLDI3LjIzYTQuMzc0LDQuMzc0LDAsMCwwLDguNzQ3LDBaTTE2LjM3MywyOS44YTIuNTQ1LDIuNTQ1LDAsMCwxLTIuNjI0LTIuNTY5LDIuNjI1LDIuNjI1LDAsMSwxLDUuMjQ5LDBBMi41NDYsMi41NDYsMCwwLDEsMTYuMzczLDI5LjhaIi8+PHBhdGggY2xhc3M9ImNscy0yIiBkPSJNMzUuODksMzMuMjQzaC0uNTQ3TDM0LjUxOCwzMC4yYTguMjgxLDguMjgxLDAsMCwxLTEuNy40MjZsLjgyOSwzLjExM2E0LjM2LDQuMzYsMCwwLDAsMS42OTQsOC4yNTUsNC4zODIsNC4zODIsMCwwLDAsLjU0Ny04Ljc0N1ptMi4zNTEsNC41MzhhMi42NjYsMi42NjYsMCwwLDEtMi43ODksMi40NiwyLjYzLDIuNjMsMCwxLDEsMi43ODktMi40NloiLz48cGF0aCBjbGFzcz0iY2xzLTMiIGQ9Ik0yOC4yMzYsMjkuOTYzYTguMjc3LDguMjc3LDAsMCwwLDMuMzkuNzY1LDguMTMxLDguMTMxLDAsMCwwLDEuMi0uMTA5aDBhOC4zNTQsOC4zNTQsMCwxLDAtOS41NjgtOC4yNTYsOS40NDUsOS40NDUsMCwwLDAsLjI3NCwyLjA3OGwuMDYzLjI1OWE3LjU0LDcuNTQsMCwwLDAsLjU3MywxLjM4NGwuMDIuMDUxYTguMjM0LDguMjM0LDAsMCwwLDIuNTE1LDIuOTUyaDBBOC4zNzUsOC4zNzUsMCwwLDAsMjguMjM2LDI5Ljk2M1ptMS43NS0zLjk5MUgzMy4zMmE2LjgxMiw2LjgxMiwwLDAsMS0xLjY5NCwyLjU3QTYuNSw2LjUsMCwwLDEsMjkuOTg2LDI1Ljk3MlptLS40MzgtMS42OTRhNy4zNDcsNy4zNDcsMCwwLDEtLjIxOC0xLjkxNCw4LjQ0Nyw4LjQ0NywwLDAsMSwuMTY0LTEuN2g0LjMxOWMuMDU0LjYuMTA5LDEuMDk0LjEwOSwxLjdhMTAuNDM5LDEwLjQzOSwwLDAsMS0uMTY0LDEuOTE0Wm0zLjIyNiw0LjY0NmE4LjYxNiw4LjYxNiwwLDAsMCwxLjY0LTIuOTUyaDIuODQyQTYuOTMyLDYuOTMyLDAsMCwxLDMyLjc3NCwyOC45MjRabTUuMy04LjI1NWE1LjMxNyw1LjMxNywwLDAsMSwuMjE4LDEuNyw4LjA4Miw4LjA4MiwwLDAsMS0uMjczLDEuOTE0SDM0LjhhMTAuMzUyLDEwLjM1MiwwLDAsMCwuMTY0LTEuOTE0YzAtLjYtLjA1NC0xLjA5My0uMTA5LTEuN1ptLS43MTEtMS42MzloLTIuOUE3LjM0MSw3LjM0MSwwLDAsMCwzMi43MTksMTUuOCw2LjgxNiw2LjgxNiwwLDAsMSwzNy4zNjYsMTkuMDNabS0zLjk5MSwwSDI5LjkzMWE3LjI2Miw3LjI2MiwwLDAsMSwxLjctMi45QTYuNjY0LDYuNjY0LDAsMCwxLDMzLjM3NSwxOS4wM1pNMzAuNTMyLDE1LjhhOS40LDkuNCwwLDAsMC0xLjc0OSwzLjIyNmgtMi45QTYuOTMzLDYuOTMzLDAsMCwxLDMwLjUzMiwxNS44Wm0tNS4yNDgsOC40NzRhNS40MjgsNS40MjgsMCwwLDEtLjMyOC0xLjkxNCw2LjAyMSw2LjAyMSwwLDAsMSwuMjE5LTEuN2gzLjI4YTguNTIsOC41MiwwLDAsMC0uMTY0LDEuNywxMC40MzksMTAuNDM5LDAsMCwwLC4xNjQsMS45MTRabS43NjYsMS42OTRoMi43ODhhOS42LDkuNiwwLDAsMCwxLjY0LDIuOTUyQTYuODE2LDYuODE2LDAsMCwxLDI2LjA1LDI1Ljk3MloiLz48L3N2Zz4=" parent="1" vertex="1">
          <mxGeometry x="437" y="250" width="48" height="48" as="geometry" />
        </mxCell>
        <mxCell id="1YQQrjNPyKSkuV92F-UL-4" value="" style="shape=image;verticalLabelPosition=bottom;verticalAlign=top;imageAspect=0;aspect=fixed;image=data:image/svg+xml,PHN2ZyB4bWxucz0iaHR0cDovL3d3dy53My5vcmcvMjAwMC9zdmciIGlkPSJjdXN0b20tZG9tYWluIiB2aWV3Qm94PSI0LjAwMDAwMTkwNzM0ODYzMyAzLjk5OTk5OTA0NjMyNTY4MzYgNDggNDcuOTk5OTk2MTg1MzAyNzM0IiB3aWR0aD0iNDgiIGhlaWdodD0iNDcuOTk5OTk2MTg1MzAyNzM0Ij48ZGVmcz48c3R5bGU+LmNscy0xe2ZpbGw6IzA3NGQ5Mjt9LmNscy0ye2ZpbGw6IzA1M2I3MDt9LmNscy0ze2ZpbGw6IzBhNmVkMTt9PC9zdHlsZT48L2RlZnM+PHRpdGxlPmN1c3RvbS1kb21haW48L3RpdGxlPjxwYXRoIGNsYXNzPSJjbHMtMSIgZD0iTTI4LDZBMjIsMjIsMCwxLDEsNiwyOCwyMi4wMjUsMjIuMDI1LDAsMCwxLDI4LDZtMC0yQTI0LDI0LDAsMSwwLDUyLDI4LDI0LDI0LDAsMCwwLDI4LDRaIi8+PHJlY3QgY2xhc3M9ImNscy0yIiB4PSIzMS4yNSIgeT0iMTYuNjI1IiB3aWR0aD0iNi41IiBoZWlnaHQ9IjEuNjI1IiByeD0iMC40MDYiLz48cmVjdCBjbGFzcz0iY2xzLTIiIHg9IjIzLjEyNSIgeT0iMTYuNjI1IiB3aWR0aD0iNi41IiBoZWlnaHQ9IjEuNjI1IiByeD0iMC40MDYiLz48cGF0aCBjbGFzcz0iY2xzLTIiIGQ9Ik0xNSwzNy43NDh2MGExLjU1OSwxLjU1OSwwLDAsMCwuMTI4LjYyNywxLjYzOSwxLjYzOSwwLDAsMCwuODcuODcsMS41NTUsMS41NTUsMCwwLDAsLjYyNy4xMjhIMzkuMzczQTEuNjMyLDEuNjMyLDAsMCwwLDQxLDM3Ljc0OFYyMS41YTEuNjMyLDEuNjMyLDAsMCwwLTEuNjI3LTEuNjI3SDIxLjVWMTcuMDMxYS4zNTkuMzU5LDAsMCwwLS40MDYtLjQwNkgxNS40MDZhLjM1OS4zNTksMCwwLDAtLjQwNi40MDZaTTM5LjM3MywyMS41bDAsMCwwLDE2LjI0OC0yMi43NDgsMCwwLTE2LjI0OFoiLz48cGF0aCBjbGFzcz0iY2xzLTMiIGQ9Ik0zNC4wNzUsMjcuMzEyYTYuOTI0LDYuOTI0LDAsMCwwLTEuMTQyLTEuOTM1LDYuNDQ3LDYuNDQ3LDAsMCwwLTEuNzM5LTEuNDI0LDYuNTE3LDYuNTE3LDAsMCwwLTIuMTYxLS43NTRsMCwwYy0uMTcxLS4wMjUtLjMzOC0uMDQyLS41LS4wNTZhOC40MzUsOC40MzUsMCwwLDAtMS4wMzEsMGMtLjE1OS4wMTQtLjMyNi4wMzEtLjUuMDU4YTYuMyw2LjMsMCwwLDAtMi4xOC43NTYsNi43NzQsNi43NzQsMCwwLDAtMS43MzQsMS40Miw2LjYxNiw2LjYxNiwwLDAsMC0xLjE2MywxLjkzOSw2LjM1Miw2LjM1MiwwLDAsMC0uNDI1LDIuMzA5LDYuMjE1LDYuMjE1LDAsMCwwLC41MTgsMi41MTVBNi42MjYsNi42MjYsMCwwLDAsMjUuNDg1LDM1LjYsNi4yNDEsNi4yNDEsMCwwLDAsMjgsMzYuMTIzYTYuMzA4LDYuMzA4LDAsMCwwLDIuNTUtLjUxOCw2LjY5Miw2LjY5MiwwLDAsMCwyLjA2Ni0xLjRBNi40NSw2LjQ1LDAsMCwwLDM0LjUsMjkuNjIzLDYuMzcsNi4zNywwLDAsMCwzNC4wNzUsMjcuMzEyWm0tMS44LS41NDFIMzAuNDI1YTcuMTg4LDcuMTg4LDAsMCwwLTEuMTQxLTIuMUE0Ljg0MSw0Ljg0MSwwLDAsMSwzMi4yNzksMjYuNzcxWk0zMC4xLDI5LjQ4MWE2LjUwNyw2LjUwNywwLDAsMS0uMDcxLjk2Miw3LjksNy45LDAsMCwxLS4xNzkuODA3SDI2LjE4MUE3LjksNy45LDAsMCwxLDI2LDMwLjQ0M2E2LjI0Nyw2LjI0NywwLDAsMS0uMDcxLS45NjJBNi42MDUsNi42MDUsMCwwLDEsMjYuMTEsMjhoMy44MTZBNi42NjQsNi42NjQsMCwwLDEsMzAuMSwyOS40ODFaTTI4LDI0LjU2YTQuMDExLDQuMDExLDAsMCwxLC45MDkuOTI3LDYuMDUzLDYuMDUzLDAsMCwxLC43LDEuMjg0SDI2LjQzMUE0LjczMSw0LjczMSwwLDAsMSwyOCwyNC41NlptLTEuMjQ4LjEwN2E3LjExOSw3LjExOSwwLDAsMC0xLjE0MSwyLjFIMjMuNzU3QTQuODMzLDQuODMzLDAsMCwxLDI2Ljc1MiwyNC42NjdaTTIzLjE4NiwzMS4yNWE0LjY2Niw0LjY2NiwwLDAsMS0uMjMyLS43MzUsNC41MSw0LjUxLDAsMCwxLDAtMS43ODNBNC42NjMsNC42NjMsMCwwLDEsMjMuMTg2LDI4aDIuMTRhNi41NTEsNi41NTEsMCwwLDAtLjE3OSwxLjQ4MSw2Ljk2Nyw2Ljk2NywwLDAsMCwuMjE0LDEuNzY5Wm0yLDIuNjM0YTUuNTIxLDUuNTIxLDAsMCwxLTEuNDI2LTEuNDA4aDEuOTI1YTYuNyw2LjcsMCwwLDAsMS4zOTEsMi4xNzVBNC42ODYsNC42ODYsMCwwLDEsMjUuMTgzLDMzLjg4NFpNMjgsMzQuNDM3YTQuMDQsNC4wNCwwLDAsMS0uOC0uODIsNS43ODQsNS43ODQsMCwwLDEtLjY2LTEuMTQxSDI5LjVBNC4zNzgsNC4zNzgsMCwwLDEsMjgsMzQuNDM3Wm0yLjg1My0uNTUzYTQuNyw0LjcsMCwwLDEtMS44OS43NjcsNi43Myw2LjczLDAsMCwwLDEuMzktMi4xNzVoMS45MjZBNS41NTIsNS41NTIsMCwwLDEsMzAuODUzLDMzLjg4NFptMi0yLjYzNEgzMC42NzRhNC40Myw0LjQzLDAsMCwwLC4xNDMtLjgwN2MuMDIzLS4zMDguMDM2LS42MjkuMDM2LS45NjJBNi44MSw2LjgxLDAsMCwwLDMwLjcxLDI4aDIuMTRhNC43NzUsNC43NzUsMCwwLDEsMCwzLjI1WiIvPjwvc3ZnPg==" parent="1" vertex="1">
          <mxGeometry x="437" y="350" width="48" height="48" as="geometry" />
        </mxCell>
        <mxCell id="1YQQrjNPyKSkuV92F-UL-5" value="" style="shape=image;verticalLabelPosition=bottom;verticalAlign=top;imageAspect=0;aspect=fixed;image=data:image/svg+xml,PHN2ZyB4bWxucz0iaHR0cDovL3d3dy53My5vcmcvMjAwMC9zdmciIGlkPSJoY2lwcm9jZXNzZXMiIHZpZXdCb3g9IjQuMDAwMDAxOTA3MzQ4NjMzIDMuOTk5OTk5MDQ2MzI1NjgzNiA0OCA0Ny45OTk5OTYxODUzMDI3MzQiIHdpZHRoPSI0OCIgaGVpZ2h0PSI0Ny45OTk5OTYxODUzMDI3MzQiPjxkZWZzPjxzdHlsZT4uY2xzLTF7ZmlsbDojMGE2ZWQxO30uY2xzLTJ7ZmlsbDojMDUzYjcwO30uY2xzLTN7ZmlsbDojMDc0ZDkyO308L3N0eWxlPjwvZGVmcz48dGl0bGU+aGNpcHJvY2Vzc2VzX2NpcmNsZTwvdGl0bGU+PHBhdGggY2xhc3M9ImNscy0xIiBkPSJNMzkuMzc0LDMwLjQzOEgzNy43NTFhMS42MjYsMS42MjYsMCwwLDAtMS42MjUsMS42MkwzNC41LDMxLjQyNnYtLjk4N2ExLjU4NCwxLjU4NCwwLDAsMC0uMy0uODkzTDM2LDI3LjE2M2MuMDQyLDAsLjA3OS4wMjUuMTIzLjAyNWgxLjYyM2ExLjYyNywxLjYyNywwLDAsMCwxLjYyNi0xLjYyN1YyMy45MzlhMS42MjYsMS42MjYsMCwwLDAtMS42MjYtMS42MjdIMzYuMTI2QTEuNjI2LDEuNjI2LDAsMCwwLDM0LjUsMjMuOTM5djEuNjIyYTEuNiwxLjYsMCwwLDAsLjcwNywxLjMwNkwzMy41OTMsMjlhMS41OSwxLjU5LDAsMCwwLS43MTktLjE4NkgzMS4yNTFhMS41OSwxLjU5LDAsMCwwLS44MDcuMjQ1TDI5LjM4LDI3Ljk5M2ExLjU3OCwxLjU3OCwwLDAsMCwuMjQ1LS44MDdWMjUuNTY0QTEuNjI1LDEuNjI1LDAsMCwwLDI4LDIzLjkzOEgyNi4zNzZhMS42MjUsMS42MjUsMCwwLDAtMS42MjYsMS42MjZ2MS42MjJhMS42MjYsMS42MjYsMCwwLDAsMS42MjYsMS42MjZIMjhhMS41ODksMS41ODksMCwwLDAsLjgwNy0uMjQ0bDEuMDY0LDEuMDY0YTEuNTc4LDEuNTc4LDAsMCwwLS4yNDUuODA3djEuNTQ0bC0xLjg2NC45MDhhMS42LDEuNiwwLDAsMC0xLjM4Ny0uODI5SDI0Ljc1MWExLjYyNiwxLjYyNiwwLDAsMC0xLjYyNiwxLjYyN3YxLjYyMmExLjYyNywxLjYyNywwLDAsMCwxLjYyNiwxLjYyN2gxLjYyM0ExLjYyNywxLjYyNywwLDAsMCwyOCwzNS4zMTFWMzMuNjg5bDAtLjAxLDEuODIxLS44ODdhMS42MSwxLjYxLDAsMCwwLDEuNDMyLjloLjk3MmwuNjM5LDEuNjI3YTEuNjI1LDEuNjI1LDAsMCwwLTEuNjEyLDEuNjI0djEuNjIyYTEuNjI3LDEuNjI3LDAsMCwwLDEuNjI2LDEuNjI3SDM0LjVhMS42MjcsMS42MjcsMCwwLDAsMS42MjYtMS42MjdWMzYuOTM5QTEuNjI2LDEuNjI2LDAsMCwwLDM0LjUsMzUuMzEyaC0uNzY1bC0uNjUzLTEuNjYzYTEuNiwxLjYsMCwwLDAsMS4zNzUtMS4zNjhsMS42NjkuNjQ4di43NTdhMS42MjYsMS42MjYsMCwwLDAsMS42MjYsMS42MjZoMS42MjNBMS42MjYsMS42MjYsMCwwLDAsNDEsMzMuNjg2VjMyLjA2NEExLjYyNSwxLjYyNSwwLDAsMCwzOS4zNzQsMzAuNDM4Wm0tMy4yNDgtNi41SDM3Ljc1djEuNjIzSDM2LjEyNVpNMjgsMjcuMTg4bC0xLjYyNCwwVjI1LjU2MkgyOHYxLjYyNlptLTEuNjI1LDguMTI0SDI0Ljc1VjMzLjY4OGgxLjYyNFptNC44NzYtMy4yNTFWMzAuNDM4aDEuNjI0djEuNjIzWk0zNC41LDM2LjkzOGgwdjEuNjIzSDMyLjg3NVYzNi45MzhabTQuODc1LTMuMjUtMS42MjQsMFYzMi4wNjJoMS42MjN2MS42MjZaIi8+PHBhdGggY2xhc3M9ImNscy0yIiBkPSJNMjMuMTI1LDI4LjgwNUgxOS41NTZhMi45MTgsMi45MTgsMCwwLDEtLjkwOC01LjdMMTkuOSwyMi43bC0uMTQyLTEuMzA4YTQuMzkyLDQuMzkyLDAsMCwxLC44MTEtMi44NjIsMy41MjIsMy41MjIsMCwwLDEsMi42MTctMS4wOSwzLjI4MiwzLjI4MiwwLDAsMSwzLjE3NywyLjE4NWwuNzA3LDEuNzgyLDEuNjQyLS45OWEyLjEyMywyLjEyMywwLDAsMSwxLjEwNi0uMzIsMi4xNTksMi4xNTksMCwwLDEsMi4xMiwxLjc2bC4wODYuNDU3aDEuNjI1Yy0uMDI2LS4yMzctLjA1OS0uNDktLjExNC0uNzU4YTMuNzU5LDMuNzU5LDAsMCwwLTUuNjYyLTIuNTMsNS4xMiw1LjEyLDAsMCwwLTQuNzE2LTMuMjEyYy01LjMzNCwwLTUuMDE0LDUuNzUzLTUuMDE0LDUuNzUzYTQuNTQzLDQuNTQzLDAsMCwwLDEuNDE1LDguODY1aDMuNTY5WiIvPjxwYXRoIGNsYXNzPSJjbHMtMyIgZD0iTTI4LDZBMjIsMjIsMCwxLDEsNiwyOCwyMi4wMjUsMjIuMDI1LDAsMCwxLDI4LDZtMC0yQTI0LDI0LDAsMSwwLDUyLDI4LDI0LDI0LDAsMCwwLDI4LDRaIi8+PC9zdmc+" parent="1" vertex="1">
          <mxGeometry x="559" y="350" width="48" height="48" as="geometry" />
        </mxCell>
        <mxCell id="Nz16--s0WaQV9DwJB4hn-1" value="&lt;font color=&quot;#074d92&quot;&gt;Custom Domain&lt;/font&gt;" style="text;html=1;strokeColor=none;fillColor=none;align=center;verticalAlign=middle;whiteSpace=wrap;rounded=0;" parent="1" vertex="1">
          <mxGeometry x="431" y="400" width="60" height="30" as="geometry" />
        </mxCell>
        <mxCell id="Nz16--s0WaQV9DwJB4hn-2" value="&lt;font color=&quot;#074d92&quot;&gt;Cloud Integration&lt;/font&gt;" style="text;html=1;strokeColor=none;fillColor=none;align=center;verticalAlign=middle;whiteSpace=wrap;rounded=0;" parent="1" vertex="1">
          <mxGeometry x="551" y="400" width="60" height="30" as="geometry" />
        </mxCell>
        <mxCell id="Nz16--s0WaQV9DwJB4hn-3" value="" style="endArrow=classic;html=1;rounded=0;exitX=1;exitY=0.5;exitDx=0;exitDy=0;fontColor=#595959;strokeColor=#595959;" parent="1" source="1YQQrjNPyKSkuV92F-UL-4" target="1YQQrjNPyKSkuV92F-UL-5" edge="1">
          <mxGeometry width="50" height="50" relative="1" as="geometry">
            <mxPoint x="837" y="450" as="sourcePoint" />
            <mxPoint x="557" y="380" as="targetPoint" />
          </mxGeometry>
        </mxCell>
        <mxCell id="Nz16--s0WaQV9DwJB4hn-4" value="&lt;font color=&quot;#074d92&quot;&gt;API Management&lt;/font&gt;" style="text;html=1;strokeColor=none;fillColor=none;align=center;verticalAlign=middle;whiteSpace=wrap;rounded=0;" parent="1" vertex="1">
          <mxGeometry x="430" y="300" width="60" height="30" as="geometry" />
        </mxCell>
        <mxCell id="Nz16--s0WaQV9DwJB4hn-5" value="" style="shape=image;verticalLabelPosition=bottom;verticalAlign=top;imageAspect=0;aspect=fixed;image=data:image/svg+xml,PHN2ZyB4bWxucz0iaHR0cDovL3d3dy53My5vcmcvMjAwMC9zdmciIGlkPSJ1c2FnZS1kYXRhLW1hbmFnZW1lbnQiIHZpZXdCb3g9IjQuMDAwMDAxOTA3MzQ4NjMzIDMuOTk5OTk5MDQ2MzI1NjgzNiA0OCA0Ny45OTk5OTYxODUzMDI3MzQiIHdpZHRoPSI0OCIgaGVpZ2h0PSI0Ny45OTk5OTYxODUzMDI3MzQiPjxkZWZzPjxzdHlsZT4uY2xzLTF7ZmlsbDojMDc0ZDkyO30uY2xzLTJ7ZmlsbDojMDUzYjcwO30uY2xzLTN7ZmlsbDojMGE2ZWQxO308L3N0eWxlPjwvZGVmcz48cGF0aCBjbGFzcz0iY2xzLTEiIGQ9Ik0yOCw2QTIyLDIyLDAsMSwxLDYsMjgsMjIuMDI1LDIyLjAyNSwwLDAsMSwyOCw2bTAtMkEyNCwyNCwwLDEsMCw1MiwyOCwyNCwyNCwwLDAsMCwyOCw0WiIvPjxwYXRoIGNsYXNzPSJjbHMtMiIgZD0iTTMxLjk3OCwyNS41MDh2MmE3LjczOCw3LjczOCwwLDAsMC00LDMuNDM4VjI1LjUwOGEuNS41LDAsMCwxLC41LS41aDNBLjUuNSwwLDAsMSwzMS45NzgsMjUuNTA4WiIvPjxwYXRoIGNsYXNzPSJjbHMtMiIgZD0iTTM3Ljk3NSwxNi41MTNWMjcuNzIyYTcuNjgzLDcuNjgzLDAsMCwwLTMuMjQ5LS43MTUsNy4zODUsNy4zODUsMCwwLDAtLjc0OS4wMzVWMTYuNTEzYS41LjUsMCwwLDEsLjUtLjVoM0EuNS41LDAsMCwxLDM3Ljk3NSwxNi41MTNaIi8+PHJlY3QgY2xhc3M9ImNscy0yIiB4PSIxNS45ODciIHk9IjI5LjUwNiIgd2lkdGg9IjMuOTk4IiBoZWlnaHQ9IjYuOTk2IiByeD0iMSIvPjxyZWN0IGNsYXNzPSJjbHMtMiIgeD0iMjEuOTgzIiB5PSIyMi4wMSIgd2lkdGg9IjMuOTk4IiBoZWlnaHQ9IjE0LjQ5MiIgcng9IjEiLz48cGF0aCBjbGFzcz0iY2xzLTIiIGQ9Ik0yOS4wMzUsNDBIMTUuOTg3VjM4LjVIMjcuOTQ1QTcuNzE5LDcuNzE5LDAsMCwwLDI5LjAzNSw0MFoiLz48cGF0aCBjbGFzcz0iY2xzLTMiIGQ9Ik0zOS45ODcsMzUuNVYzNEgzOC40MTFhMy43MjksMy43MjksMCwwLDAtLjU1LTEuMzIybDEuMTE2LTEuMTE2TDM3LjkxNSwzMC41LDM2LjgsMzEuNjE5YTMuNzMsMy43MywwLDAsMC0xLjMyMi0uNTUxVjI5LjQ5M2gtMS41djEuNTc1YTMuNzM1LDMuNzM1LDAsMCwwLTEuMzIzLjU1MUwzMS41MzgsMzAuNWwtMS4wNjIsMS4wNjEsMS4xMTYsMS4xMTZBMy43MjksMy43MjksMCwwLDAsMzEuMDQyLDM0SDI5LjQ2NnYxLjVoMS41NzZhMy43MjYsMy43MjYsMCwwLDAsLjU1LDEuMzIzbC0xLjExNiwxLjExNkwzMS41MzgsMzlsMS4xMTUtMS4xMTZhMy43MzUsMy43MzUsMCwwLDAsMS4zMjMuNTUxdjEuNTc1aDEuNVYzOC40MzhhMy43MywzLjczLDAsMCwwLDEuMzIyLS41NTFMMzcuOTE1LDM5bDEuMDYyLTEuMDYxLTEuMTE2LTEuMTE2YTMuNzI2LDMuNzI2LDAsMCwwLC41NS0xLjMyM1ptLTUuMjYxLDEuNTExYTIuMjYxLDIuMjYxLDAsMSwxLDIuMjYyLTIuMjYxQTIuMjYxLDIuMjYxLDAsMCwxLDM0LjcyNiwzNy4wMTRaIi8+PC9zdmc+" parent="1" vertex="1">
          <mxGeometry x="800" y="210" width="48" height="48" as="geometry" />
        </mxCell>
        <mxCell id="Nz16--s0WaQV9DwJB4hn-6" value="" style="rounded=0;whiteSpace=wrap;html=1;dashed=1;strokeColor=#595959;" parent="1" vertex="1">
          <mxGeometry x="950" y="180" width="100" height="360" as="geometry" />
        </mxCell>
        <mxCell id="Nz16--s0WaQV9DwJB4hn-7" value="&lt;b style=&quot;&quot;&gt;&lt;font&gt;Application Client&lt;/font&gt;&lt;/b&gt;" style="text;html=1;strokeColor=none;fillColor=none;align=center;verticalAlign=middle;whiteSpace=wrap;rounded=0;fontColor=#595959;" parent="1" vertex="1">
          <mxGeometry x="960" y="190" width="80" height="30" as="geometry" />
        </mxCell>
        <mxCell id="Nz16--s0WaQV9DwJB4hn-10" value="" style="group" parent="1" vertex="1" connectable="0">
          <mxGeometry x="960" y="240" width="80" height="74" as="geometry" />
        </mxCell>
        <mxCell id="Nz16--s0WaQV9DwJB4hn-8" value="" style="shape=image;verticalLabelPosition=bottom;verticalAlign=top;imageAspect=0;aspect=fixed;image=data:image/svg+xml,PHN2ZyB4bWxucz0iaHR0cDovL3d3dy53My5vcmcvMjAwMC9zdmciIHZpZXdCb3g9Ii0wLjAwMTE1OTgxOTQyNTA4MzY5NjggLTAuMDAwMjE0OTc5MTY4OTU4OTYxOTYgMzAuMDAyMzE5MzM1OTM3NSA0OC4wMDA1NzYwMTkyODcxMSIgd2lkdGg9IjMwLjAwMjMxOTMzNTkzNzUiIGhlaWdodD0iNDguMDAwNTc2MDE5Mjg3MTEiPjxkZWZzPjxzdHlsZT4uY2xzLTF7ZmlsbDojNTk1OTU5O308L3N0eWxlPjwvZGVmcz48dGl0bGU+aXBob25lPC90aXRsZT48ZyBpZD0iTGF5ZXJfMiIgZGF0YS1uYW1lPSJMYXllciAyIj48ZyBpZD0iaXBob25lIj48cGF0aCBjbGFzcz0iY2xzLTEiIGQ9Ik0yNCwwYTUuNzcxLDUuNzcxLDAsMCwxLDQuMjE5LDEuNzgxQTUuNzY5LDUuNzY5LDAsMCwxLDMwLDZWNDJhNS43MjUsNS43MjUsMCwwLDEtMS43ODEsNC4yNjZBNS44NDQsNS44NDQsMCwwLDEsMjQsNDhINmE1Ljg0Miw1Ljg0MiwwLDAsMS00LjIxOS0xLjczNEE1LjcyNSw1LjcyNSwwLDAsMSwwLDQyVjZBNS43NjksNS43NjksMCwwLDEsMS43ODEsMS43ODEsNS43Nyw1Ljc3LDAsMCwxLDYsMFptMyw2SDNWMzlIMjdaTTE1LDQ1YTIuMjU3LDIuMjU3LDAsMCwwLDEuNTk0LS42MDksMi4xMzcsMi4xMzcsMCwwLDAsLjY1Ni0xLjY0MSwyLjI1LDIuMjUsMCwxLDAtNC41LDAsMi4xMzMsMi4xMzMsMCwwLDAsLjY1NiwxLjY0MUEyLjI1MywyLjI1MywwLDAsMCwxNSw0NVoiLz48L2c+PC9nPjwvc3ZnPg==" parent="Nz16--s0WaQV9DwJB4hn-10" vertex="1">
          <mxGeometry x="25" width="30" height="48" as="geometry" />
        </mxCell>
        <mxCell id="Nz16--s0WaQV9DwJB4hn-9" value="&lt;b style=&quot;&quot;&gt;&lt;font&gt;IOS&lt;/font&gt;&lt;/b&gt;" style="text;html=1;strokeColor=none;fillColor=none;align=center;verticalAlign=middle;whiteSpace=wrap;rounded=0;fontColor=#595959;" parent="Nz16--s0WaQV9DwJB4hn-10" vertex="1">
          <mxGeometry y="44" width="80" height="30" as="geometry" />
        </mxCell>
        <mxCell id="Nz16--s0WaQV9DwJB4hn-11" value="" style="group" parent="1" vertex="1" connectable="0">
          <mxGeometry x="960" y="310" width="80" height="74" as="geometry" />
        </mxCell>
        <mxCell id="Nz16--s0WaQV9DwJB4hn-12" value="" style="shape=image;verticalLabelPosition=bottom;verticalAlign=top;imageAspect=0;aspect=fixed;image=data:image/svg+xml,PHN2ZyB4bWxucz0iaHR0cDovL3d3dy53My5vcmcvMjAwMC9zdmciIHZpZXdCb3g9Ii0wLjAwMTE1OTgxOTQyNTA4MzY5NjggLTAuMDAwMjE0OTc5MTY4OTU4OTYxOTYgMzAuMDAyMzE5MzM1OTM3NSA0OC4wMDA1NzYwMTkyODcxMSIgd2lkdGg9IjMwLjAwMjMxOTMzNTkzNzUiIGhlaWdodD0iNDguMDAwNTc2MDE5Mjg3MTEiPjxkZWZzPjxzdHlsZT4uY2xzLTF7ZmlsbDojNTk1OTU5O308L3N0eWxlPjwvZGVmcz48dGl0bGU+aXBob25lPC90aXRsZT48ZyBpZD0iTGF5ZXJfMiIgZGF0YS1uYW1lPSJMYXllciAyIj48ZyBpZD0iaXBob25lIj48cGF0aCBjbGFzcz0iY2xzLTEiIGQ9Ik0yNCwwYTUuNzcxLDUuNzcxLDAsMCwxLDQuMjE5LDEuNzgxQTUuNzY5LDUuNzY5LDAsMCwxLDMwLDZWNDJhNS43MjUsNS43MjUsMCwwLDEtMS43ODEsNC4yNjZBNS44NDQsNS44NDQsMCwwLDEsMjQsNDhINmE1Ljg0Miw1Ljg0MiwwLDAsMS00LjIxOS0xLjczNEE1LjcyNSw1LjcyNSwwLDAsMSwwLDQyVjZBNS43NjksNS43NjksMCwwLDEsMS43ODEsMS43ODEsNS43Nyw1Ljc3LDAsMCwxLDYsMFptMyw2SDNWMzlIMjdaTTE1LDQ1YTIuMjU3LDIuMjU3LDAsMCwwLDEuNTk0LS42MDksMi4xMzcsMi4xMzcsMCwwLDAsLjY1Ni0xLjY0MSwyLjI1LDIuMjUsMCwxLDAtNC41LDAsMi4xMzMsMi4xMzMsMCwwLDAsLjY1NiwxLjY0MUEyLjI1MywyLjI1MywwLDAsMCwxNSw0NVoiLz48L2c+PC9nPjwvc3ZnPg==" parent="Nz16--s0WaQV9DwJB4hn-11" vertex="1">
          <mxGeometry x="25" width="30" height="48" as="geometry" />
        </mxCell>
        <mxCell id="Nz16--s0WaQV9DwJB4hn-13" value="&lt;b style=&quot;&quot;&gt;&lt;font&gt;Android&lt;/font&gt;&lt;/b&gt;" style="text;html=1;strokeColor=none;fillColor=none;align=center;verticalAlign=middle;whiteSpace=wrap;rounded=0;fontColor=#595959;" parent="Nz16--s0WaQV9DwJB4hn-11" vertex="1">
          <mxGeometry y="44" width="80" height="30" as="geometry" />
        </mxCell>
        <mxCell id="Nz16--s0WaQV9DwJB4hn-14" value="" style="group" parent="1" vertex="1" connectable="0">
          <mxGeometry x="960" y="381" width="80" height="74" as="geometry" />
        </mxCell>
        <mxCell id="Nz16--s0WaQV9DwJB4hn-15" value="" style="shape=image;verticalLabelPosition=bottom;verticalAlign=top;imageAspect=0;aspect=fixed;image=data:image/svg+xml,PHN2ZyB4bWxucz0iaHR0cDovL3d3dy53My5vcmcvMjAwMC9zdmciIHZpZXdCb3g9Ii0wLjAwMTE1OTgxOTQyNTA4MzY5NjggLTAuMDAwMjE0OTc5MTY4OTU4OTYxOTYgMzAuMDAyMzE5MzM1OTM3NSA0OC4wMDA1NzYwMTkyODcxMSIgd2lkdGg9IjMwLjAwMjMxOTMzNTkzNzUiIGhlaWdodD0iNDguMDAwNTc2MDE5Mjg3MTEiPjxkZWZzPjxzdHlsZT4uY2xzLTF7ZmlsbDojNTk1OTU5O308L3N0eWxlPjwvZGVmcz48dGl0bGU+aXBob25lPC90aXRsZT48ZyBpZD0iTGF5ZXJfMiIgZGF0YS1uYW1lPSJMYXllciAyIj48ZyBpZD0iaXBob25lIj48cGF0aCBjbGFzcz0iY2xzLTEiIGQ9Ik0yNCwwYTUuNzcxLDUuNzcxLDAsMCwxLDQuMjE5LDEuNzgxQTUuNzY5LDUuNzY5LDAsMCwxLDMwLDZWNDJhNS43MjUsNS43MjUsMCwwLDEtMS43ODEsNC4yNjZBNS44NDQsNS44NDQsMCwwLDEsMjQsNDhINmE1Ljg0Miw1Ljg0MiwwLDAsMS00LjIxOS0xLjczNEE1LjcyNSw1LjcyNSwwLDAsMSwwLDQyVjZBNS43NjksNS43NjksMCwwLDEsMS43ODEsMS43ODEsNS43Nyw1Ljc3LDAsMCwxLDYsMFptMyw2SDNWMzlIMjdaTTE1LDQ1YTIuMjU3LDIuMjU3LDAsMCwwLDEuNTk0LS42MDksMi4xMzcsMi4xMzcsMCwwLDAsLjY1Ni0xLjY0MSwyLjI1LDIuMjUsMCwxLDAtNC41LDAsMi4xMzMsMi4xMzMsMCwwLDAsLjY1NiwxLjY0MUEyLjI1MywyLjI1MywwLDAsMCwxNSw0NVoiLz48L2c+PC9nPjwvc3ZnPg==" parent="Nz16--s0WaQV9DwJB4hn-14" vertex="1">
          <mxGeometry x="25" width="30" height="48" as="geometry" />
        </mxCell>
        <mxCell id="Nz16--s0WaQV9DwJB4hn-16" value="&lt;b style=&quot;&quot;&gt;&lt;font&gt;Windows&lt;/font&gt;&lt;/b&gt;" style="text;html=1;strokeColor=none;fillColor=none;align=center;verticalAlign=middle;whiteSpace=wrap;rounded=0;fontColor=#595959;" parent="Nz16--s0WaQV9DwJB4hn-14" vertex="1">
          <mxGeometry y="44" width="80" height="30" as="geometry" />
        </mxCell>
        <mxCell id="Nz16--s0WaQV9DwJB4hn-17" value="" style="shape=image;verticalLabelPosition=bottom;verticalAlign=top;imageAspect=0;aspect=fixed;image=data:image/svg+xml,PHN2ZyB4bWxucz0iaHR0cDovL3d3dy53My5vcmcvMjAwMC9zdmciIHZpZXdCb3g9Ii0wLjAwMDExNzkzOTg5Njg4MTU4MDM1IC0wLjAwMjIyMjEyMjYyNDUxNjQ4NyA0OC4wMDAxMTgyNTU2MTUyMzQgNDIuMDAyMzM4NDA5NDIzODMiIHdpZHRoPSI0OC4wMDAxMTgyNTU2MTUyMzQiIGhlaWdodD0iNDIuMDAyMzM4NDA5NDIzODMiPjxkZWZzPjxzdHlsZT4uY2xzLTF7ZmlsbDojNTk1OTU5O308L3N0eWxlPjwvZGVmcz48dGl0bGU+bGFwdG9wPC90aXRsZT48ZyBpZD0iTGF5ZXJfMiIgZGF0YS1uYW1lPSJMYXllciAyIj48ZyBpZD0ibGFwdG9wIj48cGF0aCBjbGFzcz0iY2xzLTEiIGQ9Ik00OCwzOC41MzFBMy41MjEsMy41MjEsMCwwLDEsNDQuNTMyLDQySDMuNDY5YTMuMzMyLDMuMzMyLDAsMCwxLTIuNDM4LTEuMDMxQTMuMzMyLDMuMzMyLDAsMCwxLDAsMzguNTMxTDYuODQ0LDMwSDQxLjE1N1pNOSwyN2EyLjgzMywyLjgzMywwLDAsMS0yLjE1Ni0uODkxQTIuOTYxLDIuOTYxLDAsMCwxLDYsMjRWM0EyLjg4OSwyLjg4OSwwLDAsMSw5LDBIMzlhMi45NjYsMi45NjYsMCwwLDEsMi4xMS44NDRBMi44MzcsMi44MzcsMCwwLDEsNDIsM1YyNGEzLjA0MSwzLjA0MSwwLDAsMS0zLDNabTAtM0gzOVYzSDlaTTMwLDM5bC0zLTNIMjFsLTMsM1oiLz48L2c+PC9nPjwvc3ZnPg==" parent="1" vertex="1">
          <mxGeometry x="976" y="460" width="48" height="42" as="geometry" />
        </mxCell>
        <mxCell id="Nz16--s0WaQV9DwJB4hn-18" value="&lt;b style=&quot;&quot;&gt;&lt;font&gt;Desktop&lt;/font&gt;&lt;/b&gt;" style="text;html=1;strokeColor=none;fillColor=none;align=center;verticalAlign=middle;whiteSpace=wrap;rounded=0;fontColor=#595959;" parent="1" vertex="1">
          <mxGeometry x="960" y="498" width="80" height="30" as="geometry" />
        </mxCell>
        <mxCell id="Nz16--s0WaQV9DwJB4hn-19" value="" style="shape=image;verticalLabelPosition=bottom;verticalAlign=top;imageAspect=0;aspect=fixed;image=data:image/svg+xml,PHN2ZyB4bWxucz0iaHR0cDovL3d3dy53My5vcmcvMjAwMC9zdmciIHZpZXdCb3g9Ii0wLjAwMDA5MzI4NjUyMjMxNDg4Mzc3IDAuMDAwMDEyNjg4MzM4NzU2NTYxMjggMzYuMDAwMTc1NDc2MDc0MjIgNDcuOTk5OTg4NTU1OTA4MiIgd2lkdGg9IjM2LjAwMDE3NTQ3NjA3NDIyIiBoZWlnaHQ9IjQ3Ljk5OTk4ODU1NTkwODIiPjxkZWZzPjxzdHlsZT4uY2xzLTF7ZmlsbDojNTk1OTU5O308L3N0eWxlPjwvZGVmcz48dGl0bGU+cGVyc29uLXBsYWNlaG9sZGVyPC90aXRsZT48ZyBpZD0iTGF5ZXJfMiIgZGF0YS1uYW1lPSJMYXllciAyIj48ZyBpZD0icGVyc29uLXBsYWNlaG9sZGVyIj48cGF0aCBjbGFzcz0iY2xzLTEiIGQ9Ik0yNCwyNGExMS43MzMsMTEuNzMzLDAsMCwxLDQuNjQxLjkzOCwxMS45NywxMS45NywwLDAsMSw2LjQyMSw2LjQyMUExMS43MzcsMTEuNzM3LDAsMCwxLDM2LDM2VjQ4SDBWMzZhMTEuNzE5LDExLjcxOSwwLDAsMSwuOTM4LTQuNjQxLDEyLjA0NiwxMi4wNDYsMCwwLDEsMi41NzgtMy44NDMsMTIuMTc4LDEyLjE3OCwwLDAsMSwzLjgtMi41NzhBMTEuNjMxLDExLjYzMSwwLDAsMSwxMiwyNEgyNFptOSwxMmE4Ljk2Myw4Ljk2MywwLDAsMC05LTlIMTJhOC42ODIsOC42ODIsMCwwLDAtNi4zNzUsMi42MjVBOC42ODEsOC42ODEsMCwwLDAsMywzNnY5SDMzWk0zMCwxMmExMS42MzEsMTEuNjMxLDAsMCwxLS45MzgsNC42ODgsMTIuMTc4LDEyLjE3OCwwLDAsMS0yLjU3OCwzLjgsMTIuMDE5LDEyLjAxOSwwLDAsMS0zLjg0MywyLjU3OCwxMi4wNjcsMTIuMDY3LDAsMCwxLTkuMzI5LDAsMTIuMjI0LDEyLjIyNCwwLDAsMS02LjM3NC02LjM3NEExMS42MTQsMTEuNjE0LDAsMCwxLDYsMTJhMTEuNzE5LDExLjcxOSwwLDAsMSwuOTM4LTQuNjQxQTEyLjA0NiwxMi4wNDYsMCwwLDEsOS41MTYsMy41MTZhMTIuMTc4LDEyLjE3OCwwLDAsMSwzLjgtMi41NzgsMTIuMDY3LDEyLjA2NywwLDAsMSw5LjMyOSwwLDExLjk3LDExLjk3LDAsMCwxLDYuNDIxLDYuNDIxQTExLjczNywxMS43MzcsMCwwLDEsMzAsMTJaTTE4LDIxYTguNjgxLDguNjgxLDAsMCwwLDYuMzc1LTIuNjI1QTguNjgyLDguNjgyLDAsMCwwLDI3LDEyYTguNjg1LDguNjg1LDAsMCwwLTIuNjI1LTYuMzc1QTguNjg1LDguNjg1LDAsMCwwLDE4LDNhOC42ODIsOC42ODIsMCwwLDAtNi4zNzUsMi42MjVBOC42ODEsOC42ODEsMCwwLDAsOSwxMmE4LjY3OCw4LjY3OCwwLDAsMCwyLjYyNSw2LjM3NUE4LjY3OCw4LjY3OCwwLDAsMCwxOCwyMVoiLz48L2c+PC9nPjwvc3ZnPg==" parent="1" vertex="1">
          <mxGeometry x="982" y="104" width="36" height="48" as="geometry" />
        </mxCell>
        <mxCell id="Nz16--s0WaQV9DwJB4hn-20" value="&lt;b style=&quot;&quot;&gt;&lt;font&gt;End User&lt;/font&gt;&lt;/b&gt;" style="text;html=1;strokeColor=none;fillColor=none;align=center;verticalAlign=middle;whiteSpace=wrap;rounded=0;fontColor=#595959;" parent="1" vertex="1">
          <mxGeometry x="960" y="80" width="80" height="30" as="geometry" />
        </mxCell>
        <mxCell id="Nz16--s0WaQV9DwJB4hn-23" value="" style="endArrow=classic;html=1;rounded=0;entryX=0.5;entryY=0;entryDx=0;entryDy=0;strokeColor=#595959;" parent="1" target="Nz16--s0WaQV9DwJB4hn-6" edge="1">
          <mxGeometry width="50" height="50" relative="1" as="geometry">
            <mxPoint x="1000" y="150" as="sourcePoint" />
            <mxPoint x="1150" y="110" as="targetPoint" />
            <Array as="points" />
          </mxGeometry>
        </mxCell>
        <mxCell id="Nz16--s0WaQV9DwJB4hn-24" value="" style="endArrow=classic;html=1;rounded=0;entryX=1;entryY=0.5;entryDx=0;entryDy=0;strokeColor=#595959;" parent="1" target="Nz16--s0WaQV9DwJB4hn-5" edge="1">
          <mxGeometry width="50" height="50" relative="1" as="geometry">
            <mxPoint x="950" y="234" as="sourcePoint" />
            <mxPoint x="1140" y="240" as="targetPoint" />
          </mxGeometry>
        </mxCell>
        <mxCell id="Nz16--s0WaQV9DwJB4hn-25" value="&lt;font color=&quot;#074d92&quot;&gt;Usage Data Management&lt;/font&gt;" style="text;html=1;strokeColor=none;fillColor=none;align=center;verticalAlign=middle;whiteSpace=wrap;rounded=0;" parent="1" vertex="1">
          <mxGeometry x="792" y="258" width="64" height="30" as="geometry" />
        </mxCell>
        <mxCell id="Nz16--s0WaQV9DwJB4hn-26" value="" style="shape=image;verticalLabelPosition=bottom;verticalAlign=top;imageAspect=0;aspect=fixed;image=data:image/svg+xml,PHN2ZyB4bWxucz0iaHR0cDovL3d3dy53My5vcmcvMjAwMC9zdmciIGlkPSJvcGVuY29ubmVjdG9ycyIgdmlld0JveD0iNC4wMDAwMDE5MDczNDg2MzMgMy45OTk5OTkwNDYzMjU2ODM2IDQ4IDQ3Ljk5OTk5NjE4NTMwMjczNCIgd2lkdGg9IjQ4IiBoZWlnaHQ9IjQ3Ljk5OTk5NjE4NTMwMjczNCI+PGRlZnM+PHN0eWxlPi5jbHMtMXtmaWxsOiMwNTNiNzA7fS5jbHMtMntmaWxsOiMwYTZlZDE7fS5jbHMtM3tmaWxsOiMwNzRkOTI7fTwvc3R5bGU+PC9kZWZzPjx0aXRsZT5vcGVuY29ubmVjdG9yc19jaXJjbGU8L3RpdGxlPjxwYXRoIGNsYXNzPSJjbHMtMSIgZD0iTTMyLjU0NCwyMy43NUE0LjI4Myw0LjI4MywwLDAsMCwzMi40ODksMjNhMy43NzgsMy43NzgsMCwwLDAtMy43MDgtMy4wODUsMy43MzUsMy43MzUsMCwwLDAtMS45NDEuNTUzLDUuMTA2LDUuMTA2LDAsMCwwLTQuNy0zLjIxMmMtNC44ODUsMC01LDUuNzU1LTUsNS43NTVBNC41NDEsNC41NDEsMCwwLDAsMTQsMjcuMzE3YzAsMi41MTcsMS41OTMsNC41NTgsNC4xLDQuNTU4aDcuMjcxVjMwLjI1SDE4LjFjLTEuNzE1LDAtMi40ODMtMS40NzMtMi40ODMtMi45MzNhMi45MTYsMi45MTYsMCwwLDEsMi4wMTktMi43NjdsMS4yMjctLjQxNy0uMTIxLTEuMjkxYTQuMzY3LDQuMzY3LDAsMCwxLC44MjEtMi44OSwyLjk3NywyLjk3NywwLDAsMSwyLjYwOS0xLjA3NiwzLjIxLDMuMjEsMCwwLDEsMy4xNTksMi4xODdsLjcwNSwxLjc4MiwxLjYzNy0uOTlhMi4xMTEsMi4xMTEsMCwwLDEsMS4xMDUtLjMyQTIuMTU1LDIuMTU1LDAsMCwxLDMwLjksMjMuM2wuMDM4LjQ1NFoiLz48cGF0aCBjbGFzcz0iY2xzLTIiIGQ9Ik0yMi4xMjQsMzMuNUgxNy4yNXY0Ljg3NWg0Ljg3NFYzNi43NTFoMy4yNTJWMzUuMTI2SDIyLjEyNFpNMjAuNSwzNS4xMjZ2MS42MjNIMTguODc1VjM1LjEyNEgyMC41WiIvPjxwYXRoIGNsYXNzPSJjbHMtMiIgZD0iTTM1LjEyMiwyMy43NWgxLjYyNFYyMC41aDEuNjI3VjE1LjYyNkgzMy41VjIwLjVoMS42MjRabTAtNi41aDEuNjI1djEuNjI1SDM1LjEyM1oiLz48cGF0aCBjbGFzcz0iY2xzLTIiIGQ9Ik0zOS41NzUsMjkuNTYzYTYuOTI0LDYuOTI0LDAsMCwwLTEuMTQyLTEuOTM1QTYuNDQ3LDYuNDQ3LDAsMCwwLDM2LjY5NCwyNi4yYTYuNTE5LDYuNTE5LDAsMCwwLTIuMTYtLjc1NGwwLDBjLS4xNzItLjAyNS0uMzM4LS4wNDItLjUtLjA1NmE4LjQ1MSw4LjQ1MSwwLDAsMC0xLjAzMiwwYy0uMTU5LjAxNC0uMzI1LjAzMS0uNS4wNThhNi4yOTMsNi4yOTMsMCwwLDAtMi4xOC43NTYsNi43NzQsNi43NzQsMCwwLDAtMS43MzQsMS40Miw2LjYsNi42LDAsMCwwLTEuMTYyLDEuOTM4QTYuMzQxLDYuMzQxLDAsMCwwLDI3LDMxLjg3NGE2LjIxNCw2LjIxNCwwLDAsMCwuNTE4LDIuNTE0LDYuNjI2LDYuNjI2LDAsMCwwLDMuNDY3LDMuNDY3LDYuNDQ3LDYuNDQ3LDAsMCwwLDUuMDY0LDAsNi42OTIsNi42OTIsMCwwLDAsMi4wNjYtMS40QTYuNDUsNi40NSwwLDAsMCw0MCwzMS44NzQsNi4zNyw2LjM3LDAsMCwwLDM5LjU3NSwyOS41NjNabS0xLjgtLjU0MkgzNS45MjVhNy4xMzYsNy4xMzYsMCwwLDAtMS4xNDEtMi4xQTQuODQzLDQuODQzLDAsMCwxLDM3Ljc3OSwyOS4wMjFaTTM1LjYsMzEuNzMxYTYuNCw2LjQsMCwwLDEtLjA3MS45NjMsOC4yMjEsOC4yMjEsMCwwLDEtLjE3OC44MDZIMzEuNjgyYTcuOTQxLDcuOTQxLDAsMCwxLS4xNzgtLjgwNiw2LjI3LDYuMjcsMCwwLDEtLjA3MS0uOTYzLDYuNiw2LjYsMCwwLDEsLjE3OC0xLjQ4aDMuODE1QTYuNjYyLDYuNjYyLDAsMCwxLDM1LjYsMzEuNzMxWm0tMi4xLTQuOTJhNC4wMTEsNC4wMTEsMCwwLDEsLjkwOS45MjcsNi4wNjcsNi4wNjcsMCwwLDEsLjcsMS4yODNIMzEuOTMyQTQuNzMyLDQuNzMyLDAsMCwxLDMzLjUsMjYuODExWm0tMS4yNDguMTA3YTcuMTEzLDcuMTEzLDAsMCwwLTEuMTQxLDIuMUgyOS4yNThBNC44MzUsNC44MzUsMCwwLDEsMzIuMjUzLDI2LjkxOFpNMjguNjg3LDMzLjVhNC42NjYsNC42NjYsMCwwLDEtLjIzMi0uNzM1LDQuNTEsNC41MSwwLDAsMSwwLTEuNzgzLDQuNjE4LDQuNjE4LDAsMCwxLC4yMzItLjczMWgyLjEzOWE2LjYsNi42LDAsMCwwLS4xNzgsMS40OCw2LjkxNyw2LjkxNywwLDAsMCwuMjE0LDEuNzY5Wm0yLDIuNjM1YTUuNTI0LDUuNTI0LDAsMCwxLTEuNDI2LTEuNDA5aDEuOTI1YTYuNyw2LjcsMCwwLDAsMS4zOSwyLjE3NUE0LjY5NCw0LjY5NCwwLDAsMSwzMC42ODQsMzYuMTM1Wm0yLjgxNy41NTJhNC4wNDMsNC4wNDMsMCwwLDEtLjgtLjgyLDUuOCw1LjgsMCwwLDEtLjY1OS0xLjE0MUgzNUE0LjM3Niw0LjM3NiwwLDAsMSwzMy41LDM2LjY4N1ptMi44NTItLjU1MmE0LjcsNC43LDAsMCwxLTEuODkuNzY2LDYuNzMyLDYuNzMyLDAsMCwwLDEuMzkxLTIuMTc1aDEuOTI1QTUuNTcyLDUuNTcyLDAsMCwxLDM2LjM1MywzNi4xMzVabTItMi42MzVIMzYuMTc1YTQuNDM0LDQuNDM0LDAsMCwwLC4xNDItLjgwNnEuMDM2LS40NjQuMDM2LS45NjNhNi43OTQsNi43OTQsMCwwLDAtLjE0My0xLjQ4aDIuMTRhNC43NzIsNC43NzIsMCwwLDEsMCwzLjI0OVoiLz48cGF0aCBjbGFzcz0iY2xzLTMiIGQ9Ik0yOCw2QTIyLDIyLDAsMSwxLDYsMjgsMjIuMDI1LDIyLjAyNSwwLDAsMSwyOCw2bTAtMkEyNCwyNCwwLDEsMCw1MiwyOCwyNCwyNCwwLDAsMCwyOCw0WiIvPjwvc3ZnPg==" parent="1" vertex="1">
          <mxGeometry x="557" y="460" width="48" height="48" as="geometry" />
        </mxCell>
        <mxCell id="Nz16--s0WaQV9DwJB4hn-27" value="&lt;font color=&quot;#074d92&quot;&gt;Open Connector&lt;/font&gt;" style="text;html=1;strokeColor=none;fillColor=none;align=center;verticalAlign=middle;whiteSpace=wrap;rounded=0;" parent="1" vertex="1">
          <mxGeometry x="551" y="510" width="60" height="30" as="geometry" />
        </mxCell>
        <mxCell id="Nz16--s0WaQV9DwJB4hn-28" value="" style="endArrow=classic;html=1;rounded=0;exitX=0.5;exitY=1;exitDx=0;exitDy=0;strokeColor=#595959;" parent="1" source="Nz16--s0WaQV9DwJB4hn-2" edge="1">
          <mxGeometry width="50" height="50" relative="1" as="geometry">
            <mxPoint x="527" y="710" as="sourcePoint" />
            <mxPoint x="581" y="460" as="targetPoint" />
          </mxGeometry>
        </mxCell>
        <mxCell id="Nz16--s0WaQV9DwJB4hn-30" value="" style="endArrow=none;html=1;rounded=0;strokeWidth=3;strokeColor=#595959;" parent="1" edge="1">
          <mxGeometry width="50" height="50" relative="1" as="geometry">
            <mxPoint x="320" y="580" as="sourcePoint" />
            <mxPoint x="320" y="40" as="targetPoint" />
          </mxGeometry>
        </mxCell>
        <mxCell id="Nz16--s0WaQV9DwJB4hn-31" value="&lt;b style=&quot;&quot;&gt;&lt;font&gt;Firewall&lt;/font&gt;&lt;/b&gt;" style="text;html=1;strokeColor=none;fillColor=none;align=center;verticalAlign=middle;whiteSpace=wrap;rounded=0;fontColor=#595959;" parent="1" vertex="1">
          <mxGeometry x="250" y="40" width="80" height="30" as="geometry" />
        </mxCell>
        <mxCell id="Nz16--s0WaQV9DwJB4hn-33" value="" style="rounded=0;whiteSpace=wrap;html=1;strokeColor=#0F828F;" parent="1" vertex="1">
          <mxGeometry x="40" y="70" width="240" height="500" as="geometry" />
        </mxCell>
        <mxCell id="Nz16--s0WaQV9DwJB4hn-34" value="" style="shape=image;verticalLabelPosition=bottom;verticalAlign=top;imageAspect=0;aspect=fixed;image=data:image/svg+xml,PHN2ZyB4bWxucz0iaHR0cDovL3d3dy53My5vcmcvMjAwMC9zdmciIGlkPSJjbG91ZGNvbm5lY3RvciIgdmlld0JveD0iNC4wMDAwMDE5MDczNDg2MzMgMy45OTk5OTkwNDYzMjU2ODM2IDQ4IDQ3Ljk5OTk5NjE4NTMwMjczNCIgd2lkdGg9IjQ4IiBoZWlnaHQ9IjQ3Ljk5OTk5NjE4NTMwMjczNCI+PGRlZnM+PHN0eWxlPi5jbHMtMXtmaWxsOiMwNzRkOTI7fS5jbHMtMntmaWxsOiM3ZjdmN2Y7fTwvc3R5bGU+PC9kZWZzPjx0aXRsZT5jbG91ZGNvbm5lY3Rvcl9jaXJjbGU8L3RpdGxlPjxwYXRoIGNsYXNzPSJjbHMtMSIgZD0iTTI4LDZBMjIsMjIsMCwxLDEsNiwyOCwyMi4wMjUsMjIuMDI1LDAsMCwxLDI4LDZtMC0yQTI0LDI0LDAsMSwwLDUyLDI4LDI0LDI0LDAsMCwwLDI4LDRaIi8+PHBhdGggY2xhc3M9ImNscy0yIiBkPSJNMjIuODE0LDE1Ljc1MUEzLjc2OCwzLjc2OCwwLDAsMSwyNi4yMzUsMTguMUwyNywyMC4wMjNsMS43NjctMS4wNjZhMi4yODcsMi4yODcsMCwwLDEsMS4xOTItLjM0NSwyLjMyNiwyLjMyNiwwLDAsMSwyLjI4MywxLjlsLjE2OC44OTIuODI2LjM3N2EzLjEyMSwzLjEyMSwwLDAsMSwxLjc1LDIuNzI0SDM2Ljc1YTQuODc2LDQuODc2LDAsMCwwLTIuNzkxLTQuMzE3LDQuMDQ5LDQuMDQ5LDAsMCwwLTYuMS0yLjcyNUE1LjUxNCw1LjUxNCwwLDAsMCwyMi43ODIsMTRjLTYuMDM4LjMyLTUuNCw2LjItNS40LDYuMmE0Ljg5Myw0Ljg5MywwLDAsMCwxLjUyNCw5LjU0N0gyMi43NXYtMS43NUgxOC45MDZhMy4xNDMsMy4xNDMsMCwwLDEtLjk3Ny02LjEzNGwxLjM0Ni0uNDQzLS4xNTMtMS40MDhBNC43MzMsNC43MzMsMCwwLDEsMjAsMTYuOTI0LDMuOCwzLjgsMCwwLDEsMjIuODE0LDE1Ljc1MVoiLz48cGF0aCBjbGFzcz0iY2xzLTIiIGQ9Ik00Miw0MC45MDYsNDEuMDE2LDQyLDM3LjU3LDM4LjYwOWwuMTEtLjEwOS0xLjAzOS45ODRhNC41NDMsNC41NDMsMCwwLDEtMy4xMTgsMS4zNjgsNC4xMTIsNC4xMTIsMCwwLDEtMy4wNjItMS4zNjhsLTEuNDIyLTEuNDIyLTIuNTE2LTIuNDA2QTQuNDc0LDQuNDc0LDAsMCwxLDI1LjEsMzIuNGE0LjMwNSw0LjMwNSwwLDAsMSwxLjQyMS0zLjJsLjY1Ny0uNzExLTQuNDMtNC41MzksMS4xNDgtMS4yLDQuNDMsNC41MzkuNzExLS43MTFhMy42LDMuNiwwLDAsMSwxLjQyMi0xLjAzOSw0LjUxNiw0LjUxNiwwLDAsMSwxLjctLjMyOCw0LjcyNSw0LjcyNSwwLDAsMSwzLjI4MiwxLjM2N0wzNy45LDI5LjJ2LjA1NUwzOS4zMiwzMC42OGE0LjE3Myw0LjE3MywwLDAsMSwwLDYuMTc5bC0uNjU2LjY1N1pNMjYuODUyLDMyLjM3NWEyLjc2OCwyLjc2OCwwLDAsMCwuODc1LDIuMDIzbDEuMjU3LDEuMjU4TDM1LjQzOCwyOS4ybC0xLjMxMy0xLjQyMmEyLjY4NCwyLjY4NCwwLDAsMC0xLjk2OS0uODIsMi4yNTIsMi4yNTIsMCwwLDAtMS44Ljc2NmwtMi41NzEsMi43MzRBMi4zOCwyLjM4LDAsMCwwLDI2Ljg1MiwzMi4zNzVaTTM4LjExNywzNS42YTIuMjg0LDIuMjg0LDAsMCwwLC44MjEtMS44LDIuNTM4LDIuNTM4LDAsMCwwLS43NjYtMS44NTlsLTEuNTMxLTEuNDc3LTYuMzQ0LDYuNCwxLjM2NywxLjM2OGguMDU1bC4wNTQuMDU0YTIuMjI3LDIuMjI3LDAsMCwwLDEuNzUuODIxLDIuNjE0LDIuNjE0LDAsMCwwLDEuODYtLjg3NVoiLz48L3N2Zz4=" parent="1" vertex="1">
          <mxGeometry x="178" y="302" width="48" height="48" as="geometry" />
        </mxCell>
        <mxCell id="Nz16--s0WaQV9DwJB4hn-35" value="&lt;font color=&quot;#074d92&quot;&gt;Cloud Connector&lt;/font&gt;" style="text;html=1;strokeColor=none;fillColor=none;align=center;verticalAlign=middle;whiteSpace=wrap;rounded=0;" parent="1" vertex="1">
          <mxGeometry x="172" y="354" width="60" height="30" as="geometry" />
        </mxCell>
        <mxCell id="Nz16--s0WaQV9DwJB4hn-36" value="" style="endArrow=classic;html=1;rounded=0;entryX=1;entryY=0.25;entryDx=0;entryDy=0;exitX=0;exitY=0.5;exitDx=0;exitDy=0;strokeColor=#595959;" parent="1" source="1YQQrjNPyKSkuV92F-UL-2" target="Nz16--s0WaQV9DwJB4hn-34" edge="1">
          <mxGeometry width="50" height="50" relative="1" as="geometry">
            <mxPoint x="300" y="670" as="sourcePoint" />
            <mxPoint x="350" y="620" as="targetPoint" />
            <Array as="points">
              <mxPoint x="340" y="274" />
              <mxPoint x="340" y="314" />
            </Array>
          </mxGeometry>
        </mxCell>
        <mxCell id="Nz16--s0WaQV9DwJB4hn-37" value="" style="endArrow=classic;html=1;rounded=0;entryX=1.052;entryY=0.646;entryDx=0;entryDy=0;entryPerimeter=0;exitX=0.5;exitY=0;exitDx=0;exitDy=0;strokeColor=#595959;" parent="1" source="1YQQrjNPyKSkuV92F-UL-5" target="Nz16--s0WaQV9DwJB4hn-34" edge="1">
          <mxGeometry width="50" height="50" relative="1" as="geometry">
            <mxPoint x="370" y="380" as="sourcePoint" />
            <mxPoint x="420" y="330" as="targetPoint" />
            <Array as="points">
              <mxPoint x="583" y="333" />
            </Array>
          </mxGeometry>
        </mxCell>
        <mxCell id="Nz16--s0WaQV9DwJB4hn-39" value="&lt;font&gt;Secure tunnel&lt;/font&gt;" style="text;html=1;strokeColor=none;fillColor=#595959;align=center;verticalAlign=middle;whiteSpace=wrap;rounded=1;fontColor=#FFFFFF;arcSize=13;" parent="1" vertex="1">
          <mxGeometry x="280" y="323" width="80" height="20" as="geometry" />
        </mxCell>
        <mxCell id="Nz16--s0WaQV9DwJB4hn-41" value="&lt;font&gt;Secure tunnel&lt;/font&gt;" style="text;html=1;strokeColor=none;fillColor=#595959;align=center;verticalAlign=middle;whiteSpace=wrap;rounded=1;fontColor=#FFFFFF;arcSize=13;" parent="1" vertex="1">
          <mxGeometry x="280" y="301" width="80" height="20" as="geometry" />
        </mxCell>
        <mxCell id="vTKi8_O8plxyPCEzZ5Qn-1" value="" style="shape=image;verticalLabelPosition=bottom;labelBackgroundColor=default;verticalAlign=top;aspect=fixed;imageAspect=0;image=data:image/png,iVBORw0KGgoAAAANSUhEUgAAAHAAAAA3CAYAAADUvc6fAAAAAXNSR0IArs4c6QAAAARnQU1BAACxjwv8YQUAAAAJcEhZcwAAFxEAABcRAcom8z8AABVMSURBVHhe7VwHVJVXur0WmjQB6fdeMqaYMpO890wm82Yyk3nzsmby1mTeJHnJZGKk2GONLcYarMResQKiJPZYR4VLEWkKqPTeOwLSi4plv32u/00IXriAoCZxr7XX+csp3/n2+b5z/iuJTOZfhyf8kTGwCbKzta0y/9oDsn6na/GEPyL6N7KsudXvbM1uWQQsZP1PVeMJfyQ8U4/+J6/d7neq2kd2rMRKJjDg+DU84Y+Ap+ow4FjlrQHHqrxkp+ss1OIJDDhaiSd8zHm8BgOOVLYOOFKxU3a8drAk3T0MPFyBJ3yMebQaAw+W39TbX7pD5ttOPAG9g+V4wseUR6qgt7/spt6B8q2yw7nmkmQ/hP7+MnSXevvucaBUCmqr94QPwEOV0P+m5Kb+vlJP2Ym7ppJc98Pg61J0Rn2/UgzYWwLZHtK3GLLdJK/7keK5KGW+pHguSum5nl+J1v46oxirn2asTtifdURdbX205Xd2d4NifNG/Zg5dGafXub8CBn4lN/T3lmyx2NlB5GlgsLcY2qi/R4hVBJlPEUz8iqE4VIqXjpfjt6ev4p3AKvw9uAofnLuGd4Kq8FZAJV49dRUvHitX1zP/mg7wZVvvQnUfeuxL2xhtKcYzYmm9vwRy9tERleQQ1jHorE++M2Rpta9EbY+2frTR8WApbNi3BduZfi35wIdz4Dz6dXEeD8xvymHgW3RDf3fhZstNWWaSTB3DkI5uz4E0up9XIew5kT9SsLmxtTiW34y8xlvoCK137iKzrhXHC1qw5EodPg6twmsnyiGnQ2gMZLsKoMd+tY0nKPMqwAtHSuGZ2oijHOtwnnaeLGzBV4l1ePZwidpObX3p09mme4rwaWQ1TtAebf1o4yFye1ojViXWY8HlWoyJqMbb/hV45Wg5HOgLYb+wU8xH27gPTL8yGPoUXjfwLtrQJfEEjLwLoKEhOXBXPsxo4J9Pl2NPZiOab92RJOo+KltuY192I0aHVeFlijNkDyfeZry24/bfkQfX0EqpZeeob72DiRHXINueByOf+/vTo5MH+xbCJ71BavFgyG+4jd0ZjXChfS9y4eh75WMA/dR+3B5TzIHp22hX3nVD77z11p4VJpI8ujGIhgga7czHQDrEgU5eGF2D2hs9F04bMmpbMSqkEnocQzOmhgO256rH3ZXWdYd7pTbAcGce+cO+BPW358OCTulOf11F1NXrcAmuhBX7F/4Sfms/fpepaetTgkE78loG7cxZZ+Wd3vGBRRuMd+TCmIYYbMuFwrcAW5PqJFN7F02MmpnhPBZvzaWxHFNDji3bnI0/HS9FQUPHKbo94qtu4I1vudd65nzfl0QDjmHplYddqfVS7d5F6+27WBdfB8fdFJFjiTm0t0EnuWiNmXWMvYp5ndNivDV3texwStcjTwPjbTkw9MyG5Y4crIurlUzsfZzJa4Ll9hwYbaXD21CMbUTOCr8m1ewartOJ86OYRjdm/aA/QYMtYj652JXSNwJqIPxly4Wix/GEH9vb0SlF/Z2FvM6meNmrZZ49EE/AeAsdQP79ZAlabt2VTOtdlPLw8/4pfibQ2SYUy4QTFjTl9cANmXjeN18tcHdxKKMB1tuzYcgI1vQpaLgpC1Z0kFdy32QTDYS/xgRehdHmLAxqM75Oct6m2wtgsjmr2XRL5qoeiydguCEDttuycTqvUTJLN1p4sKlovoUSCiP2ymamx46kF2cgr8Qa6HMc402ZMG1DE7L/2gz834kSptjuL5682pt490Sxuo+2/RpxrCGeWfDqo+2gLcKKm/HyHp4f1v3Qho6ZBdOt+TDdmNlMrnwg8QQM16XjNb881Hfh0FIlTpWpdVgUUYGx/qX45F+lmB5yFQvCKrAhthrfZjYgoeI6Bf1ejLRrN/A6+zfiOKZ0bFuKZ0O2ZGJldJVUu3u4y2FWsW3/1Wkwad/v5kwuHN1bwhUeSjyvVGMLuS2uGn4ptQjKb0JJQ6tUo3PcpREj6Qf9tcKG++fYnmabc0XZZLo+3UPmV24sydBzmHGyE/zLcJN7SmdouHEb01TlGLQ6FQNWpkJvVSr0yYGCvBcctCYNr+/NxfzQCgTkNCK7+iaWRvDkyTpinPYUbV7fk6cWvadQMXM8u4Npk2Nr+hV2WG/MgHeCbgHXRF9Tz6P/yhS1ncIm280Z+JiRHZzfiBtd2FaWR1bCZlMGBlHEtvNrT/ONOSzTmkzXpK2QrUl4cPEELDjo0vAKprrODS2sb4XDxnToeaTAjA4yb0fxzGxNKoyEM1akQEkn/O1gAYZtY8poV1fQlHUNv0rB2NMl0gg9wzVmhXHso/+K5O/6NqYNNuvT4ZNQI9XqGBsooKbNvTkwkrhI+y1Pxsu7shFR2CzV7BhH0urw3LZMGHIRaGy4j+uzRd+N5mvTltmu6YXI08CSxq65UKlTwMabd+DB1KmgiP2XJWMQhTTnpDuiCSdjSKeKcrCW90YeyXiKIu/l/vig2H6pGsZcDKar7tkkrm24MH3iuyJgldo+E7Zpb2P/ZUlYfL4CN3Rkp5iSZgz3yoaeWETt+hAcvDYL5itTG81Xpy6x7a3I08ByZTIWh5brFFBAfP/4cJ9470A+HNYyjS5JhMHSRJjS8MFfJcOCFGVXKNr+2S8XZTr2miJGflpl5yk2trQZ/+nNNEqHCxtMViTBZnWK2lZd2EgBRRtTtmlrn3imz7m5HitCqQ4bM6qu4w0fCsj6bftQ97M6E4M9khvMlydSPFXviidgvjwJLt8WdElADUrp1F2XqjDhZBF+vTMTVh5JGPBlPAwXJ8BseSIs6IzOaMYxRTlXVSr1qB23adNuHi7WR1VIT7RDnIrnBJRiwKIEdb+myxJhy4Xpc0X3t+VGZh+1TWyjsU9DPfcEjOccK5s6/4Eh89p1/N47C/qs/4M+VmZg8IqkBosViYv7RDwBEzp9uGcGKnQYqQ0iIsMLmrCBDh5/nGJup8FchXoL42G6hJMRTmlHS9LgywS8sjkd53V8upRwoXx0IA8TThRKTzrGPu53dkzLZoxsMbYdF5XPJd0CboqqVNtk1sZecW++NEE9DzE3XYs7vqwZv9meCYNF8d/34ZHGkuIti6d4vZw228LcPR52jBrfy937JaQ9xCk2gqe2teFX8Y99uXBYQaEWXMHgxfGwWvI9LXlvtDAOHx/M1XnyPZfbCJtlCXjLKxP5PNF2hhx+rvzdLweGC+Jg7h4Hh+UJ2N0FATdEVrB+PEwWxcFMlF/Gqe3WX3gFf9uTjZSrLVLNjnE8tRYvrU+BMftQz3N5CiyWxDdYLon7sk/FE7Ck0YNp9JuMHuGE3oBIsV4xlXh3bzbMOSlTCmYlhCTNFl2BfEUCNkVelWprh5B2R3Ql+s25hKdXJsFPRzq8wyhZHlIGg3mX1WM6UPjdTPO64MkIs2ddWzpeQbueX5OMt3Zl4PMzxUgq1y2ewOrz5XDkgjETAi5N5jwT6i2/jFtk7146SHJz32EIxbOgUwXHHMpDGZ3fWxALYv7ZYgz1YFqbfxlDGBmGcy/hDc80ZHPj7wyVTa2Y+G2+ur4JRZnHfnThTFothlHsQazvQEF2cxHpQmJZC7xZTyy4r7lITjKaksqbuf9KFXRAZNdRB/NgwvlZLUmC1aI4ihe/4KGIJzBkIR3LdGFBAwTHHspFXEn3f5fsCNdb78Az4iqGLo+H+bxL5GVMPJInve0YF5iOf7WKexFt0p8di/d9M3FVx2mwsrEVo7lnDpwVAwf3K/DtgoAPioi8Bry6PhnG8+KFH+ssF8TOt3e//HDEE7Cefwn3SAG52k3nxOKtranwvliBqh4cbLThBk+Jq0NKYTw7BsMo5KF43XuTcL7J57Gwol1mLH/5VSKOJnbhsyCsHIM4jgMzii9TcF+imd/GE5i1LBfyADTvcp3l/Nh5D1U8Aeu5sfiOjBCrL2JhMisaSjpg1Dc58IupQElt5weIruBq/U38dXs6/sLFUd3c+cKobbmFmcfyYUw7rOdRRNpkwYW11F93Go3IrcdraxIxhPPpawG9uH8+s5zfkLNj6i3nRT/cyNPA5osYtKc1acFVPGj6RTy16DI+8snASlUJQjLqUN9yWzK/exA/+h5l5H1xvEB60jFiCxoxfGUCzIWAc2IwhDSYdgEjdmeiRof4TTdvYwq3AdHW92LnB6We4jbn8nVsBX7FD3WzmdF11nOj59nO6qPvPF2w+TwaWjnnXmkx6yKMpkXBkuVrdOoovywsO1OI08nVqGOkdAdVjbcQX6R7fz1GoW0omvnMizDlIjIjhQ1/WJ+EC7m6/0xiJ/dcp/mx8I7qfQFzKq9j2dkiPM9vPdMZF2utZl384pFEnga2sy+iKxxCAc0/i8KgKZGwnHEBryy9AlffDHhHllPInkVlRyiovo4DlyqxLawMG7l3bjpXqr4+mVTdpXSeWNyE97anYltomfTkwSA+UZJ5sNtCO0S/dnO5L392oc5qVtSjFU/Alqu8La1nXITV9Auwafe8LUUdc0aE0eRIKJlu53G/6mlq7QuIX4iWM0t40uG6UFR9A2GZdThPilIwIqse/sk18OHi9DhThGn7s/GXDUmQMyOZfhYDqxkXam1nRs95ZGmzLewYTYJCGLuZF/AUU+cLC2IxmJE25DM+l97fR9YV74wnRWAY09W59L77e5qe4FTCNRyN0/0h/zX3yd96xOP15XHqUvB35HBmmKFzeSbgYjbjQjUlrWfGcs7RNdYzLnxuP/4RR54GdtOjIGjNiHKkKDMOZCOA+9vcI7l4jhMwo0AWFNOG722ZQtvShjT5NBz/sfgSkpi2HidUNNxEcc3NDv/UQ4ONgcUYzDmKeZiz1HAwBbOaStGkedtTPPqp1npq1OxHnjbbwn5aJOzIIZMj8PLCGKSX3ROijqc9FdOIx78K8fbaBDw1i1HHepaTw2FFitKGE/z1kkvYy1Qj/uXgxwjPoBIIH9hMiVCX2ugwI4Zzj6q1mxI167GJPA3sp0aojXekoV8czFEf99viRusdpJc2qaNyH9PNrtBS7CS9yIPRVxGbV6/ec36s8AwqhtoHXJCibE+H6dGirLWdEvb4pM22sKd41kwfr8xj9JXq/vOBnxo8mUId6APbSeHqsi0dp12keJE1dpPOM/JOPX7iCdhNDIec6XMeo08clx8Viq7dgPe5EgQmXUNl/U31z28iLQuTBMW1+F21hKfGb/kRHZB4Tf38QaEWkNFn+2kYHISIEh2nUrzJ4TV2k8NnPrbiCdiMP4/h8y4io+zRRp9/fBWemR6JV+dH451VcRjhmYTxXqmY6puu5jivNHy0KRFvf3UFz8+M5HUScrrwb3W6sFVVBMeJYbCbcF5dCsqnRFHEsBqHiUK8ztIm+sk+PDxAunk0sKfhI7ck4frN3v+Ou829saELv9aIfXbdvwpg5hoCqzHnYD4qBBajz8F6XChsx9+juLYYHYLBfCfqDZsRiQNR5VIPPYcQUP7pedhxDEeWcp4+HSacr3GcEDpD/sEFI8lNbYB+Stdzv1O6BngoXYMOKV1Ux5Vugb68nva0W4BCqvTw4MAIfHl2FCZytZ+6XKlOU72BxIIG7GB6qu7kvynUIJeR9O6aOFiPoRNFJJB0IoRt9nSsoLgWzzTvLCik++FsqYeeY5uqEHL2Z8cFIp8YKUSsdhwfOl0+437xnvrEf5jSNXCbwjUoS+ESeIHcSvG+UroEHJC7qNIpZqyTc8BoJ9dQQ6lJ30NO59iNPQf7cefw759H4eONidh8phDpJU1o7cF/K5FX0YJ1p/Lx56WX8LlfhvS0c6gSqqAQwggn0p6u0NwlGP9cn8A9sed/FCywI5ARyP4cJnDfG3euxnF8sFbxnv5nyEsKF5U/Iy3L0S3wC0eXsy/bjlTZyMcEWDqODZUr3Px/7+Si+kbpElgsdwucbf/OQzqxyoXTSAeKaM1VLfjslHD8YUE0PtmQiIX7s7CHh4uItBrklDej8fptNJHNN26jnulRCBaaUo2t/oWYxCj+k3sshk7igYD9vbvqCtacyMeq43kdcuWxPIzYkAAbjquxpSu0Y6p96bMITNqZirUnOx+jI65ju3+si4fiU546x4bUOI6leB8cuk888YzR5s0oK5WPUr3n6BbyvsIlwJti7lc4ky6B3yidA8Y9OyJoqMIteCcjtITP/ldq3reQ09Ft6UjH2NKZVlzhNm4hcOLqfGFqOF5ldL4x/yL+2z1GzbdE+WUMfs9nw5mCn5tM0dhWtBPtRV+/4J7y9MTzGMpSK6V3ShFV7ezoCh1J0bbTMTqhaPfURH4ujGXkjQqe3lHqc3ILfF/hGljGCFwi7hXOqsW8T6RQixUuIS4UcgcFy3UaGfDusxMuOCqdAy/z2UnlJ/726g76EnI6vSM68iBhTzFs3YJhTWGsnINgOTIIFhLFtXgm3tlSbAceMtq2F/d2bK+L7dt1h8I+O46trV9dtB8TBvvRITUKRl5n+5bCVbVF4RxQrPg46A31vUvgavK0vWvo8+J+qHOQkqkzQ+ESdE9gl4DVvC8Xhx1x36dQ0Hk/RyrHhYmSkRfYqXhvuocOZOo8IXdWnVN+oPqFeMaDjIfcJShe7hLs7uQa7KZ0DV7HA0ypgtfivdxV9U9GYQlF/0jc9ynaT+znQOXYMChHh1Q7jgma9szUswaSK7TimbfPGlDAMwq3oOMU2k48c3INXMYIrFQ4M406q7jfqdLkroGzxIFGvFe6+v9V7hqU5zBSpRa0T6EYFYyfE4V4crdgRp5u8e4B/SjWPqVzUIyTc+AL4onSVbWSz4LEyZPCeTDaUuSjVX9QVycUrgHTKWCFw6jQd6RHfQeemvBzoZJ7nnxUUK2jq2raix+m6Esu0AmKsYiCVTNNfiDupT3ulMNHAYoXPzxswvcqhYv/LgfnY+r/hyf3zP1Moxny0aG/FPd9CqWY2M+ATmPOiwislbuGTKXTuyyewC+cg56T82QpHxl4Qv5BgKXiE//5FOgQT6BPi/dMrx8puSeKU6jTqOD/4WGmgGl3ufZfcnoZPO7ip02KN5riuQTVMoo+Gz7+sp409W5B7hw0ie3LyU1KN9WfnFxV//ZdCn7TfaCTa9AfOdZk7oni8yLMYbT/MPW7vob2Sf+E6BZyl9FRrRypmjZ8/M4eiScgolY5KngOBSzioSXUyTlotHxE4K9sRpweqhyh+p3SWbWCh5tcptdIlr+RmvU9tE76p8JR/NB3CWxhVMxU/8vBg8Ldvb+jS/B/se9j7LOOEdfM6yaWLfy0yBEf9g/l4/07yGT/D7v5+eF+yVGxAAAAAElFTkSuQmCC;" vertex="1" parent="1">
          <mxGeometry x="160" y="170" width="61.09" height="30" as="geometry" />
        </mxCell>
        <mxCell id="vTKi8_O8plxyPCEzZ5Qn-2" value="" style="shape=image;verticalLabelPosition=bottom;labelBackgroundColor=default;verticalAlign=top;aspect=fixed;imageAspect=0;image=data:image/png,iVBORw0KGgoAAAANSUhEUgAAATAAAAA6CAYAAAA3FwUhAAAAAXNSR0IArs4c6QAAAARnQU1BAACxjwv8YQUAAAAJcEhZcwAAFxEAABcRAcom8z8AACvJSURBVHhe7X0LmBxVmfanuIu76uqigouw4IrLRZGbC4oosqiACCwKCooKIsgtJJnpqp5JgEkIuqKygIoYbpFr0j2TCxDCLSSEXGa6qmdyhXANdxKSuU8m92T+9/3Oqe7qnurpniEJ/A/1Ps95qrvq1HeqzuU933fOd05JjBgxYrxT9NXJB9tScnJHvYzrTMuvWyfLXvZSjBgxYry30dEg53fVy+u9U2RDV4Osa0/JC21puXDNNPmYjRIjRowY7z2k07JLZ73M2vKg9K2dkg84t6krLTevuU/2tFFjxIgR472FzpTsB7J6dtMDSloaoI0piXU3yDZoZ/e13yn/bqPHiBEjxnsHIKlvdqbllY335wksCD2TTWibJHevvlv+zd4SI0aMGO8NQNs6CQT2+oYIAgtIrKsBJFYvN72Wkt3sbTFixIjx7qNjkhwHonq1FIEx9MKcJJG1N8gV22bIrvbWGDFixHh3Ae3riI56eXFjaAwsHGBiKnmRxBBvW1dafm5vjREjRox3Fx0TZV8Q1TObIwiMg/k4bmlPy+z2epnYkZKnQWAvQxP7pr09RowYMd499M2WD3c0iE83imICo+bVmZKWdWkzC9l+j+zTPklub0/JlJUp+ZwKiBEjRox3Ex1peaB3qhmsD8iLv3UAv17+983x8s82KgnvQ9DExnRNlhF9D+TPx4gRI8a7AmhZ13amZcNaalyWwIKxL5wflh0v/2CjKrj0CFrY8LZJ8vW+tOxiT8eIESPGzkfbRPkJiOrt9dDCigkM2tmIviICI56/UXaFJnZG7zTZs69PPmBPx4gRI8bOxZp75YD2enkh7I2fI7CUXLPyLvmIjVqAt1LyaRDcoQuuk3+yp2LEiBFj52J2nXyoo17mFSwnypuQd3fdKZ+0Ufuhd7Ls9fJs+bD9GyNGjBjvDFyATfeIPqnctGtLyV9BYluUtEIEBg3L77073l4nRowYOwHd9fINEFAaJuDDMP9GvnWP7GMvDYi2evkRCGz1hml5LcySWVdrSg6y0WLEiBFjx4AuDu1pmbrtIenj4myahN2T5cHOSfJfNkpJvJ2Wz0DbWlowDgYCY2hPyanxQH2MGDF2KNR0TIu3bbohIJqBm/Eb2lhj6yT5qo1WEtDY7u2ZIltIWkpggRlZL78tNZC/Y5B8/OOSyBwqiQUnitt0hrjeWeK28HiSJL3DZOSCd7aqfFjTv0ii8cuQc7BUe1+SkU2HSI33H/ZqedT1fVDqlu0mI3BPcuG+A4bRS/eW6kW7S93s7TNQeGZ6F+TNZ8SZt7/UNO836OB4uG/Jv6qsuroPQs7H5NLHP6nnGPh7ez1rKbhNe0lV5j8LnmtYy6c1X4eCvr4PoCw/WyCPoXbJHnptR6J60Uf0XRicxi9I1fwDJNm4L+rHP9oYMSpE233yRRDYorBXPUlsE/6DjJ4oZwoi7s9AVq3rrRkZGgdrXDtdPmOj7UCQmJzMmeL6N0nCb8bvXlTEPqlZ2CfJlj5x/HUIiyTp3wLC+ZlUNw1+OcCw53dFI/6luFkPxyaERqlpyUoyMxHp72djDYy6ZR/Fc1yE55oBUn1w4OBPwbvcJcnstQiXgnxOlNrGPaykwSOZ/ThkXimjFs9CPjwy6DBqySzc/xOVdfHcf5WEl8B73I5z4zXU6u/v6PUdhUTmBpD7TH0e139Uks2P4niZVD86tF6SZOFkrhVX5Rh5+r6ZGhk2Y8fuPuD6RyLdJ3CciTrxOMrnSRwnyHB0XjEGhdaJcmB7vSzcXLQsiJpU32OqSU0faF8v1eBS8nTYjCSBwSzd0FUvR9loOeD8x+3P7YAa9GDV3t9Q+Bvlymf6pHaxIa1kNhRAZrWL+uQKXCexuf50VNzvWwmVocrbW5ymBTL66T40ZgSkw/RcD+ToDbexBsbIR3aDFnGrjHkR9y8dOIxmWIY0lpuQ8DoluegefW6S6WBBbc71H5SxL0M+n3+QYewrzLexKiuZ/XfktydX49wVyA+GcbzeVKvXdxQSfotc9bx5niB/SJ510IyHgrqXPyxuZp7KCeSxXJ1MAzqlHevj4/ona33UNPE+dXgvx39FaqHZxxgUeu6XPUAqTVsfKiQwG54Bgb0Bgrt+IOJpS8vd3WEzEkcGaGHusrTktGKOiXEv/TWT5Kfv3Bvfad4Thf6ANnhqW65vghIWKiIrBomL/8PXSELJ7CpU1Isk3VfZQzj+ceidNxXIckGOrPBJf2pFZkwNNBc3c5NteEUBsgpC0XW+35XPIq2F5rnZ+AaDWphajj9ZybBYdiWBabuZK1WWkrk/R66gLPu8lOtkqvX6jkICWi/Lms8TdEyu/5d3RmDeEyonJ8/bBk3vvh1PYN5JxkKw9YkE6vjPIY+/aGPEqBDWn+sxDuIHxGX3t29uq5eTulJycmeD/L2nXs55s8Q6RhDcaSC4NcH+YCEzct6q+yRn+ZDAuuvlj+0pWdk+UU7DqSEONZgxnd+qtlWDoA0NlZCkZchsJcIKaEer9T+1hBz52HjJ5m6pyV4iF2b7LRkoACuz411tyAr3qgwbDBk9h+c4xMYujSgCc7w8OV2FEGhc/M8jiTicnnkPvJv3Ayu1MkQRGNNWTZJplQnXvAUtMPMblVU9fx/8bpFxr+Oafd5r8NtpGqXXdxRiAotRAiQojmHRbOR2OCQikNq4YDnQ2snybyCkYTgewg966E0hbJsmHwMpNa0ngUEGScwO5G9cnZJjbTQFiQvE1otrS4IdKwaP5FyYMd4blqwQSCwaUAm8cVLdeBbOnyyJxnMk0TQOleMJbbDUyIIGwIbpZF9CZf2slRqNEXP/A9rFYiVLTYPp2aDpe72o9EY7GQhRBKbP45Fo/4z/f0G4SYPj3YI0H8DvlUq24TRJdI7fkBtUrwRRBKbaqf8M0rpTEtnbYKLdUTLULrkLmtepKovpVkPbqll0K0jlZg36e8G39fqOQkxgMUoAGtQoEMo6bkBI7UkJLCVOeD1j20TZG+T07Y6p8gl7qgCIPxYktsFqb2Y2Er9x7vqw5tbNpUT18oKOuTXA9hqSKelkv4+C35AjMK0MmU40xNNtjEIk/M+DEH6LuK1KCEoi2ZfRKBJSlf2UjRUNx/9erpJr4881HvNbK5/3aNmxqSgCq3uOJFpvYxSCz+Vmf4Tn9nINl2G0EtoLIObv2pjlEUVgSoQgznIa6HsFMYHFKIGuSfI9kM7L9AMLNDAcr9lW5AbB/bzWI4B0+s32tk6RAztTsiK3S2tgRk6SV/kVIxtNAbIbD4LbijireibJYMct+z4gbvNlKHgQmDUfaWo53ss2QmkkMlWorB2IOwfEUH4gnzOHrvd/RlMKEZjjbTW/WfmUkFZA7jH2rmhEEdhVIDDOOA4Ex/sx0m83GiDuYcV3qPX5v7YxymNAAhs/OAKrm/0hnckdnjlU3UkY+LsmU3LtWA50RXG9o/WdnKZf4jl+IUnvFJTngTZGaQyFwOiikPRPQ5rnaVpV87+fm4XmuOVQCay26SCphoZfrbPa5yONn+OdTkUaB+vwRjFGgJhqvWMh17jyDJXAOOPqLDhc627COwdpIg/13c5AOLLisVG+u+Mfjnt/AGvlPJWThLxqlAXPX/hAZXte0XUpmfkm7jtLZVTzWZrPQt38Lv7vb2PtcPTcJ3tAU/I4kE8CWwdzkv5da9P93SCoQb08IXodI2Sk6RPWY81IDuSTxEBUF4a31+GWOjAj2+mqAW3st33L+hPiAACBJbPDkUEb8wQGgnGyq7QxDQRqSW7mFxX3dE7LF1BZXjIVDZWc6TneqwjT89ofziWb14vb9Dt7VzSGSmBsFIkMGq81JYNKX+W7NkZ5lCQwEMBgXQbUbcW7EWTShAYwT4P5XXpc7lKQWzXzPXsn0l6CuN3I121IfzP+r8T52Tg3Dr8Ptnf0x2AILPnSx8VtvBxxHkMaq/G8W9GoNiPNt/B/Bu47X0Yu43vQfSIkrwyBJf1vQcYfcHwSMt6ErA2QgXzMbMLvVXiPeSDmG6Uqc7xOEFWBrBP+b1A/5+CeRpDdESpnsATG2XbXvxjyb8e9dOPhe6xHQB6yM/U6cK0Fv/8GYv2WvSsaycZjEP9PeOcM7m/D7y24j2VBeSvFaUZZNt+qHQx9B6NQl/1nHaapWXgn3ovDEGuNDO3Y+fsVHGfieB06kVN3hn8byYcaGE0/moEgmKV0sbCXK0L7JDkFclqLlxZBls9xNBstmDiYzg0Rce219kGPhSUzpyPjN+VIRCtCFhUUxDISPd32AHuphPdDqWVFI3mxojdvUhJiY9UBdpzXCkhSyjwJMiitDQyZwKCdUFNgJc+/ax8axrtDYKzUJC26UfBdGPjb9UbYGIWo8g5DuUyQmuw6fV++R9B4Sf7sfAJ3DEMAx9k7C1EpgdHJNpm5HultMa41HOsL0uKkBc45Hhpr5s9ofD7yYGtZAqPW6TRfhLJYLlchD/mslMtJEL4/O5fgPSg/4T2vZe14i9Vdgq4zLgiu2jd+RTXNJ1ZEYNRYqxb8Ctr3TFNmNv+Yluk47btB1hV4Dpapm30WcU+2EvKgZshxzJrFSzUen5v3MVBeEHie7iravpqngKhO0rYQgM7YicxotIv2nFuLygjk8Ih8YV7o8/hvId/+gnsOtRIqBhdmgyi+hfCDNbcN/Ml/xElA6+ohqZDEEDaAjAbFBdtS8k9tKZmzLrRTq2pgOEL2GeHxrrbJciLk91Lbw/WzBzcWNrp5H1S+1zXjggbJglRTkj1CIzIMan2y6RCtfEPB8IWfQKbfbtJABVcNyFsptf5xUpU9AJX09VwFZMPi/5H+9+zd/TFUAqNp6mRekxpUDt5j3nkd3vESG6M8IgkMabOHHCzoUMveNSyLv5PepTZGHroyIjNLGxcbuz4/Gh4bed0LpqFovpJAENjYncwSuSJCE6uYwDJJnN+aSy8IWj+Qh8w/bfyQ4VJzQNzgehSBseHTREpAa2TZadoIfG6jtbyEfGwz14L6gLSZJwFZKyH4rZD9NZVZCYFxssTxr0Zaa03+Mi7S5TsoUeIcg+Zf8I64znOu95RUo42EMSrzFcR51ly38ZmfDI63WYknIMggr8a8xNnnmwoIzIXJXLvI5IUL7ZNx6ZrE96FGrQQIOUEHz2flczlNP7MSKgY0okOg4cxfP01Wt9fLrasapOTKF8Q7FGE5PfJpRtIxFfdfwrWSNkpFACldBjlrLTGpLA7m49zjnaFvRHKCAP+nkuBwz+TWGVJaeekHVirXq81ldFAgzDAWgCmkboQFyNQ7UEAOKvbx4iwfkMULUN1yEO5Zlas4WskyTboMxHi235orJHXnWAgzwvuzvbs/IgmMFTubtjH6o/apT+Oe8Ya8kI5WOiXSFXiv0mRZjCgC4/u4/izIvxgay69wvCAXnKYLxV1wmdSCqItRKYGZPLpXJx2UdK3LCM0N129AGIt7rsP5xVrBNZ8hi2THdx4+u3C2qBIC4/iW670otaFGzXwL7nM9mH1eu6YRNNQgnv6OIDBn3p5KqlrPmC7LgeZSBmavD7PY/w4a9Rm47478dcrDUc2qzBq8N8xmlHMwLlSJCckO1Gm6LkcAzEfWHZp5rgeNzLsX8e+D/KW5zo1BO/EM8/gyK4la0z9KjT/aakQIfE6k7WQ9/B4Bc5vjYJfgvj/g2KjpXf0y01qaI13CaN/T1PE2IC/X34gwVe/X8Tho4kl/PGS9pO/FjsrxJ8pob28rpWKANM6DZtXWN0P6OLgO7Wh6ZwkS4xgVzToSFzUwHQdLS4qOrjZKRQAh7Q45i+xEQNiM3NwFE5NbS9uonDz4KuKubktLa++DMrA3Qz+wgSS8/0PmbTKFDBIJCpGBFYQ9A3sDbUCoII6fgmZ2sTrBDgRqbdTg2JOyMNlju9mNKMAb9DrXynGwMtAemB61BxJm9fzdNU4xogiMz+348yH3RBPQM1ejctNEdZtQsbypCL32+U1QrS17v1Q9O/DsaRhRBMbnZo+ZhDbHFQXU6oJAE6t28RaYPOdbCXlUSmAca3QynZYoTT4mYUbS5WTEnPzSDjYQx8uYd2Rea8PqQgdSuJtAJQTGcS++S9Cp5crO5xKwS0BwJ0POD/HeY3DuRZXBOBqX8voRGMoZ5eF4W3JlwKOTeUWq5h9m4xhcjnxxuBRJ39PWORBJwvsjZByt46nBTHWlY2Du7L1AYg+bMgcx0xePA+0cE6tbsJvUPP5JyP82wlP5d4ZM08ndaqWgzJagzLx7TOeAOIzreB066F6MJN7L8Uahns7AM11kzxo43rEIz+S0Pi1brxnyCseeuS5WFYbM3/A8D6Itfd1eGRRAWBeAOFpJRiSlvodBJCCxUnt1IX4SpNNDE1BJp17WgIC+Yi/LthtlV2pYpUgwQHuDXIX71tMtI9DCOK6G4yPFbhg4Nwba4dauqXK0PTUIcLwj0QitgevKUGno28XMDSpGEPifmW3GCDYg0x+EeUlP2mjUZT+FgqrPVVpTUG9qZQnAQnMyr+bSYrqOx4mEs2yMQkQRmN5LjQSVUwMaFU0SoylsVWIwDZDx8By4t2ZhG+47x0qtDJEExvRtQ+sXUMGvQs9ZXVSBiUoIjAPYTtMUfd6AINgZsCe+ZPZHbaw8zMRKm2oPjM+8TEDemen84G9ZAmOn4j2EjmxbrkxM/q5Ch3W8iRMCNVjOXLPjy8krIjB2ZElvOOKC6BlP5TLOZL1eDNVgIYPxlFBgdrpNeU0owGAG8Tm76Hh/Qn5Gjw0StEbYGVIWg5riqL8BaE46HsrD5p+O6zZ34T3GlpyFpjZbPLPsZk/QPAvMc3N8Xseko8BZfDo+14XKcRBoTckZIJDXOKhOAgEpLQcBPdaTkipu7Wyj5bAmJfuD8JZtmQ6yAeGpS0RKLg78wdTsS8s8yLzh7bT0r4cW3HEVcp4JPPMZclrYZDm1LqSFdT4iu4Eox4BgD7CnhgCaOonsuagEtyBDFyOTt+UHKgMCsIEVyxTwKwjRdnli4aEorPZcBTPjBHN19iWAElL2ZtMb2QZQu2gLKsXtNkYhogiMgfdRRjiwIYefm3FIzjULe1CRRw3KFCZKERjTYCUsTp/vO2ZFn1S1XGwl5FEJgXFHDcfLWq0U15A/fKeqzLlKCnUgsSDQNcCd+0U0wqdN3jAuGpiTuVOqZue1zHIEpp1Z5ll9fo2D64zn+veUnAVTN4oyBOb6VQUEZmbabtddOYrhZn6kMhiPBGXWyl5lr+Yx2FlIknMA7ihiXDYux/FahFsQrAYLWQwsDyczzd5hx3Nh1oXLzMSnOXofrl0JGT/G/yPx7qV3bame/1+I31xQh807PI3zf8XzV+H/KejEv7Q9FsR3peRrII2ldBqlywI0o9FrQBTQtH7cNU2OinKHaK2Xe3qnyja6QHBAHwT2BAnJXuZg/zhoYCs7J8uJ9lQkkMY13dDC1lJGSAsDAc56LTQWRtCvbPvsHcaGXd14FDL0JyiU36BSPI7QpQ0pPE7ACstCcLznYLZ92d5tML7vH2DCXJI3H1nQWY4pjLYx8uBsD0nANBRUHJqEaLjcDqcYJQkM95JUiwMbIuPSfNAGsWgWejoQQMhkqhRRBKYVz1uD512kldL1FhaEmsXLQBo/tBLyqITAaD6wZw4IRwPek2soXX8SwpRc4HNxTStNmoC0eXS82cib/PR0KQLjTB0xes7eSPeVAgLjAH21f5kSUTHoM5X0Zmq8nLwiAiNxOE3/g7Q323pgno2zpeOLHIDPPHMXyOHuIUYey1DdG+wuHmEMlsBM3eH45J3Il7kI7Hw3ar3mGJOxEIwsBpaH4+UJTIc8shf06xj5jMEQi46t+S2wZmDyeTciH05HvhUSBNtXwrtN0+Q7BnKYvqZJVxV1oVggNc1p5N3V2h6HiO4H5FMgsCc5BsY9vmCq/YLnt82QXdfWy2HhdYoBYGKejngrdQwLWhg0pw2rJ8pJ9rI6rELm64g3rXO6lFzN0jZV9oa2tzxit9atNG1nD3JyYGjgfku6pCjzexTwW6ZS2Yw3hbYVGV44E3f5kj1w7rFc5TINgbNNc1Dhb8PxDg26lYxuf5MvSFaQhNeO+y+00vIoZULSKdVVs3GFBodmpLcccjI4f782CifzU5wbumNgFIGZ8beUJOZ9DcfDpabpiILAihe1SqEiDQyV3/Ffy5FJOE02mOKg2mWoYelvb7HUhLYqKkdgNYtY1vk0jbwtUtsc7Z9WqSe+7r7hvaBaYSDXlNnoXNqcpTPOnG8YWQh8jgTHi0LjfQEqJbA+yOUEAf3VXHTEtCq4iJ7Exd/MOw7uBzOpQSgmMILjYJxo0I4R6YUJiM/Buht0mDzWLHwdMm6TkUUzwtUetLDmJk0/3J4Ccqd8Lefnzf+ahYtxT636Ag4B0Jju3fKQ9OluE2mpDYgDWs9HuYYxPKhO0PueZibNR46b0TcMMsZ3TMiPXUErmwAC6+1Oy4DO54gzFiS4PlheFGhhkP8Czn/BRisJzoBydrL4GQvBTejKgSZEEtoEiUIrDTMdgbNVbBhhcFDZbe7NVS4tYMRl4+HsS9Do+Ds87pCLt5iNYKKVlkcUgRkTC8RIV4mmb2iowu+R2a/qhol0F9keS32iCIzv4PjX2xiVoxIC45Iuun4UExjzkO9cLlypz/a6uqsEKEdgzuL98T+fppnU2YK4JcZnKiSwNGe8dWxrk2mwlI24jteD8w9Bw5uAd23A876spKTviWdwsuvxzPk8CaMSAqMJloDGTSJRgkfavEfHEulMnbkbHUU17jsbwRATZTFEERjBGVX6D7rNWU2bclkfSV4mv0xgfvA8y4ImePEMIjf2dPwbce01jcf0WDbMn+CdVA7TwLXaJb1S3TyypCk/ADoaxIU5uJZaGIjoTmhBBZNkUaYbCOZSkE2HLvCG1gQia8P/3CA7COxIaGFvg6CuAcmUXL3QmpLPtqdlWbDZIUNgmnZMlD/xO5E2aiS4FQ+e90t92f7fmGSjPAgV5GZk1Ey1uSuBC7OSxJWrOMj8hP8selCjDrLiJrI1OfMxXKADhSAeg2o23pJ+LghRBFbOjWJ7IZLAUHmH4shakQnZfDzy4AW7btPkEWfyElxorz5V5wwYuESH4zzDns+by+XGwIY37htpQnI4oJQJWelSIl3B0cTla1bDQlzWkUALyhEBGrB2as1tILZkwZhpGJUQmLvgSDz767lOkvE5HEIveif7DS2HANxiyZCNCSyPKAILQP88rrPlJpdq0ntZyOjV5zCaqwkmL9dJlfdLe2cedCeqznwT73oelAhaOLBGMs/iaN4n3C7M8yxEHSmcua0ArZPVVeFpOwO5tOMeKesQ2zVFPgkSa+LYmQ7mQwtrS8uN4T3BQEbXQ+7jXBtpT0UC91Uj7jodT7MkpgP6KemGKdnfYTgEEtjbk+SEQqKrW7S7OI3VyCxPKwxdJTiGUmrZQwCq+fSNYYaGK07CW5Zbv8Zti2m6BdcDtZg91EAh3HvxmZxMj/aOYUQSGCp/OUfW7YGdTWDUil0/m2t8LvKzdtFWmKaVL0AvRlkCm/0JxHk+T2BBA/ImRBIJ60PSDhWUIzCCpJPIrDYNHPGokZHE+O5XkIBA0C5Im/6BIxec2G/8KIxyBEZy5WSNkhKfzdZDNzMVv/tvzMd6HbYGDGGUJrAcOMbXvKc6fFdlTtBxY3rO50gM6ZqVBQMvk+Pzqg8eSJduHvRPc70N6hJDOSbPeqUme6a9o2Lw+4vQlqZRA1s3VTZ2pcTsilIG0J6uBNF0k3iUcOql/e2JeS2Mflvt9XJpeIA/ChwnQ/rzKYdkSALjka4aOO+3D/AFJA7ur5kkp7z2d/URs5qiC/Mq4bebRsPKZwO3nwmWakRBN+LzaK6ZggkqRQJmQAAOPnO5kFYsXtdejz5EpyL+6VCdf1gQ6IphtIYHzRiJlavE2HR/wUzV+4nAaPY6/vQCrYCNnTNeA85yoRFQm6id2d/5sByBmQ5qppapljHjafm+KSMWHK5xwqhZdBRk5s0+lRdJYBzIh3nvLdbOyfV7EW+ccF0kx1fps5dYcDrK9gQ8/xE641cO5QiMPmV0AmbnGDxbkseIlRPqMJy5PZc3DFEEptsgNf235nEp0MTj5gVB2TIf+Zu+bAFoWfBdr4sg+QD8VoTrzcqVP8vEAeHT3B0C6N8FEuqhFtaZlt/xYxscA4MW9N84H+l3Cc1tL5BNc6CFbaIWlpI/hz3mVU4Fg/Edk+UMkFVn4J3PoKbkFJDYJLm5lBnKsS+YrkeBKE/jxIM5y8aY8O8vqADMIBa24y8DidyMzPoxGgKXThwsI1D5atBDcUkLl5iQZHiP0ZS4q8Mwlcte2vH+V88ruVG+Tx+t8lslJzI/KVCbVSv0nitwxnw/ERjhZIejfDpyjVDJvYV7p/1ex2LCYOei2rE3Fx1BG+KcK8cWmX3lCIxIwvynyROQkkkTR+8p/D8DZf15vDN3c0giLML1bbkyK0VgLDfOZjNtrTPeRvy/A4302yqLH+QYBs2dxFXpeGU5AtPdhr0pljAR8IzGtSSrzs78AEht85dBRufjPu4b15GTxaCkgzYSBt9/1JLncXxS74vS5Ah+J4B1g3KoQfEZEnYG/hd0UEUbuWL5SyiPexDnOzrDWQx38V6I90SOwEy+vQXtLDcbOBh03ysHwCRs6XsEhJGS5SCEL1O7wbkJrfVSchMBaF1je6bIWrpC2LGwjtZJUnLfulKuEDQFkeZEEOFWanMBiVnNbl13vVxQ6t51DbIP4v4RzxvK7+qmg5Ah2RzZMJNYgCQHVgxmFv2KOBbFiuF4xiM8KGQe1fTz50vNM2Z2hAPmbmZ5QaVyMyugaRW6WURBxxQ4iMvGwgJjj5PZKIlsnY3x/iMw7vaQyDym7xvkqWqpHr3TG3FtEhrGXSibacgrarmmjDR/Ms+CeAp3ua2EwEbSdA3GwYJ6gaPR/t5EaMY7o5Pz1glNrqC8NJ59RsdLgYjyJqf6XfFDMQEpahwun3kD4QX8fgYy6YrCheHzcW6mVGfSyI9R6DijLYJyBEZy0R0/wu+BuPRBoyOpy0XoWrdbNb80X4rcKBKwSAKzZQQ6cyfTovXN5GEr8v4pxBmP4zA859niNv0aMicgnZW5fKFsx1+hZE1w26CaljaVY4ZNuA70YdXQnMyvVA6X7bnc5SPbk3s/jhEmvKkycuEgl9sYcFF3OzQdzgBuuF+2gTQu4HloRdXUqkrtBtF6t+yF6y36wQ5oYXStAAE+WGp5EbSkfyk1MI80D0N6r+uurZbAOCtJUxJE+gbkn2CjFsBugLig/9Y+nOZ3mubJKJCYVq5QQbPCMvM1oMC0J7PX2auwYjgkq9AeXtXNsN1944TIYBrbQ7nxsYHAKWJOOQcVjo2GDYTT30FvXoce+v1EYIQ7/2ikscQs9rWVmWXFvNGGh/zib4agM2LHoiZHkblRCYER1K64Pi+n+TEgfkFauMbJGzq+khRy8nBMoMw5QB3gcv2IyRumweK6vgN+U15AuFyiQ7kcL2JeaOcHUzPZshxlPl47xzDKjoHx03XZ/8FzbbFEYQLj63sgHaanZZh5VTsKreM2HgnD8R5RjYnQHYo5Zod7VQbenzI0n9FxGIdWrvAw1yiD8pTIoHHRXNRVCf4fzIwonp3lyeemHLOVTqvKcfwecy/bD+QwTrJlFZSOM/RZhojWlHynbZKs6HtUCWMmx54679XxqQehHZXc2w/XXWhI3SQampLQwjbDDL0wynSkKdg1Uf7ztZREmscgojGQkVtipCRGYoRpCRJdGvUxXZq4SO8V3BuxzVEt1He3CezvdZhFw2wEyFgNrJS2YjIElY6ZzcXEIxccaaXYHs+/xZgJKEBDMlwXWGVjDAxWOI6FsTCDwuO2K/QL4uZuGoeLczN/00qnFQBh7Aqmw55yx4IERp+yMS+E0uZOA97NQySwJwtk8XfSmuLFYD5z7aaSCPKX5RCURzgw35l3jr8QpsZ5Msov9J9KQMMhOTA9xlOCwvP3IzA6Wzb9Ds+zwdQJmx5DcJ+Tmad7dplP15lGy2usHy63Dy8yr+j17mbXG1mIHzxzIFeDrW9BB8bnJLFRbjI7sWAiwW06OVfXGE/rCjSd8Gy6foYP5pyacYxn0+NR8woh2dwoyYUcizvfEAvSojyz2NrPfbeU63ONp/0slcH31HxE4G+STHCO8ln/k9ku3HNNbm0v6zjlcRdjzjDz+ZlvKsfmncqx5/gsfP9k83KQ8U8LtNoh4PkZsiu0p4kc0wJhbIRmpQ7CIKfTemBSaqQI6CB8Subqbq0gGw7GgwBXgNgiZzM5SUCtyf4tAEzZT4G0FlATpKwwidHVAjJ9umjY6Iq2qXIwzr+NONXRZqbumdR4jCQzY9ATzUVFaEXBb9WZLxeFwXENzgq6VPP9vyJDT+m3mDsx+zPI5NsQdyY0icekhhvs0bxpKeuslgMdTZN+CvdxI7fHUAFm4nkewm+zXKl65Ud0Kl6/AYjrDDUtc5Fm3szcUeAMXdK7CunNCaX9lD7PYP3MOBic9NCwCmThd2Pp2SHO7lZnfoQ8vgPviwqNXlo3GIQpllQN4GmEe1A25+iYUhQS/g1ozLM1Pdd/3AQ8f9R3IUlA3Ik1CZlcEcBJH8d/G2mjfkBD42Jowmk6G+k/hDimzFx+OyEzsWAJU42umZwDYoI2hDql5qMHmVwbm2Ej78XvzUjTNF4lLNY9qw0Z7apDNaoAHBtNIk2+g+Yf38u/Q9cNhsH3SDT9HPFgpvlval7RB4yWAT/nxx1nCToeJ5sfyclLNs/Cu/0dcs0GigF0kgTP4SIvHb8RcZEn/npTFtBaTdvhDhW/w/3HKYkWg5oYP+7MbXVYZtyxggoE84X54GQ2oKyZN8zPKoSDdYJlO4AbDoIwXuVYGEjoUWphHCgvNxAPU+8c3Lcm8Kon2eD+yVGmJIjxIpqe9m8/gIhOgTbVHvYNY4Bm10fzEnKf7pos5wWD9rh2JTSw9ThOwLMO8Jw01fgBDs4EcdU8Bxip/ehsEX1q+HXpudFLB9iIueCVFYiBg6QjqAFEDFCWAguWrhzFcgJvdhYiZ+Cq53wud53Pyy1zdjRoBjMdVuAgbf7WGcFBvCOh+2Mt2r2fLK5FLAfd57/5QPTkaMDodEb4X0eF/4q4jQeqzIHAvGV+5tJE4PNHrUkMQO2BZhkH2zlOSQ0i7EzJheV00gzKjPL5wRjWB8rl7hXcFobahQ6ik6z80brVEh2NWdfMigXu2XY8GjW3dv494nGLcRAYNTF0otzdgz5wAVhXi+sJO9VSnQmfUb8Ej/RICJz0CA9t0GXjcjx3II8+cew0ogiIIDHyg8xmv7av6fO7LTT3Dwfp7Re54D4KLDM6G1eDKLn7LIdk1EuAEwx4jmPrys7wDQbUwkAwd5EoEDa1wRS0l3IgmRV7vtMkBLHUc9CdRKMD+pNlMzSzcZyJtNEUMAWHceawlPd8X1p26WyQ6yFnU+ChHwRqYiRJENwaaF1PQf5jOK5hmki/MT8TGSPGjsaFj0P78ecoeVGjosnmQmMJr8+MAk3FqsZzQTTmPppTXIqW9K62MWK8A8C8OxYk86I6tqblGYQCUxAm3H643m+GFVrRV9vrZYUO6INsrF9XF0jw1zDtcp0BiOZyaEyXcJmSPdUP/NI3yOmpgBDDJMZAdwumQ7OV6ehAf1pWcczOiogRYweDGrjrr9GxHJKREpGugbxsQK2PmjZn4oIxMRKgm1kNEqt8A8oYJUENCORxE7WozSCJjkny97cn5Gf42hvkm+H968MAYV0NwtHPrwVEAwJsRagOfLkg+0/4nyolI4D9sMdrlMHZyGISY6BGxiNJDMfuYrKNEWPHgX5drrdATUcOpAeExO2jE5n7oZ25IKWzoWWdAu2KX/PhmsQrYEo+imO7xtXxMJ9e+3cO6JkfY1AgEcBMW8qvcYMc1kPrGs397PVavfygp17MbG4REG83aGFP6BpJSy7UjnDswn0PI/wVBPaGfkqtzKaHBOL/kvdaGSWDNTV7kHbpPQhjxNiuoJbFz5fxS0bUvtQcbDEalWplqo3xqz786hFDO35v0IH8YMzM1QXfN0jdsoGXucUYLD4AM68GJNTNWUloY10gniR3XAVRXIRrP31zfP5jtGF0T5FjQDwv0bwLCIYaEkkG57foMS1bO6dK4QRIBGaY9K6FprWxeDwsHOy1tV1pOdfeGiPGTgAHyrnJH/3NOJvJb5HSYVTHxEBiAVkpYdF9gAP2uvXSUnGy10ELOya3W0aM7Qp+pQhENY3OqTq7mJbu9pQ8AaJYgXAr/a9s1H7oSsnwngazW0VAMtTIOKbFD3jwd1uZhdoBqNUhNNCM5P2BvHCwBNaLNIfb22LE2IkgCemsYfMRILCTdGNJ/Tapn8T/WhxH4j+3vvmuzuxxlrDSmbwYQ0ZbvRzd0SDPcLfWQIuy20A/+fZE+byN1g80N0F242Embgk7pTKQvDi+RteLUsuDitExUfaFvFlKgBEkZrW63vYG6b+9eIwYOx00L+nyQCdgbrUTuF3E2KkgwYDAzu+aLCtpEpJ8SGQgimUgt8hxsAAr75LdoWVNX1tEOgGBwSQ9v5QrRRSg1e0PLXAOZVFmMYHhuBYyo/emixEjxvsTXGgN4qjtgklI7Us94uvl6XIERqyfKvvi3pkkGEsyxpTk77REf5xnAKxukC/gvhlIfxs1O8riTKTOdqaki/v526gxYsSIYUAXCJho3Hhw5aYHZEvnJKnvTVX2nUYQy+dw3wMIW0k06qWflq30G7NRBgX6iLXXyx8ho1M1QhAZSQzpTI/6CEmMGDFiqCbWXS/fgPmWhBZ0xGDMP65xBMGMheb0JkzAdThOjPpsW6Wg5/+aevkWSPE2mJYLOci/KiX9vzYfI0aMGGHwC93256DAbXQ6YFL21stXuCU1t/Cxl4YMLlPiLCVnTO2pGDFixPj/FSL/D9aN7eAD9qHtAAAAAElFTkSuQmCC;" vertex="1" parent="1">
          <mxGeometry x="320" y="640" width="104.83" height="20" as="geometry" />
        </mxCell>
        <mxCell id="vTKi8_O8plxyPCEzZ5Qn-3" value="" style="shape=image;verticalLabelPosition=bottom;labelBackgroundColor=default;verticalAlign=top;aspect=fixed;imageAspect=0;image=data:image/png,iVBORw0KGgoAAAANSUhEUgAAAQEAAAAuCAYAAAAoYayqAAAAAXNSR0IArs4c6QAAAARnQU1BAACxjwv8YQUAAAAJcEhZcwAAFxEAABcRAcom8z8AABn4SURBVHhe7V0JmBxlmf7UVXHFVVdl0XVVcMFrFQ8Ed9eTRREv5PFBd11XXJ71QpEk01XVkwEmgOyiK67nqjwgyALJ9EwCxCQkEAwSkpk6umdycIVwy5VjzhyTw/S+71d/dVf1dPd0pycJI/U+z/dMddX/f/Vf3/t//1UjKVKkaB3DPXL0UE5Gt98gxeHu6SUmCylSpGgFKQmkSPEsR0oCKVI8y1GLBEbnS3HsGSKjPcm0RWKykCJFilZQiwRGYHgj0d9DKFFa4mmLxGQhRYoUraCSBLYtkOJQl4wPd8kXtt0g78S94w+lDM6X44Zzcg7TVekRmCykSJGiFVSSwPaQBHbs7JKjTJBDjsEu+RDTxSFKSgIpUkwxapHAWLe8zQQ55EAaT0lJIEWKA4Q/XRJoy79enOD9YvV+QrKFT4jtniJt3nsl677ChGgNZ644TM5ef7i0DbxYpRPXncXnmqdNoPicssjE66JeH3zMCl4pdvA+sdxPoey+iLI8XdqCk8Ty3nTI0pTigOBPiwTO6fsLGPrZaLwrxMk/CSnKeXcX5fx78Xd9EQ14j2T7N+J5D559Ts7IvcDEbA5tq14vtt8nTuEe6LxbpeOue3DvRyZEY7D8/0G8POIFtcXj8z7JuLdD5iHdc9Qwp4rMKkHdTgHvKTyAfO2T81l+94TSvqaIshtCenyUY4fMXP3XJlaKaYypJoGR38grtnbJ2zdfL8cP5+Q9I3Pl2IeuksPM4/1CYyTAXj9bKMgFMHg22NlosCQBO4D4uMbfbKEoHeuKGqYDpOAU7hTH/7DR0Dgy/tflwgeh465QD6Xz/iKMdFhm3/1qE2py2N5yuegREBT01JWYIVKYh/b++5H289QLmQrMWvVm6LxJZq815YN3sLyi8tMyRHm2D4Rp6tzA348hz180GlJMU0wFCYxeJ68cWSBnIf7CsflyP/RtG+qW3fi7e6RHto4tkAHcv2J4npzS2SlNe8yTk4AVfAA907A23nijrSds0Aw/e80O9H7fMJoag+Xeqj1kQifeS2PNuF8xoSaH7f1W4yT0NCAktIh4nP7bZbbfOPFUQ9uqD0LPE6Fh0/CrvLOakAxmr90nbb1nG00ppiFaIYFcTp6HON/aNl827luMgeISKe5eCB3QxSU9yo4bpbj3t+GznbhG2OWb58lHjIqGUJ8EsitfDrf1vpAAvHIDZY9VcmXxjH9pcNn+chgKez4alOU3RgR2/i0wwjH0mkk9FL7D8haZkJOjGglEBp7wBGhs6JnVs6kIO+cBEs8S6VzxZ0Zrc8jk3wHD36xpT+jmUArvTZQfflemgeWX7d+zXx5VimcE9pcENl4jR6CHX1CE8e+BkXNjUdxAqwl3/5EMdtwg44NdcsHTOTncqKuL+iRgeWfLBfehQcY8AA4F7GAEzy4X2z0TPfcZMLgMDH0JGvF42ItH4UEcdH3ZmB33g6HSOrD6rPB95l1xIfHY/ohkvaNN6PqoJAEateXtgqzFs3xJLL+Aew+HwxkQRPydkbHa7ueN1sbxteDPobcvmR+UB8tP8+L9DgSTFcf7Eq5noByXKImGz8rhlfxcT85Z8kKjOcU0wv6QwKb58moYZF9x6UTDpNADYK9PqXyOd6lnQM9hyzw52aisi0lIwF2oPVXUiNlAs+jZOEdQDW29J6Ih36JEoPMEaNSM7/Qvlpmr/9aEqg7O/ltuX2h0kdFUiOryzzEx6qOSBEhEtveItBdeZUKUwYnANu9UeCJ9E4iARmx53QjV3Kw95zY0vTEC5eSfUxirOaxxvLPwfG/CoyIRMU0Z93QTKsU0QrMkUMzJCwZzsqy4LGmQ9AQ4FGBPP9QteyGbIFup1/T+SgD8uwvhRnPSvh66jNq6qE0CnZ0wSu9udZWjBslxre3OM3Grg8t7tn+VTu5l+/+InnaOfKgBd5pLjE5+dzhhZt6nRhMzotCobzcx6qMqCfiPwpiONCEmYgbG/3bwoAlr4iH/lne/nNv/MhNqcnSqF7AmQWg0ZuqdNcm8huV9d8LwgfMT9BQawTcxhGsbOEra+t6Kdx0rM37f2pxGJc7IPQ918jrVb/UeI86tLzVPGsfXgufLLO9vpD14s9i9HAK+Ts7Z8Mz2dLhawwle1m0TaJYEhruko3hzcj8/3Xz27Li+e6hHLJDE+6HjKIQ5Zmu3nDraIz/B9Qg9BxLA1pzYRl1DqEMCMFzLfyBhEJwbaGRczkq289dKNv8Fc2dy2N7FCdeZRpPxNiANGBMbItC5gmCnZHrfYWLVRi0SsPKvMSGqI+P+XC4g2Zl49H4sf1AbbaNw8h/U3jw+xlfD9paZELWhewi8J9WLIImwTNrX7kEaboW3VJ3ZZ65+Ecr638QKulE+96KOxsIy83ZDHocnthzken7doZTtvx1ys9gFCP9COtYvhc7P6vOz7nwJ9MyEp3IHvJxBHfJZ3jjyeRd0X9rQsqrlHo90XYY4q5CfLUjbPgjLdyt0uLj/A7FXVneTs/AkWacO0meZ9J1391KkpfoKyiz3U9Jx11INp+GDMG9O4TgTQpR4bP9nKF/k04RjHMv/TxOC7eGLGtcpPIX3j8Nbe5d50hCaIQEaNgx6cPymsiGSAOgBQM+Ph6+Tl5ugE8Blw/GF8jvOBZhbDaM2CXAzDdfS4+4xZ7fb1+xAr/3vYfQpwo9RGZa3vvQuGo8T7FUXmGP2eBpoFE4w28Ssjf0mAZARe94oHokn44/pBqlGQUKL9+Yllx7j/0Zgub9E/GHEvQ262pHf90vnQ4eZjU5JtK06CQYUlAhDlx8NAdGr4hwE08Jnswc2IS/VewnL/ScleRKghsf1dx9l+r+O+v47pGGNeoJ8RmJU/XgP83XhAwgX3KkEVg3WjS9B2B9BdqoO1ks4tAyF10w/y719YFD3o1SibdV7pQN1GKWBJHnJ4/SQygYbhxWcK5c8FoaL8s+8Zf2PmRDQuezFKN+NupSsOiHfRRzLu03OXnE48vSbUrlyL4wd7JF2lEUTaIoEuuViegGREdIb+OMiXPfIf5sgdbG+szH3vxJ1SACwvF8mDEKNwjQAO7ge4+uPioUeolVY/kegF2Nh6sU7QqNfJ7ni81DJPwtXJ8z7WSkZL69uaT3sLwlY3k/DYY+Jp56Atwn5rB8vDsu7MZFm6rC9rTK7v7ENQHbfayU7cKz5VRuclG1fs03fFR82qWFFE5Cx+ywD5s3yrsBIMkkolvch1REtY+p1fh+IeB5+bwjzE9MVF4ads5FkeYnRVgY9BDt/mz7X9ERxUNf8TdH2ZO5z+MU6bqtYUbJWvxtD0dhwEe+kgVte9Z4v438zMUnNdzBvTnCSCREO22y/P9HJkES5x8Ry52pZRe8L/44fKBLg+B2u/VquBERGyGvE7eM8gQnWNDZfL6/ZOlfqerH1ScD2T0DB7UkMCaICYQWEBcOdfZeDef+1KZc5Dtv7ibJtpJ8NzvK+p89muaeEm5NMZfKdTh5egv+P+rwWapHAd3r/yoSYCDZYJ78xkV82EMsfaHgsqMOoYJU25JIOnVdYK7/CMGmq4PQdhzIZTbyHor/Vzd6M32P6WycazYoDy489otWX9KYqSUAFcRie5c8yYR2xU4gbTSR8D+dBOovJ+Z+Md60SQFR/1KkrJBDLG4QMqe6QKMMwumTrj+q8Q4SDRQIUi++hN4W4fB/rj22S99obGIrG0CgJDF0v74InsDMKx2O9HAbAzf8XE6QpDN0gL4OOKzGcGIVHMQ4DXzzcJVUn5+uTANHmOuomKUPGCorCguV9MiYr0vKGUWiL4HJ9A+7bEUZDfdCTsLwHS/pZ6Fwbn+X9Q+l5xt2QqCg2xogkaqEZT4A7AzmOt7yVodtn4lDUE3J/bkJOjpmr/xLx7ktMqIaGemtVd35/YbnzEx4LRQnLuwUEcRIa+Ct13wWHJiRNJQITTusKBMGJwwi1SIDGqeUIt9n2foFwFyHuykSvTlGj9p+SjlhHYHun6v2S4UL4bqfwBOr0K+oZOStfh3H2t3BvpKwT6bjwIealu3Rm5GCSQGT8bPe2vxuyDvF/B523w1utv8pVgUZJYLRbTtMlPzMhOI5rkMKTW/5PXmuCNAW841fF28JlRL6zuBx6c7JiX5e8yAQpYXISILjrL9v/VGjsaNxx961UcLjHSozGYNnCoyiwDh1b1YOV/4yO9SKd2qO4BV1liGC5P5ULtEJC0Z61775wnFwDlSRA/Za/E43m95ClkFvwexl6quV4fi9kn25VjsJT2IDt/B6k8XijdXJwhcHyHjOkE0qYjptMiNbRVngr8rcrsalKyy1wq3osljsnJCJjEBQSacbrNCEQpgoJ0BC4pGkHnUpuEUialfNFLKuMvyVhJJbfk/DwlOAHdklb76kmRBkZEAHbDcOzvLIDQ/AGfl3yng4mCZAwQ6Kci2HJiWbl4jk6BG3ygFejJDCYky+bFQAVDgVwL18MpGnvcWSBvAIG//Su2AQj9xZwjmFonrzbBCuhMRIguM5v+99HYT6o7hwJgcaolRJrXBQ2JpIFe1EnWC2ZO99otEyE5f0mMX7WoQAabRysOBJMRBQR4djBKSbERFSSgMZDumgMvB8XVnipcRmhfjUU90KjsTFwCdJ2H51IAkjPVCHjzgp1xho431frrEG48/ORZJpICt6dJkQVEsC1GlGN/Dvu90xPGUro3m+G8YV1rWQIz4BtJQrD8JZ3sz6vBA3S8nrRpuBJ5r+mB8niOFgkwHDZgd1Iu2NCtYRDQQL7QAJ45+aqJDC/FRKI4AQvFaf/dDA3XEP/Lu0pWbks8HgvogWKCpijE4sFbYiV4MYdy0NDMY1Tx2GF7bj3JhMiBNmX4814T92pQ4JfmhATUY0E6goNwJALx8ycqKw20TUZWD42yiU+fNJeGh7IVB0TttwrEj0s08wDVvaa2q5jBp6IGoWJQ5ImMWTXhvVSbWKQ6c4G1c8uODC+eiTA+SR6V3FyDY229soOT6rWwsEiAa0rd6UJ0TIaJYGpHg4MzpMrOBzg5iESAIcDSMfviwtlgqfYPAnEwSWWbP49aIBZEMPtpYYTFagWPu5xYsh2zzexyuCWWYZnGIZlZXACLeO+M5z4KoTCsS3Hh3GjJnFY7mPSuaL6Jp4JJIDxLRsCPQ16MQkBUbFBa0MOYEz5BdKGcfX+gC6j7d2ReLcOX7x7kNaWjnyWwLKIe086/+BtqGtEtndpggRIHJY/okMLohYJOMG5+rwS9BDqkYDlf0LfwTJXffjLcsgEjR8Ci+OgkQDicLg4RWiUBOimI9x4FC6aGOS3CE2QpsCTh9BzzViPbB9bILugb9mm6+QY8ziB1kggDt32638EsjLRC1LUuP310rk+udRhuTcmGhIbHvf32/4o/m5HwzXiY1zq7yiF07CmUWWDM4y2JCpJQBuPtw3p6MLvKyFXweCv1nGn5f0EMhu/P6sTVa3CdpNjYR27493Z2ERcPXDHH5dgbf98EOWnJ/Twtr8wUW5KMixfNOpaYP7iJECvy/LHdadm+HxqScAOPq/34iSgxNPEBrI4Di4J3GJCtIxGSWDDEnkhev518SVCngHA2P7O4grZvwNswGCPvH54gbBOanqhjZGA45+GxvJp86s+OJvvBK42oKhgw15nLDFz7PS+Ac9iM8JG2Ph4j4ZTkliPEhc1NO96ozGJShJQzwHub73ecqrADT6JBkiDwm9OfjUCq+8suejh0ENho3fym1AH+ZLB2m4u6Qlo3u7fL0+AXhYx5STAlQHUXZwE6LG0+Wfq82bxJ04CBMJdUrlZaO8i/O2W6huiJmK/hpv1SYBbNZ3g1zoWd/JPNbwPgKcK1QBNBYS9zk6x+8sZ5wlFViIbW1QBDMfGpCRQQ6KwlLDhbdVJqEpUIwEuEVYLO9XI9p6IvGM8HCMuJUUv0C3Vk4HzB1Ha2XhDY9sjs4I3h8/9yydubXaH6m6Esr0bEiQQzgk8LOea4dRUk8BM/wSkszwnQH066Vtnwi2z/siapyVrkUCmyjCTsPz/mG4ksKlHjoHhjyS2DSO8Dgu65bIHclLznMboXHnL+CJZuqVLZppbDaM2Cdi+DdmsvS0LnhXu+HdIe53NNhEy7g/DBmIqQBupN4z75cM73JoZN9KwckchT2tjigs3vnDXnu0PaWVGcaKGmnG/arSWUYsEJtsxOBXgsIfHiONGEqW12txIHDyePXvNvkQ+2diZnwj0KEIDNboRVvNX48iz7sVwHwjnDoxOlg3XvSNM+ZwAyrn66gBPZFZB8TmaHp5F4DAoS6+n87mlvRXVSICkUosEMn7HdCMBYjCHgfXS0AuIjDF2gGjtSE5mwDM4Ud38ufJG6D95eL78AM+GePKQE4Fbu6SpD/nUIQE0Op4EjAqHwsaYLayTtr5PmvgTke37GAp7S6LX1oL1vdJpQtt9G+7v1J6fzyNPoc3/sI5/6XHEhcMI/g3jPWQM2qSJDdFbrHrjOJQkQGT8L2va4sbMfGYL+3DdIZ2PTxy/cxydLQwnDIfx2UidvtNMKO5sPBb525EsYxgsNztVO7FpuW1m73s5fDhnUT5HMNUkQFj+/MTcSJj/MbSR95gQZXDzEOc2qJNxZq8ZB9ktVgIj2hDHcveUSQCipBoklxw7VxwumSCLchst5YUyTUiA3wsEESwnEcQNsnSUGGQw1C27oPNpyJbSh0S4mpALNwfxGnG+xS8TGbV1UZsE+Fktp/BkaEhmO6cWEgpMK8LjNwTn4O8/owJPx/U5KLxuFPbOsBFHcdCYOANv+7PMO0UcN5toHKx4btppBNWWxyx3u+5jiONQk4BuH3ZvNXk3gjKhIbDRWf46sYLLcP/bkA6U3VKU3b5k2UG4FJrBs1zFWYmMf024mzHSDQn1dqE+3qlfaCZ5ZvpmoA7GE4QRTtxuThyKOhAkwHkklnvccHUyN78e1x+F7pcirUcifV9F3kdURxRuDjsg71o90k7Yq3nKcTyhi2kMO5IbIChH71Kka53We2U5ThMSILjfHwYZflQk5hFEEv+oCEkg/oxEwENHnGAczUn1735UoDYJEBn345Id2KGNISokCiuC99gI6B2o4JoFGFZKWdhQLa9fK5zgEhq/lBPpZEWGY9Vv6/PJwC/2srFEPazGx7vZ28VxqEmA0PP2hYcTpBWlmQ1Py88IyyPewCm87+SfTuyhj/Ad6s4/qWHiesNGzBWVe1EGT4RGxzoxBpEFGTBO5STlgSABdfHdeeESMfRpWKQjJCGGvx9/w41VSlJMI+Q85jt4TL2/CNzPoNvLYwZLidLJtFCoW+ua75ueJEDAIzhybIEsZC9PD6CRz4vRiBke7+JHSC/afKM0dLivPgkQdP31Q5mcqa4w8HrCsKz8bP89pRloQg8lxfayhz3UqC6LNQKSieU+XGpIFCUR745Sr0E8E0iAmIGxbLawXssv3hvXEzZYehDZAggg1mgrkVl9Mspxs4aNSJHCsmXDZp5pJNF9enEsk4z7faOhjANCAkDbwBF4vnLCKUISXmSwURr5l4TJIVG1fRqWd5l+9zE+rIkLy4DxLW8A8r/h+yLd04sEiOBX8nyM/c9Fz/8whwGcF+AuQOqgB0DhHAB7fRo/JxS3zZc7tnTJR42KhjA5CRAzvKOlvf8aNK5dWsgsKFYeGxsrk8LlIN7jM61IhG0fuHqC0dnuz/QceMTcen6bX81pYjddxr9SLvlDWQeNQCsyeJ8JQRK4TS5+tBxG5zd4Yq3B47xTibZlR6A80CjNsd+o/NhItfxYdjAiGh2fq2H0L4Y7PfmxVX5gpX1gscZX3dChuvGb91guWgZ4Rq+k2iQqkfieAOsQ1xc/QqOxTIgk6Hqz7hiWQuPkvgOrMHFDClcg7DyNcrzcfkAAiTTifUxntt9H/VY/IcpDaRyGklBKZcj40KV5R3yn/1b9ND2/ecHvIahe5gfvrfY9AXojXI6N8sE2Y7mrTIiW0QoJRHg6J0eOdss3hrrlZhjqg/i7A8au+uAhDOPeehDC1SNd8kkSh4nWMBojgQj8Mky2/79QcH1oHH9AhWxHxe8Fg+7FPbigAXpavxcu56WlNe04wt10P4SOpdC1CNeLwmvvMyZEY7D6PgDSWYz4ixF3kYoTLIeL+zkTgr3GBWj0y8rP+UWavqsxVi4fhDnY4Nd7sv0XooxWwSgewe9R5GE30sdyfApjZQyb8legHGufiagOuN06IfsL6PShj7q5yvIE9GH8HdyE931dx9+1oJ/68q8FaV8X/vWvQz1yfuHjJkQSDso6u4Ybr65VcYK5kgl+oT1/LXB3afvA95GuPsR5CBKl8S6k8Ub8PnPSA2c8yMR/EmP7/Mcxj6uObP8G5A917H2ptMSY8egl5aAf+fHC/GS869EJlY2PYbk13MmH+eCxZ6fAPGdNiJYxFSQQx+gSeRX/kzDH+zD6vx9dIG958hpp6f9jNEcCcegx0L7jUHgniN1/gn5eu9Vv9D+bEB40ehuM7niZyS3SvW/QycSpAJdxO/qO0olBfnrsmQieG2Ea+X1BuuXNgucw+PGVDgwjO5v4/uNBxlSTwIHA/pNAihQpJkVKAilSPMuRkkCKFM9y1CKBHT3S+IdrDzBGu+UDKQmkSHGAUEkCXNYDCezi9t+hHvns0Dz5HP5Wl3rPKiUetjJeHT2D3XLaULdczHTFtyqnJJAixRShkgQi4W+u8T8ThDsQ42mLxGQhRYoUraAWCXA7MN1v/XsopYoHEInJQooUKVpBLRKYDmKykCJFilbA474ggZ27fxsOAVTgfleVyueThY9LFK5e+FrPKt9jrk0WUqRI0Qr433+Gc1KA671xsEs2gBDuG8zJhrgMdYf39BnD4LeK+R0PU02isKU4VZ7rtdFV+azyPaEO2fD/o90itw6DYEwAAAAASUVORK5CYII=;" vertex="1" parent="1">
          <mxGeometry x="320" y="670" width="111.74" height="20" as="geometry" />
        </mxCell>
        <mxCell id="vTKi8_O8plxyPCEzZ5Qn-4" value="" style="shape=image;verticalLabelPosition=bottom;labelBackgroundColor=default;verticalAlign=top;aspect=fixed;imageAspect=0;image=data:image/png,iVBORw0KGgoAAAANSUhEUgAAAX8AAAAuCAYAAADA4RmBAAAAAXNSR0IArs4c6QAAAARnQU1BAACxjwv8YQUAAAAJcEhZcwAAFxEAABcRAcom8z8AADIRSURBVHhe7X0JnB1Vlf7FEVFQHEVRx21UHB0HHAcdRdBhRBydP8qokJGBEVzGyJaQ7lf13uvuQLNHdsLi37CKEJJeErZMIIBEIOl+VfV6yUYgECKBgIT0lj0k6Z7vO/feevVe13u9pElY6vx+91f1Xt06devcc7977rnn3lIJJZRQQgm99pSfpvZ+4TZ1wNoGdWRvkzq1t1md09ekLsR5bXejOnnDPeqLL/1B7TdQr95mbimixkb1V/2dar/eBvXVngb1S9x3dl8D7m9Wk/m7a4Y6vH+u2n9gvnq7uSWhhBJKKKE9Ra/cpN7TPVv9R1+zurO7Qb0AwO8DcG/saVKbcdzc26g24bgB13sB5p0A8gteaVafH0BnwftXTFX7IM+XkeeK7ib1FPPhd+H+JrWpB79x7MP1Z5FueqVJfZsdiRQgoYQSSiih3Ue0wHtmqaMA0g/COt8I0O/fdJcaYNo4Ww1smFVI/L0Z//Mc+V4FgK/hyKCrQR3SPVNdgQ5h7fpmtZ35yt1v/0cnsBOdwXqMEBo3zlSHlhtJJJRQQgklNMZEax2gn4GF/uImAjPSeoA0gHkAlrucR8EbwB5es2CO39vAYx2A/FXez//RMUg+5i+6n9cMD57L85pVP56/el2DOsWOIhJKKKGEEnqNaGmjegdA+FJY7hu23F0Adh4tiAPQdxpwZ3oVqd9eY14mntOat/8R+NkpMOH+fnYKcr8+7mQ+Xot2AhxN4FovynIm5xxMERNKKKGEEhpLqq9XbwPw1gKA+wj8FoiNJU/Qpm8+DzC+AamuZ6ZK9TSo87qbVFN3g1qD/NsI4rbDsMla+jjfCh4rAejTkf8cnKfoHgKf3+P3Ms4f2FEF72OHwXIgf3fvLHWCKWZCCSWUUEJjSV0N6nsA3Ge33auBlwAswA9Qx7V7cDy6u1G9d3WDehddMZwX4Ehh4F61L/7/BFINAP1547YJgZ8JncQKAPgZa2epj6yZpva19w/k1d794Nc7R70PeX6E+x9F2h7tADajAwDvlV1N6h9MURNKKKGEEhoL6m9R7wL4PrD1HoC1Ad6NOAJ8N+B/h+BsspYlumbQSXwdlrrHToOdAMEbwP1A1x3qkIFG9Vcma1la36A+2NWorgSPLXy+7UBkFNKgbmHHYbImlFBCCSW0q9TbqE4C0K4l+IvFTbBtVjt6ZqjqVbeqd5psw6KuWergbnYAd+F+dCgvz1CfMZeGRf3z1H6479roCIAdiXH//LPJVoYGBvZS9aveqdwF71GZ/HtVfcdfy5G/q1repcY1DtkDVSThP/+dYSLP+qXvMFeHR/UDb5N76hvfoabl9y6bxiPVz387HrqXufO1Iz4r1bmfqs/tr86CzJgot9Pnv3vE75fQG5Ool9S7ofQyLlFHqEO7Q1cTGjMaGFB7Aazvsn5+JjPZOuPlW9WHTbYRUc8sdSjuv3Zdg/qC+WtEtOEe9aHuBuUR/Fke0wlwovlSlDcm/LO+HoDaeaDK+P+t3PwtyvF85XrPqbT3MtJq5fh5lQ7uQPq1muR/WhR8NJRq/Rp43Kxc/ybwvBHP+r1K5aao+vwnTI7KxM7HzX9TuW0X474LweMC5QbnS7LnPDJl8ufgd5VK+yeo6oX/pM6a/9e6gY0hsQNzg0NRJjzLm4v3Wo73ewnyexlleFo5wR9x/TKVbTlajX/oveauhN50BNDOtP+j6J/rX6iPEV2slJgvnf8N2tlElV08pItgjxHbfGoeDJz8vpLk/K1t2KxtVp+F5b90+33ayhYffZPaAuv7KJNlVDTSEUMpdc9UJ6M8G8V9hDLRDYTRwJI195a6fias2Ec5uZOhhEtUJtiM406VaRtQ2Y4BVdOJhCN/u34/lHQLjs8D1C4CAP+N4TA8olWcCaaC104A5E7w2Yln8LwLQH6myVWZqGwZ31W1i1/FfUh++eQG23DciuMm5O0DID8hDe0s/3Nipe0que2fhQxuwHv0QC54VgCZtRuZIVF+mTzklt8OYNiA64+pVNsPkpHAm5BoPKWDE0XvMm3x+lgp1S2FvvqLVabjbw3H1xdRZ1O5X6L9wMAJmlHWJqQH8M4Tx6QtvUGpt1n9BGD/klj+AH/66zESeHDTLPUxk2WP0Jrp6gMA+2c4ChHXD0cjjaqveOJ36tx9YHGcjUpcL2AlgAWgt4lgVvo7C2DLtEPJ/VaVXni44TQ0ua2fxbP+XPQM8qsFv7R/97CGvFTCrF+jJi/TZZXyDJWQT8CY552vwtpCJ+D/ZJdcWNnclwH481XN4h1hOYpkZH8D/Hm0z6ec08EUlUlGAW8qIvhn234qdRzq2gjS2ctpXD0FgP2U4fj6IrpnXX+qlJNGThqG4DlP8XiHOpKu1bcm9TWo8wCum22cvYBtszpnsIW9e8msOWhCx9TP0QjLB/Df1NWgfmKyAGyzAEFaxbWLUJEAKlasBbF0sENbJjgKqBG0TR4qLJXcJZDmvim+/Mq0FyzgcSEYigKZVLeExxXoGIYORxLLP8jA8sc9pixM5MvyDEqmo5F8yMNy6+c9jXf7seE6MuKIx81NV5OXan72+fbc9bfDOtou57ZjKC4jO86p4oZK6M1BBP9M23/reo7qN/XCGB+VEoHU9Z8Wl+rrkQj+af8aKSffj6n+abyfP/2tDP7dDepW+tTtSlvZqmGmGmcu7zEaqFdvR8d0AToAWT/AhI5gc0+DcnWO0xa/DwqXE+UMgR9H14N17LUDZK9H5V4AoPod/vORd1NY8VbJ6wDCcm0IF1D2cT7rVowY9DPCxoHE57vBBvDJmNzlKRb8eUQn5QZdeMYrJq1D6sZ1WNq4ZsvMxOdz5OB6c0YFwI73MzxTW/yWZ7qtH89bC5734jgF/03BcTbKtBrP3i4dgH3vGnS0WcrRNxWR0BueyoE/XZuuD932eyumuqU4oh2lFn7ScHx90SDLHymx/FVvg2q2k70Slw+QheX/XXN5jxEndgH2VbD2t9DqF/DHOSz/C3UOp+UIVN7GEMQIUK6/DeB2qco+cYCOyAHYMvpHIn78Y2GdL0DenQLiutPYifQQRhCVLRZa9QTHaMOIdjgERNe/XxpRJYoDfwJ52g/EB1/V8v4wpToPRKf0FYDshbi+JrTAmaTT8l8Ej/80nIdHthGI4lteMpJYBF7f1RE/lBkSJ8TOxDDeDS5GWivyYhk4GmGnlPFSQ75vQm8MigN/6qgbPK+qPegF9CC7+NPKCT4Tm6qWHqQyj39izAMSxorGNb4D73LVIPB3vdtx9S0bofS6Bf96gH+jmlQK/ugQDPhn/F+gEreGoMjhp+O9qGraP6gzxFCd/3HkvR2ADUvX24T816vTvQ9X9J+zYaT9n0ujCMGfwG3Am6kWAOr6z6ps8DVzVzzFgv8TvLdFOqg44j2u/1OkLeHz9TvjHQDMIyE20HRwl+5wwIcdV91SPv8Sk2Mw8fk1wfEo70rk5QT3EqTjpVMtEENg364mzN0n7Dx4Xk6u/N/ms4nAMZT7zYby1i99t0zAT0BiOCon/UdKLIMO1X23cpe/R478PdK5FE4YSqe6ADxQHuGV31c1DoyMD9/BvpfwIT/wIXANmygfMXoK8rF8KgFzOfBPB8+KUTJaknpGfUkdmffiUSJtRmFxM6yUBorlFcqojKz5P3VLjD/vuhjL/07IZV/JIwmyrjwBXCxfSUZvhmMIlbYRSSVy4HW+F98zTheZn+8claeEZEPOI9TdQW4fAG3Er77HSHYWbVQXlXP77AXAOgtpWxH4pzxYyEOEm9GKcdEBOLlfS6UNRdXzP6Acv0mDP8BSGgdGHI6/IlQkPfrYDJ4XmLviiZUdD/6tFTuts1r/Fso71zRIXQ6eO940k2N4lPX+DvfPE8C3fAT8gykmRzwRdNP5XyHdhnJ8RUAmSlRAdlCZ/BWwBC+STsnJXwkZHW1yFFMmf5TkoYtJ8qPzSfmnl3W/sUHWPvERPPsk3HcLZLgQ9yxHWgYZ/Em5+WvR8f6bNJqhiHWQbv17lW47EwbEHbj/cfDMg/fjKAt+589QdZ2fGrIhsRGm2j6JkdCvwOdOvCtGbyyT1w6es6Ajk0TXhuJD2TnBf6A+fot7UBZvOX4/AXkE+H03eDIk+GjIDMZBhc5RRovef+L+mwryCSCfnA9es8GjHtf/Be//bnNHgcpa/v4qyOnvTa7hE9tVTfsXIJczUB6GXv8Jo+fFOD4Jnp14rzlINTKiHk4nQH7p4KtI5yHxXoxUwSvtteEdIev2idJJRWXNzi6dOwbXL8M7XIp7Ahmh893s+2lDRuughKsK/68aDgWifGoWfwjvdDzKfwNk+Rje5QkcKeOFOP4ePE7GKPrjFeub9ZNGu9Cj6YvxrMtx73EC+FJe/3DwvwL/+3i3maom/3lzp9Y3/k4H1chDvYAcKU+RK9oA5MxQ9mzbQcJvGAQrv56gGp3wJei+3KgG68hupAFO+DaquxnpYyd8cb4RHZPxdGS8n0EABfDXx834r1Z6zUrE3n64vaTjfQk8+0LwJ9A7aKQOBC2dAUGcIEr3iT+/osU3WvDPegeA943GRRMB7dwtJsfwSEY+Pix/PNM2AvLMBK0oz2EVGyKVk3KLI3fB34DvbPDdjqMO/5u8fDsU8lyTo5gYoZUJCmGFNZ3ICxnUQtalREVmx8Mop0znJuQzobyobybKwvV3AAA2CBCkcuUXl1R1fBTPvQzpJZVpZ9hvv65XkyQcuG0L5ALQQ/0Wj24KRIvLyaWRfxXuQ37DR8qDo66jreiUVgJ4x5flk/IPBg+C2UaUqRCYQEPG6jVDgul3Z8fAEVecbqf8f8a1PyIxLLgQ6mxddZoPw3n7UCcPqVRwTJHhM1bgLwC26DDcPxP11YX3p4xRHtSRrS9bnmw7Q5lXqWzr6RXbTDo4BPmmI/XhnAEcBT62rNl2LWsXBgRHByTdYVwe6iTLwbzRxLBwq6/ZDubpQ+f/K7nfEvkR2Amy2Q7K19RTpAwS9t1O7HlajIe4OqIBxXVBbBf2mXVLcZ7//2JEZILJ+O8V6OV2gyU55bR9Ue6VNQreRDwb8sK76nc2eoI6tmVIB5B38BecTxVDb4iOFYA6DmD/YjTUE78X9MxQezRkd+Ms9RGU7bloqCeOvfxYjM4xCRYoGwVf3lamFgIAwrsdwvxXM5wffVw6hefmT9cTvaxweRYqOVcrlk06QGXhfz5bN5bn8exvm7sH02jBn+DK+GRtraAsuFc/73cmx/CIipz2L1fnPKn5SGLD7ODE3nKUrUplMMrQ7obhdY4kAf/gPlW/AmWjrJAYTeG0XmRyFFPaO09kqcNuIQN2ZLCY3ZZDTQ5NVavfBaW/Co1vi+QVRUd+Hqn4FiRt3WQ76Ap7FPwHR17p+noYebZrXuSDZPlYXvIfePGZXGRX6lJKLTwQZZ0BXlv1PfJcwwOWZfif4e0C2N22qkF6KB1xrkU/E/nCd8BvC5aWnyRcEwDMO0WNumbh5/EMAlPh/iI+OGc0nOUhfDxO7p9qOJQH/zRdmbAkh0Pj6VoBgDn+OtzfH5YnLD8Sf5O/fT+CHNtMde6/DJcIASwzuaPwvktwT7+UW96NconyM//piD92bhkZKbLDdf1r1bkrdV77XtHE/4QX7q1bxpH0TnSkp5sC6A6EC9kybZvD97H1NKgM/I95Omk8XI1732+4aBLwD6ZLu2B+0Xu2/fzt6DBuxrXNmh/+l5F5foEYB5SD4zt4l16pEysDW5boO9jyZDt2IL+n7y9PPQ3qUwDVJUWLvBrU9t6ZKn7Evpuop1k+97jJjkjo9umaqTq4EZzO8QsM8Z3cPboykMIKhWBcTuT6jJTBsNC7TLmt/09WAIu1U2HoXErS0HP3yzMIkhpwn0NFHSoRQGlUJitCAJRH9OZ0fZSjcuCf9gECFdxV6eA7SC/qZ+Ae/SwuWqvsZoojN/9D8OjSjcXKzCgRrVVOLrve3TJkp+VBV0olfzFJg/89RT7Vs9HBlHODpf16AQCRK/JKWTAsz/j/ZHJAVmjADkYIHN0VhfLyKIvfAISsY1pi9hr4iWy962W0ZInnjjdHNx40DpuXMqSxQIuYnbqUyfBiQ3IYzdL27XAugnJg1Bfv43WWiXy01bUexy7hZa1dXpd8kHem7V/AQfMh2DreReCDUY8pj7yfh46CnaD/IP5rx/VuycP61rrXgzIVGib12fWvkfutbmQAvOwkdITbg3jOYoySGZWjo7Y04L6Ajucww6U8+HOVPIMOaESVJrqrohYuQ6Yl7JoyxnMsOLH8YpBJ1BCOHJkYGfMooBvMHeSqEIs/yEnd2zJpWbPOdAQS60zqgPzIi6DZ9gxA79+FB10+k5/giIfWMkaH4BFNut6o85w7hE5Bvm7wP3Iv9U9b2xyZav62DHwnqWfRm63h83ldAHgRQ6XrigwoDf63S7uwz5f72FnCQOB9ci/kJqN6jPSyLQepKnS+bBtnEyfMMxitxzp0/UdRR/Nx/c+o941yjffLnF7+NuXMr7hFA7d3AMjO5u6ZBFnr+sF/N/U2qOLOazfRutvV/hx9EPAt8Pc0qR29jeo3xds7EIQdb7lWNqRQqVBBVvkkZj3PFaqrcQ6wbvsJLNsPDMuyrWr5KoSLygUf8hafof9HaSxsyAybZOO1z5WGFSzUnUwMlbf8PfD4hNxnk53UIfBTEUKQCJ/zPMoy8lh/GULmzkEnuU2XncpMviiPbbT8rYfsBI08nnMBhqZfVuPvreD2GWPwl20wgqVakQ1Plo1zLY43QfyfXKzGiTyCgX0XDZJsnN8xnDjSqMP7acvK8sq0c7QzRzpDdnIp/wTkawMP4wqCLGRE4s9WE1s/JHy4fQhHe7bj1PUOPhhp1gIkJVIr94/4fQvKDr0xOkm5clUp90wiccKTK9ItqOjrGN14p8gCOjuhmKLfHNa0GzyL5wDoUA+ccLTkeB/Gf3+W+618GCKc8Y+TTpt8OFdQw07cuxh51+B3L8A2XTSxGQf+LLdEz3EtDDqiQQn/c8sUWx6+G8HWApiUNwhQxvNExjUdR2AkeBz43YXrBF39HAHsYAVGnN8QPiTqPi1u6rltW1pGdBXdqWqCI2REwnmmNPQzlCOey9Gn609X49jWOr8B+aVgWTvg8ahud/a55I3yyRYqwUS8dxWeeQbOD5Ey0PdP3R+sf2vArx7v8kVVk/sCOr0q8Hi6SLf0c1apbKSjjgN/Jr6ftG0acwwZBy83WIzzm6V+XQlsWa+xx/LOwyCFnrF+Wc+cl3S97yPv3chD99MTqupxdO5DG7rdjbKVwtqt6ABC679Jbext3jPWf88s9XOUQ7Z2YHnMxm696IwGz8WggdDf+TASGg8Ul4KkolCokvAfK00aBq2iYBOUf4lUNBtYOeJwP51La16GRxq9a8abbHKgc2BDD9aFDYag4Hovwlo61uQopjjwF6UGD0bhcJInTABTTmyJv9coiT3SWiIoXTbE3EY5EovRS4HHiyi7WeWLJO9h5MZyUaHlP/HN9yA14vphg3y0rwn4Y8RW0wEgRjnkveVIS/jHRc8n+LCh2LJmAPIO/Z7eSXKdIypOgEbnOXRd3o9yf07yCKGhyKSi/4w0eM4jZDmP4C+QCXeCJf3qYd3Z8gPMals+aphoEuvYn4frKL+RJeVXbSbw6tGoHf/5sEHr613ipy0lRqxwdTkDHBjCHCXmp7Wq30fXl4vOgJPjpURXUbrlEOjvBHVJycR4HPjbJDJF+UoTLVE31y66ZIkh047HUcsyAP5JIodoJ0MSUM3Td23KzDbjr4VB8kuTQ6lJMOo4mWkBlTKsWcQIvUZ1emTCmuVOe9/F/S8Yw4y+e9RZvlHVLfykPFtct3hf17u2SD91tM90dQr0h/rEfJLEsGPHmlW1S7QhwPy6vOuhW78uGgnzHqflROkUbH0yUT7s+Cy/suBPeXJ+yJsh4et2U0WOqngPQ9elDkw5dGc0RZ5bStJpeifi/qPUkfVDT6SD+ueKpf0Y9/In2NL3Tx87jvd3zVAfN9l2C3U3q0+iM1oi7h7TETHB6m9+qeyH3aWBo4fkMEgWRnEykY0OysNKs4LjUYCOjQSdRQYNt9x+JLISFha33AtebPScAOMEsKVqjCAc/w6tGBYMMCTjJE4cxYF/mNjzRxP+I18BZZOXv7U/cBka/vcM19GRKO2CL4HXNXgeho1ttBg4caU7UCqlBbnCfywbLJ8cOs6I8o01+LMBEJyj/GQonLtVnfFQMQCSUlB2WnYEYo7sOLFrLVKxiDDqYzgu+WgwRqOGdRxH2o3SiXuuwvmRYs1zlMhRJq25kI+UnfLQLoZSovvAhZVtOyXtrvipXDvDOwDleq5kBMEV6dNVnX+4DiFEQx7K3UawdfPrQvDXz6Gb40YZqZGPhDLGAEWUKoG/6GBMEjeEVwz+pHTuY9Crwla+lB3zcE5A1q5gFMARHXmQv1i9bLO+Y+6A7PLjtGxELrrtZTDSTQXHmxwF0qOE3wCUMRKhm5BzgQD7IgMB7c7xrh4M/ozzj7GOWecc1UTnxnivBBQsPNDkKhC3mXG8PxTlJ0hngrmhLGLdPpS1uDAzsZPEJEZ7pX0tc97Do+vRzTNB1QYfEeufuk7+oySA63iAbRcnfqUDAOD2zVI7GVrJyBuT7TUldEL7dDepabDy5dOOLIeZgO7b0KT+1WQrQ+zl6SZhrL1WgvkQaheSjsYQELWKDaUSMJPf98aOABgW55qZfQEMWKFp/3/N1QKl0dNmjYVH3gQphv3F+fDLgr/wj0mmoRFA5LyTK4EXodEfO8iiGi3R8qkFWHLBmEN3hf8UzhldolcWsxy2rPytAasHQPyLUOHGGvx55HwN3S5F/LzT5HopMRb+NwSXedpaihJdHDJs5nuAjzSi/GoZNscRV02f9vj7Bk30OvmfQfbrCtaolJ0b7k1Q7sLvo7w/lpTJ/0gDnF+L1BPRMxz9S7Rv24wi7ESvfUfxQctcFcM9Z+H3+ZDzDwFGH43tCKhjbuAX1ZEk8QnTZbcU+tmIMp2D/48RH3CsxVgO/Nlh0W1KN1pJqlsCXfRaB4E/iYAv82UYAacDhlnOQ6LriiM3+qYL/ncpO0OnYWnbezP5bNFITbtGWyQqJo4InFVL31+2s5SR7ghW+NZ0How8jxmXFBJkq8twjskxmNK5GtxXGClQpxlEQRwhxYE/9TvjN0n7K0dsl9xpl24qe5/UdR7GK/7nwtWM9ztgzhnAIXT4kZHRMIkTqQDdOQT/6AdduhtUNzqFeONmjAkdzS/w3D7r7rHlwP/TChO9wyGZmEPvzwkTLtByvSYI6RUITofBWSHqhgygayvelZPWEhsegUJbisy3GcKeKvHE1Qs/L7HidAewsZOH5auHny/j/ETDrUBlwV8sfTbYSEKjo+9aRih5DDc9WDa5epkA2oVevjyBJxsJrR4nOALPPR8ya4dCFU+ESkPg0JOx2x06qmaswd/J/Rt+rygoPPJyVTN9xiMlhvtRtroODdgELeJKGQkxLp3beOj7dZLQUPHFb8Q5JzULSf+P6/Y9RX5/EAOFlO0Yh+tr5R11h6TzsbOwZSXIciLP8dbg9zTxM0ctVXFFtf0c+TaIDO1zivgIgG+DvFnG51C3V+MYcXeB4sBfg3IP6vl68XG7wbkox3mS5Dy4SDGMtRhw90KH9Gncx5j5Z8wztVuR70mwY/sIdSl8TgH8xUWTv6II7KhL3IWTfvzR0EjBvzr/DbzjEt1OkdfKpNLuvZngZOTRnT3z8ihhlxh5kmLBH+3ICW6WNleOMiu5QG2WdERiLFB2SKxbO6oU7KCR28ZJ6FbRiXKLRssQgP5IAP0z28xHXZgEiBvVou5ZKt5QGiNa36yOwPP+LBPPeC6T8fU/iVHIEO200uSt+P04NGz7Iir7Nghne6h8PFL53OCh0DdHqpaVwB1asCavNHRp2LSobELjkOgOgoDhiXu4gpjPKqU48Ncd0EvouW9EQufiX4PyTMU5QIs7lqLzop+UCjKUG2CkFH3nUpKyQoEIClwsRKvGvqMGQEZJ/FzyjjX468mrZwuNj7JC4hYdIyWG+wkP8yyW3fEfgbU4sh0oGZ6a9nXIH/lIQplYdrqCWNbSxLxMrGNdz/eEDf3L02CgBFUoH9cc6EgcAWwmnIcp/A8N3HtGIteixEn4TBsnhddBTrqTs8AfxyfTwfUXSwCw3zQc4sGf5ef8AdsN9U5Wv0YT9KN+oACcBDcuVnOCJyEXvA+eRaDne+vNAjfg2vOQI+fbunWdmvqIgr9MHKPOouCv3Sn3yfXR0EjBn2HiabwHZSBlhPwcj0bZeJNjMMkCO7RjXc/6vRj9VY2RG6kc+LvBreI+rkQMU3bw/jUd2hCzdWnrli5aHvls1l9W8v1OFqYNk+TDLg3qbID9JhtfT/ePAeE5m+eo12Tfpq0Adzwn4DyD+PcJ/DhHWfjR+JgQYEscwkr8tneaql8TH4kSJfocuQCFjdYqHyvY8Z4uWoiTbv0OGkhhCMckQjcCDpNRbsvLJnFX+J2DhnNx4C/DSc9T6UUfE1cD3TA82lV/Y+XeiRKtq9qOH6mqEiCJIwKDuDSC5+Rd5R1R9rOpuGbym77HsQR/Hdr6VAgAzEtZp1COkVLKvwINrNjyZ0TWcOPXLcVa/h5dH89h2P0MdHBl+USXB5M3DTpb2IxPRqgthwIkUEZ/GfKsh2w34znaQJFnGT1hA6cMHOhVzcPFjVrWb+QPg8V3HXg8hfyc9yrhY8rMc/LhHEn9y9pFQGCKB/9VsDYHT0IPItyfEsB8UaxTASThQ8DshHyy4o5leHRtx5e0/E2Z5Fhq+UMeocsFSQPm/aM2fkYK/jLy9ReH4G9lQtdKOdLfFOkO2wiPjv8XjBaOkeu7Av4kuiPlY1XyTYKXUa90n3G+QM/T2TJKfbMOOmksnFrRwCuhl+ap/bqbVCN97tbvTvcLUj/+vxH/DZ7v2AXiYq6+BnU/n2XdPBu0n39nd6O6kt8XNlkjRNBn7DbDrByGcOZhheNFx40bOnwz08aJ4YL7R/blCVaFfn9G0NBVIDtX2oZHgULAlZLlxyQKwBWOJZZCOfAfKs5/TAjKx4khrgZl2GHdMgzJ8w/ivNgFEEcTch9DvjkFPyzKLuAOa5hU+2g8+Lu58+V6KckKX/AI66AE/ON8/mL9lay+tNSIkV9N64dkp9dBkUiQd6nP3wmeBSDokL5S4qc/62Gdl67Klb2kUKe2cbPsnIRkWTlCosU6KKHBEszoh+W5jeAoJXb0zM9ggmz+JPCfgvNHoNO9oQ5K2eUdNofWZCmxfjmyYGx+NjgF4MPtAx5D3W0I9Y2pRoB9nUyUWyoH/sNZ4UvZO9yOgPVIuSDp1bN3yrUoaDOkmd+SKAf+4vPHeahrSLqNLJDJ5DiSkGhcs5P8pTRin78sCPxTkc9fT3CfbXIMppSXAeCW+PwxYqYLibSr4C8EHtzHh4ZinX+0xj//93iPFdDFV4vqWHDNu1dNfHx4Xxk0tGW2+gxAuEU+6G4scYIzrPMdOL+k51Y1Jlu5992mDgDIN2BU0R92NHgeO4EedAgvN5b7jKSAg/cYFGmrNGpROoYtth5X0Tqgz5CTNnTTFCl5sFQmDUncllbijs11aXweQ7EwXGWIaGmCheDQagvWiuLbe6jUbtAgPC2VtfyHWOE7FsSGwZWCmTysBq6YhMxqFu1EGWeUnUizJPIOWsLGwPcT5TLbOpdz+8RtGEcZuN5VAqLRhhIFfwIhfbxRfjLPEFwv4YOlVI37UuhA3SAHPpNw7+ekwZM46Uh3Q2jFoewuv8aWj9+9kKMZ6gP3EGIkDxsmAUksa0YNWT4su79d1UTcJ+VoasnksSVbxigRJMSlwhju4Fsoz0oxRPhMdlyM5mGjj07cxvGhxcdOhZ1Pxv8B7n8plLf2R3MhmF7QRNoV8NdboHTpCDHeK7qxCulIk6NA1d7foQ2Ut/xJdKFE2wjPM+iw08aKLiVp02h/XPHOeqUhVSqfOPBneOX4aYPxgp2569+mOwiTn/fSaCoNtyXxWYxEiwK7dBbBfWE04a6AP/UhDtf4XL4b72coK0cC1BHyplwdGFCVtjspQ+sb1JH0t9P/T9cPgVkib5rVq72NavKu7v3Tf7vav3umuhkgv4N8yd+6mLoaVWfl7/9y8Uva1zPg1jLSlh2t7fPxn14wRYFRQBQera7q1mNxHdaaUXAeMzgSAC1lGaFgOgcBceb1/1cUolyisjkAHQE0Ux4CpYS0RWK39yT4C4AF54lS2oYn78jFTrLV9TECFAQMkdkA457faUJefwurpjBXImCNoWe6Tbth4sBfOgp/HjrTgzWYWV6yoVVPqKQhvwj4k9zcFShnoZMW4AOIV0cWb5EE4ILrtN8T75WRFZfr8d+p0uCqn0TD8HNFoxbWE/dZKd1IjkDn5PTCMr1KF6OjgOGMB4n82LkQ2CwfXbbZMkdUSpQh65TfR+ZE7ySMjqI0yfsH6Ay/K/0dkU0csfzpHPPokarIzOdq1V+Hw/lsO0dy0+WrdKURSpao+7QCpczm/bl6ORqUsEvgHxwRkYe5lyNyRqVBDpQddSD70AFigBDsrS7Fgj+/NBc8VRhlIS8XhnFylPUdEgE1hw4yWGlchDvwbE4yP1C0KVoc+FMfZEM0jnzBh5PVlLc+p+uxGrwi+ifl7Mao5GfFYaSoB8dj0Mcq0y6QUF7rFrX1NFrwp+zsJDujvkpHtpb4nW2uUbGuUtFxdrLDcdsNpt5Z6oTeZvUCRwC2AzD+/61dDcod7de++uep/cDvOvDZFgI/eet5hlXdM9QQxhSHalykxCGwVRAKXAMK/bBczTsDSgOLIO+igqcAFB6AENeHlcmkh2acKPuR8CX4OcE0ySONRECS/tOhv9GbWshGCKU2/EX4XGYPK83SngR/Uo1/MMr3oO40TTnlXXmOsnOlMePbU3SV+DUA4xvwexmAVYd9Sn4qNhuR3yi+ftIUdH78HbWU5P3aGCb4GNIU8LkB8n8SfLSPMsyHFAv+sBq5UjHq+tEK7YPHcQLqVOy0dzWu6c94smwCPN4mdPSRFb75CyD34q0UJJoKnQZlUr/0/dKpcPM0jorE5YcysgPjitSJZuKMgMAw2KjOcZGcm29GvqPVGbAKxe3SwjUByBvkcZ2rUpEHnZG13vTIZjauc+FSD85vwvHb4hOXsEWAlRgrkAfnAsQAwbOk/NDhVKveOnwS5M9gBf0xHn50/1ro2zchBx32Sj50E/A/iQ03dUgZMYIo3PsFwLRrlv/XUQ4dFm3lwm9lcH6Co8MU3p0hnxnoF78XHeZDYr1JdBT0zRLLzu0vKP/iToJRb1dLxN0EtJdsfhyu+WG98khwTXm3F01GswPiosGofuoy0GcOKJMvAh6Pevy+cpZqd4OsgfEXCEDbe7T+cR5noszncQUuo3xo5Ol5FJ3Yvlx0XnpLD02jAX/O97FsNHrq5LvfPtJE+WKauBNlLYjeCYDRV2zDIieWgcand4uE3I6CuJUCwP9MAPIrduM32wHgyO2Vq1bNH9mH2rlQC/dejbTF8NE8uaisWb3U3ax+YLIOQfVQaioCV/ayUkIlMRagLKqRnQwZlaL9YSIYUUxbkXR73BIqCi08NgqrnAwvTHvoTYcRGcJVm7LIyDxDgIgKkYfojDWxp8GfVBV8C8/tkLJZEGZZWW6+tw4x3SbJhkhaefCoy74aFpDuMEnaQr3a+OV1XptfzhmyCkuaDURGWuxo8BybNw78RfG9c3H9VSNH3Gvy61BKjvJ6hY88x7xDDSe6Ws+VhmGJFj635WCjDN85fFdawOSl/eJ8BhP1Q5byw6q11iBBmxOPvCb1bPlQ13C/k+MX2JC45wssdF5jPpbfgWU40YSX0phwcZ2jCF6nbHh/ihPH4J+B4eJ68/D8v4CXjrISvUZycw9KxyBWr18r1yhX4YP6krUHjLjhbqHeTPB8BHy4glyXl/lEBl5zuAMmrdNdAX+6cnREmL5XEuuKSQCWm53pkE9e49YXNp9+f24lUhxDf5a4kvIiO1sm1ovoDdeZwAoXPTD1xTwaqNtU9eOFrSIsuTlXg7+UKcJPZL8JdcEO6DE1EaMOEnW6KvdL5Fuvy8D7zLNYt5zc1V/bK95fSLCo7VXltFaL1W5pNOBPF7TjzZd2pfnyPjybOiZ7NzXh2Ii0CHwYEm7KAJk6kBNHJFZ3R0HcV7+7SdUC+HsZAVTSAWzsbVQTVt06vA6gn8DfrK6ExT8I+LsbVFdvgzqRH3Ex2YdBE+buLwDBiqBg+NIWrGz4UzTxfyqbVlIoXK5BJqRIUjl+4SPWTLpBzZLrQxGX4XMREhuNLYf4/TAU4yQriSFypR9w175HWC+7CfypDFlYamn/EVjOektslkVkRvnwdyTZ//hONTgS+BniWTr8lIig/AsaYMnLNAiJUoEs2YD4wXgndyPe93bIGp0BZYzrtO5lQ7OgeFdPcVcwVDNf2NVTymL5GdCTsvLID9wHNw5ysZCynOjOtyAPRh6Re8hDeJmy2GuMwed+P6WNh2Do+vPxXtuL7uG55WX5yXVco7XLSU6CpObB6ClYhgzxtGWg3iA/5S3AhKO9XxJ+cx+rlPlgkHS4wSmQGTri/A5dP1E+BALLB/8LD+HPjor74RR2fCT4l37AXQPT6mH5jOmKSecnqbSRCZ9pE3+zTNQLdqap4GaU62H5j8+hrKSs3pWGmyG8n17vsRxyMruEWlnzPZFsWfkff/Pb1pwvoGxKiRv0pfOrQgPAlo/n5MM9gWgUcT8vSzQKU+g0JIqHzzdlkHeKKQOTdAa5C2T0EiUN/npXT8mPRFB387dVAP8Doc+QF9faRJ9L2fFZpo55LuUwZdCb1F2iuE/ULtJAXu0NwL4AwL/BuGbCDgDW/6ZudgBDjAAG7lX74p4rehqLgZ8dCjqXPu7iOR8djck+AiKgcshNv7x20dBi1b46K2SeU0huHlZDG3v45fg9MVxwQ5KhOCf52FDBI9tB63ctfsdHmMSRRNLkYWWBBy1nbp5G68D6M2lpZfMOlBf/4xnMU8ddB2Fx1D9ZedJnrIkuG1mFmluJcnITLr07ppWZlZtew0CZ0JqdjXR4kUVjiUNr2eNeOmJucVGQOy0hWRORv1IaRTpIw7qF9WfkVINOiBFP0a0zLMlcQXAq8hEEdDktb5ZXJu+5G6nHfYomSxRYOeKiP+3K4n5MfDbvLZSTC5Iy0A/XWygfh7H+2lKSFdESSfMX6BOtVk4gF8okC6t8WqhcF7IMYOBIQ7Zyo/snu/QgXL8U158TndQWreYR6qyVPd2HkD3dQFHiSJLbV6dbr8NIDCNWE94pgFBah5Q1XUywPrlAMUp8T/r/ZbRn60R09Kki33kl4gpbztMwHJZx/rL1Bd1aOM+0c6TWDgD9Ier4wwC0aWJ4yPPwfrWsf2/wuhjpAKATHAk5PudxuLq4uM5kTUEbwx4fAr8jY3WTJK4ffzzycWTPOmMYKsrIugp2wvKna25haPlbYl1xopmhsZk2vBvLwHqK6g1knm3naJabIJ4g9VJKGvxvVZOf1O/NVLdsmxgr5cCf94gLjBv1YeRKt5fsAwR94/PDOqbOsf2ik3BkJfXE2MCIURK3eIB1fgkAe6NdA8BEIMf/m+geKjcCIPAzbBMdyOZS4Efnsb6rQZ3GDsZkHyUxOiLb+TU0bi6rbxL/omxV4K+A0GlVzoXldSV+/1gaIpUhSnozLobzOWgknE/gxzrGhyOD4RA7Ezf4r5CH3ocbloNZ5UdXBifohDc3VkPiUnbeQ//s7iYqtg7jpM/zeqSHUaYlWmbczRGAzHA97iHPHTRLrZlSIj/6Od22q/BOD6Hh8otSc3B+vljedrKO1que+IvIOn9SWf8kG7RMFrehnLnfgucD4LkQ9z+Ce/8AcJggE+vWp16J2Jkw1lw/ewbebT74LTDlRLlbj42N6CglvgsteU6+ap89w2YXgC+32MVQPLgYxsAPVM1jHxyka5bIQzqS3PHobPjRfA7juS2Jebf8nQDUWsjx6+BRPsKC70QXQTX0iOGd7Ci4AlvzeRid8h34z1W1HncejdEzgEx6CUY0rItInWSC/5Gw1+ESebP+daeGd8lzI0C0ueB48dFbi7waBkRpG2CecpOZdOHVLv4KyjMZ+SFb2cqYsr4P/12GZ3xXvABDkXQACz4HPRoP0L0aPDACzc8Av9vw/N9Czr/CaDNeB+tXoG13fAt5L0S9cr4GZfAfR/3cKzJPL/p32V0zbtRhidFj6XxN0Xs73veG1faJb9w5NpM/C8/G6Bl4xq0d+AU6rbvXSRti8EE5fdsFIrgDtC/FCCBcBGY7AID4RnQCZ66Yq4oCDhinjzxXIMUCfy/u4Z4+JvsYEAGAykIg5sQX46sZwz/kt15RaXIvBGdTOWWsRLSiojwsT0uy4jh6fdreZa2V3UZ4dwIIFczKjEfZlRGyjJZ/OEQ5S6jiAv0t0lJLqFQGTPId1goNR8iUUyYxWTY8gw1nVPXE5+LdWEZbzor6UYZYdywDwdnyEpnFWH/lyYR32vKYd+Pv4XRoIUE+7FDYSUf5cBUw37cSEbSi9WGT/QbBSIhlEBkgaZmW8Ch5VmkbKUe2bVs5S50Zg2IkxDpjuaTewE/XH/SfZRhCB1lPoXxHWAY+l+09fO9RtH3ex/JKG4iUgeWv1PGMAdG9Ayv/MoJ5TAewobtJnWHBfHWDAP/lzBsD/BvoLhpb4E8ooYQSSug1owF0ALDyL49uA8FkOwB0DqcNzFHv62lSF/eU5sE57t2ITmJiAvwJJZRQQm8wYgcAMBd3ThTc7RbMvQ3qYYB/b9TijwL/wDAjhBJKKKGEEnqdERd5wdK/GiOAoggesxVEuDWEBX50Chv7APzDDQ1NKKGEEkrodUqM5GEHAFAv8uvbFcEh8DeoTX2NahJHDObWhBJKKKGE3sgkMfwxI4Ao8CNVj+yDLAkllFBCCb3uiR1A10w1FYAvHQAtf+Pj39wH4Gfkj8maUEIJJZTQm4m4bw8s/Gt6GtVWbgaH881dDcpJLP6EEkoooTc5cf+eniZ1bXejegXAn0mAP6GEEkroLUKMAuL3AF65W43Z9hIFUur/ADBE3LdLEqk/AAAAAElFTkSuQmCC;" vertex="1" parent="1">
          <mxGeometry x="320" y="700" width="166.52" height="20" as="geometry" />
        </mxCell>
      </root>
    </mxGraphModel>
  </diagram>
</mxfile>
